<!DOCTYPE svg PUBLIC "-//W3C//DTD SVG 20010904//EN" "http://www.w3.org/TR/2001/REC-SVG-20010904/DTD/svg10.dtd">
<svg version="1.0" xmlns="http://www.w3.org/2000/svg" width="1438px" height="2772px" viewBox="0 0 6230 12010" preserveAspectRatio="xMidYMid meet">
<g id="layer101" fill="#000000" stroke="none">
 <path d="M96 11992 c-4 -8 -59 -169 -86 -258 -12 -36 -13 -244 -2 -244 4 0 17 33 29 73 35 117 79 232 128 330 25 50 45 95 45 99 0 11 -107 10 -114 0z m90 -24 c-25 -39 -97 -209 -137 -323 l-39 -110 0 76 c0 83 13 133 95 367 3 7 22 12 50 12 45 0 45 0 31 -22z"/>
 <path d="M363 11968 c-93 -175 -211 -506 -263 -738 -11 -52 -25 -113 -30 -135 -13 -52 -45 -220 -60 -310 -12 -70 -11 -273 1 -245 4 8 14 53 24 100 114 580 255 978 443 1258 34 51 62 94 62 97 0 3 -36 5 -80 5 -79 0 -79 0 -97 -32z m102 -61 c-189 -290 -315 -642 -430 -1197 -24 -116 -26 -118 -21 -20 5 93 67 417 115 600 58 224 149 478 225 629 l36 71 65 0 65 0 -55 -83z"/>
 <path d="M4321 11823 c-42 -93 -138 -435 -186 -663 -28 -133 -63 -313 -80 -410 -9 -52 -23 -129 -31 -170 -8 -41 -19 -100 -25 -130 -52 -273 -130 -573 -190 -730 -11 -30 -25 -68 -32 -85 -18 -49 -126 -265 -165 -330 -58 -97 -147 -210 -241 -303 -78 -78 -181 -160 -436 -347 -110 -81 -261 -212 -319 -276 -52 -57 -188 -234 -199 -259 -4 -8 -23 -42 -43 -75 -59 -100 -135 -267 -182 -395 -66 -185 -128 -413 -175 -645 -9 -44 -25 -123 -36 -175 -11 -52 -27 -133 -35 -180 -9 -47 -30 -159 -47 -250 -113 -610 -227 -950 -426 -1273 -116 -187 -267 -343 -492 -510 -327 -243 -307 -227 -434 -347 -93 -88 -267 -308 -267 -337 0 -4 -6 -14 -14 -22 -16 -18 -80 -140 -113 -216 -56 -127 -68 -158 -109 -285 -30 -91 -44 -148 -42 -175 3 -36 6 -29 42 80 22 66 45 134 52 150 105 255 158 355 264 505 128 180 257 296 555 500 393 270 547 434 720 771 146 285 267 688 361 1204 8 44 17 87 20 97 2 9 9 40 14 70 39 230 147 672 200 818 71 197 154 377 224 489 14 22 26 43 26 47 0 3 36 51 79 107 130 168 250 273 516 452 88 60 187 129 220 154 100 76 258 240 336 348 133 183 174 259 294 548 40 96 125 380 160 535 44 197 54 240 68 310 9 41 30 149 47 240 36 191 60 301 117 540 16 67 71 252 103 350 21 63 77 196 109 258 l21 42 -108 0 -109 0 -12 -27z m191 -15 c-17 -31 -69 -153 -97 -228 -27 -70 -84 -268 -114 -390 -50 -211 -59 -249 -95 -435 -57 -288 -64 -321 -102 -495 -32 -146 -49 -219 -99 -405 -16 -59 -92 -272 -130 -365 -99 -242 -244 -467 -407 -632 -62 -62 -140 -134 -173 -158 -33 -25 -62 -48 -65 -51 -3 -4 -68 -48 -145 -100 -211 -140 -289 -202 -410 -323 -279 -281 -465 -691 -599 -1321 -9 -44 -23 -109 -31 -145 -8 -36 -23 -112 -34 -170 -77 -396 -127 -620 -181 -805 -12 -38 -25 -83 -29 -100 -9 -32 -67 -190 -97 -265 -31 -78 -138 -282 -189 -360 -44 -67 -79 -115 -140 -189 -102 -124 -298 -281 -580 -465 -33 -22 -62 -42 -65 -45 -3 -4 -23 -19 -45 -36 -190 -139 -399 -398 -497 -614 -16 -35 -31 -61 -34 -58 -6 6 73 167 124 252 122 204 304 401 517 557 5 4 64 47 130 95 66 48 122 90 125 93 3 3 28 23 55 45 143 112 306 297 397 450 201 336 303 664 444 1430 9 50 29 155 46 235 16 80 33 168 38 195 4 28 22 109 40 180 160 663 384 1070 750 1360 92 73 76 61 190 146 52 39 102 76 110 82 9 7 42 32 75 57 91 68 104 79 192 167 136 137 219 255 319 454 137 273 232 591 319 1064 95 517 149 777 191 930 37 134 87 293 107 343 l21 52 93 0 93 0 -18 -32z m-4376 -8205 c-8 -15 -15 -25 -16 -21 0 12 23 58 27 54 3 -2 -2 -17 -11 -33z"/>
 <path d="M704 11777 c-71 -97 -104 -148 -139 -213 -21 -38 -46 -83 -56 -99 -19 -33 -86 -184 -99 -225 -5 -14 -20 -56 -35 -95 -23 -61 -62 -185 -109 -350 -36 -122 -79 -339 -171 -860 -9 -49 -34 -181 -56 -292 -38 -196 -48 -293 -30 -293 5 0 11 10 14 23 2 12 16 65 29 117 14 52 28 109 31 125 3 17 16 73 27 125 12 52 34 158 50 235 16 77 39 183 50 235 12 52 25 115 30 140 19 95 90 371 114 445 8 22 24 72 36 110 60 187 174 421 278 570 31 44 109 133 174 198 64 64 113 117 108 117 -5 0 -54 -44 -109 -97 -102 -100 -191 -208 -244 -298 -36 -61 -137 -257 -137 -267 0 -4 -11 -31 -24 -60 -50 -112 -121 -346 -185 -608 -30 -126 -41 -174 -86 -395 -13 -66 -36 -174 -50 -240 -14 -66 -30 -140 -35 -165 -21 -97 -68 -274 -69 -255 -1 10 14 96 33 190 19 93 42 213 51 265 9 52 25 140 35 195 10 55 26 143 35 195 74 414 130 634 245 950 59 163 148 339 242 478 89 132 75 124 212 121 85 -2 121 1 124 9 3 9 -31 12 -125 12 l-128 -1 -31 -42z"/>
 <path d="M1142 11761 c-75 -62 -196 -181 -250 -246 -39 -47 -162 -221 -162 -230 0 -2 -21 -38 -46 -81 -25 -43 -50 -87 -54 -98 -4 -12 -19 -46 -32 -76 -54 -122 -86 -210 -142 -390 -49 -159 -109 -432 -161 -730 -69 -399 -138 -740 -170 -855 -47 -160 -79 -268 -101 -328 -24 -67 -31 -127 -16 -127 9 0 66 144 117 294 35 103 91 312 119 443 8 37 24 111 36 163 12 52 25 118 30 145 26 145 127 598 149 671 5 16 17 58 26 94 42 154 121 365 186 495 179 359 317 505 742 785 86 57 157 107 157 112 0 4 -83 8 -184 8 l-185 0 -59 -49z m352 1 c-21 -15 -79 -54 -129 -86 -179 -118 -295 -207 -384 -296 -233 -231 -418 -600 -536 -1070 -20 -80 -43 -170 -51 -201 -15 -60 -99 -462 -114 -544 -9 -55 -20 -103 -80 -347 -55 -227 -134 -477 -146 -465 -3 2 9 49 26 103 61 199 67 220 115 444 8 36 22 106 30 155 9 50 23 122 30 160 8 39 19 97 24 130 24 147 96 527 111 585 5 19 19 76 31 125 114 483 310 878 565 1141 38 38 101 98 139 132 l70 62 169 0 169 0 -39 -28z m-1459 -3069 c-9 -15 -13 -19 -10 -8 4 11 10 29 13 40 3 11 7 14 9 8 3 -7 -3 -24 -12 -40z"/>
 <path d="M1655 11744 c-44 -37 -100 -80 -125 -97 -25 -17 -49 -35 -55 -39 -5 -5 -50 -38 -100 -75 -85 -63 -304 -273 -353 -338 -206 -272 -354 -598 -452 -995 -17 -69 -37 -150 -45 -180 -19 -72 -52 -248 -100 -520 -115 -654 -200 -976 -340 -1280 -27 -58 -57 -118 -67 -135 -10 -16 -18 -43 -18 -60 0 -27 4 -23 41 38 22 37 38 75 35 83 -3 9 -2 12 4 9 11 -7 105 180 135 265 112 322 167 532 255 969 60 302 72 357 134 606 34 137 117 400 151 480 130 307 294 539 505 714 41 34 80 65 85 69 66 47 116 82 119 82 12 0 280 184 350 240 99 78 222 198 213 206 -3 4 -38 -24 -76 -62 -94 -93 -160 -150 -245 -208 -39 -27 -85 -59 -101 -70 -17 -12 -64 -41 -104 -66 -159 -98 -334 -243 -444 -368 -31 -35 -110 -146 -175 -247 -15 -24 -112 -219 -130 -261 -69 -167 -137 -392 -197 -649 -7 -33 -20 -89 -29 -125 -8 -36 -33 -155 -55 -265 -66 -328 -138 -634 -190 -810 -21 -69 -85 -242 -107 -289 -32 -67 -25 -42 36 139 88 260 151 539 245 1090 25 143 51 273 81 405 14 63 30 131 34 150 24 109 65 240 157 497 34 94 173 355 243 452 100 142 273 314 455 451 83 62 189 145 237 183 l88 68 150 -3 c82 -2 150 0 150 5 0 4 -71 7 -158 7 l-158 0 -79 -66z m-1534 -3503 c-17 -34 -33 -61 -36 -61 -3 0 10 29 27 65 18 35 34 63 36 61 2 -2 -11 -31 -27 -65z"/>
 <path d="M2438 11716 c-80 -160 -146 -255 -267 -381 -111 -116 -167 -163 -451 -372 -52 -38 -115 -87 -140 -109 -61 -52 -209 -202 -240 -242 -14 -18 -33 -43 -44 -55 -10 -12 -24 -31 -31 -42 -7 -11 -33 -52 -58 -91 -95 -148 -185 -340 -257 -549 -85 -248 -154 -560 -265 -1195 -59 -341 -143 -661 -243 -927 -31 -80 -163 -329 -220 -413 -28 -41 -89 -119 -136 -172 -52 -59 -86 -106 -86 -119 0 -13 3 -19 7 -15 4 4 8 13 8 21 0 7 23 38 51 68 77 82 244 310 244 331 0 4 10 23 23 44 28 44 118 238 142 302 41 116 108 331 124 405 5 22 19 83 30 135 26 115 63 301 86 430 9 52 23 131 31 175 124 696 237 1064 432 1408 108 190 297 405 467 533 28 21 52 41 55 44 3 3 50 39 105 79 354 257 498 414 645 699 l43 82 88 0 c49 0 89 -4 89 -8 0 -17 -126 -262 -173 -337 -161 -254 -308 -400 -587 -585 -316 -209 -407 -281 -524 -416 -115 -134 -190 -248 -260 -399 -21 -44 -41 -87 -46 -96 -52 -98 -176 -498 -220 -709 -5 -25 -28 -133 -50 -240 -23 -107 -45 -217 -50 -245 -11 -60 -43 -212 -66 -310 -9 -38 -20 -90 -25 -114 -5 -24 -16 -67 -24 -95 -8 -28 -29 -98 -45 -156 -37 -127 -35 -120 -105 -297 -71 -180 -145 -322 -233 -448 -39 -55 -148 -183 -172 -202 -8 -6 -12 -15 -8 -19 16 -16 172 175 258 315 136 223 257 545 345 916 9 39 21 86 26 106 5 20 29 137 54 260 68 341 94 468 111 539 9 36 23 94 31 130 38 161 119 409 177 540 154 354 324 572 602 773 51 37 96 67 98 67 2 0 62 39 133 86 309 209 423 325 609 619 46 73 150 281 159 318 l7 27 -104 0 -103 0 -47 -94z"/>
 <path d="M2745 11788 c-3 -13 -13 -41 -22 -63 -8 -22 -22 -58 -31 -80 -8 -22 -30 -73 -49 -113 -18 -41 -33 -75 -33 -77 0 -11 -136 -233 -150 -245 -3 -3 -27 -32 -52 -65 -112 -146 -213 -236 -543 -477 -121 -89 -285 -240 -367 -338 -47 -57 -148 -196 -148 -205 0 -2 -15 -28 -33 -57 -69 -108 -165 -329 -227 -518 -60 -186 -94 -325 -161 -670 -37 -192 -48 -250 -85 -455 -108 -598 -213 -928 -406 -1273 -20 -37 -127 -194 -137 -202 -3 -3 -32 -35 -64 -72 -32 -37 -98 -102 -147 -144 -83 -72 -102 -94 -82 -94 14 0 107 77 105 87 -1 6 4 10 11 9 20 -2 110 79 190 170 77 87 182 239 239 345 56 105 141 312 186 454 68 213 107 368 171 685 51 250 89 432 111 530 11 52 24 111 29 130 4 19 20 80 35 135 15 55 31 114 35 130 44 165 163 443 257 599 92 154 255 334 408 452 22 17 110 78 195 134 250 167 314 215 425 325 121 120 257 305 326 445 17 36 38 69 46 73 7 5 11 12 8 17 -3 5 8 37 24 72 27 58 41 92 76 188 80 215 84 190 -34 190 -95 0 -100 -1 -106 -22z m185 7 c0 -31 -117 -329 -180 -455 -60 -122 -56 -114 -141 -241 -155 -230 -285 -354 -578 -547 -260 -171 -419 -302 -529 -437 -103 -126 -220 -329 -297 -514 -55 -133 -148 -443 -185 -616 -58 -274 -87 -415 -125 -605 -25 -124 -50 -241 -55 -260 -5 -19 -21 -80 -35 -135 -86 -340 -195 -619 -326 -832 -54 -87 -193 -264 -250 -318 -38 -35 -36 -33 12 23 195 228 336 487 435 801 13 42 30 96 38 121 36 109 115 473 161 740 87 501 139 735 226 1009 124 390 281 667 505 896 94 96 159 150 369 308 99 74 213 164 253 199 201 174 367 422 482 718 22 58 45 115 50 128 9 20 16 22 90 22 44 0 80 -2 80 -5z"/>
 <path d="M3211 11773 c-6 -21 -11 -44 -11 -50 0 -22 -70 -304 -102 -408 -152 -507 -384 -851 -749 -1111 -30 -22 -61 -44 -69 -51 -8 -6 -71 -53 -139 -104 -205 -154 -370 -327 -478 -504 -174 -281 -307 -650 -398 -1095 -9 -47 -23 -114 -30 -150 -8 -36 -30 -155 -50 -265 -97 -530 -155 -781 -238 -1020 -33 -97 -111 -275 -150 -345 -11 -19 -31 -55 -45 -80 -63 -114 -192 -281 -294 -380 -75 -74 -115 -106 -376 -298 -71 -52 -92 -76 -78 -90 4 -3 13 -2 20 3 22 16 130 89 148 100 65 39 248 176 326 244 113 99 263 295 354 461 35 63 123 257 143 310 57 161 97 294 136 455 11 44 24 96 29 115 10 40 41 187 70 335 86 441 137 665 202 885 76 262 196 517 331 709 66 94 227 260 322 332 33 25 139 99 235 164 225 151 286 199 391 304 208 207 351 444 482 796 42 111 119 380 151 525 10 41 23 100 31 130 7 30 16 70 19 88 l6 32 -90 0 -89 0 -10 -37z m169 15 c0 -11 -36 -176 -61 -278 -95 -388 -212 -690 -362 -940 -100 -165 -318 -401 -462 -499 -44 -30 -135 -91 -202 -137 -194 -131 -271 -192 -384 -304 -191 -190 -323 -416 -446 -760 -44 -123 -117 -394 -153 -565 -4 -22 -29 -141 -54 -265 -60 -299 -80 -391 -129 -610 -52 -229 -139 -487 -224 -663 -24 -48 -43 -90 -43 -92 0 -3 -14 -28 -32 -57 -183 -307 -328 -458 -638 -664 -69 -46 -138 -93 -155 -105 -23 -16 -22 -14 5 9 30 26 134 105 247 187 145 106 280 244 390 400 56 79 152 247 183 321 12 27 28 62 35 79 97 213 178 515 270 1010 9 44 31 166 51 270 80 431 145 705 209 875 40 108 123 304 154 365 57 112 153 269 181 295 3 3 21 25 40 50 81 103 211 224 355 331 33 24 62 46 65 49 3 3 68 52 145 110 121 90 255 213 346 316 42 47 124 166 159 230 18 32 40 70 50 84 82 123 227 553 280 831 6 29 15 69 20 91 l11 38 74 0 c41 0 75 -1 75 -2z"/>
 <path d="M3625 11773 c-17 -109 -96 -532 -120 -643 -86 -398 -162 -626 -287 -869 -33 -63 -73 -131 -89 -152 -16 -20 -29 -40 -29 -43 0 -4 -23 -37 -52 -74 -81 -105 -245 -261 -375 -358 -65 -48 -161 -119 -213 -158 -381 -284 -582 -578 -762 -1111 -12 -33 -24 -73 -28 -90 -4 -16 -18 -66 -30 -110 -40 -146 -82 -338 -144 -675 -153 -821 -212 -1031 -384 -1378 -161 -324 -309 -478 -797 -832 -41 -30 -83 -60 -91 -67 -9 -6 -17 -18 -18 -26 -1 -8 -8 -22 -15 -31 -21 -25 -2 -19 38 13 20 15 108 77 196 136 266 179 353 249 485 391 44 47 121 147 147 189 7 11 30 50 52 87 63 102 147 275 171 348 5 14 20 57 35 95 31 80 70 205 90 285 7 30 25 100 39 155 28 114 42 179 91 425 138 697 209 955 337 1238 71 158 176 331 262 432 65 76 208 211 273 256 37 27 70 51 73 54 3 3 78 54 168 115 267 178 400 299 543 493 38 50 69 95 69 98 0 3 15 29 34 58 28 44 109 205 146 291 66 151 144 402 200 645 49 211 170 807 170 836 0 11 -18 14 -90 14 l-89 0 -6 -37z m169 0 c-2 -10 -29 -144 -59 -298 -103 -520 -164 -762 -253 -1015 -48 -134 -131 -314 -187 -405 -17 -27 -36 -62 -44 -76 -28 -57 -151 -209 -241 -299 -100 -101 -201 -180 -415 -325 -218 -148 -276 -194 -385 -304 -110 -111 -234 -283 -294 -406 -10 -22 -34 -69 -51 -105 -45 -91 -138 -351 -171 -475 -29 -112 -51 -200 -57 -230 -3 -16 -16 -73 -27 -125 -11 -52 -39 -185 -60 -295 -151 -767 -250 -1082 -450 -1434 -29 -51 -101 -155 -145 -211 -10 -14 -69 -75 -130 -135 -106 -107 -186 -169 -420 -325 -60 -41 -128 -87 -150 -104 -21 -17 -36 -26 -32 -19 4 6 64 54 134 105 313 230 320 236 443 358 180 178 289 351 425 675 18 44 70 200 103 310 44 149 118 490 167 775 9 52 23 129 31 170 8 41 23 122 34 180 11 58 27 132 35 165 8 33 23 96 34 140 104 428 251 769 438 1012 127 167 249 276 589 528 292 216 464 419 608 717 126 262 209 544 291 988 35 190 66 360 76 418 l11 62 78 0 c69 0 78 -2 74 -17z"/>
 <path d="M3841 11778 c-5 -18 -15 -60 -21 -93 -7 -33 -18 -89 -25 -125 -8 -36 -21 -108 -30 -160 -9 -52 -23 -126 -30 -165 -8 -38 -25 -128 -39 -200 -14 -71 -35 -173 -46 -225 -12 -52 -25 -115 -30 -140 -22 -106 -101 -362 -157 -505 -44 -111 -127 -270 -192 -367 -138 -207 -270 -333 -576 -553 -60 -43 -112 -81 -115 -84 -3 -3 -36 -32 -75 -63 -352 -284 -585 -693 -729 -1283 -62 -252 -82 -348 -121 -565 -40 -229 -108 -574 -132 -675 -38 -159 -103 -387 -131 -455 -5 -14 -18 -45 -27 -70 -114 -293 -265 -528 -459 -713 -70 -68 -265 -222 -361 -287 -112 -75 -312 -246 -302 -257 4 -3 36 22 72 55 36 34 91 81 123 104 31 24 59 45 62 48 3 3 61 46 130 94 69 49 141 102 160 119 113 96 189 171 243 237 34 41 64 77 67 80 3 3 27 38 54 78 152 234 258 483 346 818 40 151 84 363 156 754 37 199 46 250 65 340 11 52 26 122 34 155 8 33 24 101 36 150 34 142 138 452 161 480 4 5 8 15 8 22 0 15 86 192 121 251 38 63 112 177 118 182 3 3 25 30 47 60 77 102 212 229 369 347 106 79 112 84 215 159 134 97 243 198 355 329 100 116 194 280 291 507 42 98 85 228 123 368 38 145 98 422 136 630 40 221 44 243 97 513 l23 117 77 0 c43 0 78 -4 78 -10 0 -5 -11 -53 -25 -107 -24 -96 -41 -174 -85 -398 -12 -60 -33 -164 -46 -230 -14 -66 -32 -154 -40 -195 -65 -333 -183 -712 -294 -947 -17 -35 -30 -65 -30 -67 0 -9 -105 -183 -130 -216 -15 -19 -29 -40 -31 -46 -8 -21 -94 -120 -177 -202 -115 -114 -197 -177 -407 -316 -176 -116 -269 -189 -370 -291 -95 -95 -107 -108 -170 -194 -66 -90 -143 -231 -222 -411 -52 -117 -120 -330 -162 -505 -49 -207 -74 -317 -84 -375 -23 -129 -126 -618 -155 -735 -18 -73 -28 -109 -62 -230 -27 -94 -109 -325 -129 -362 -5 -10 -28 -56 -50 -103 -101 -212 -185 -334 -336 -486 -144 -145 -159 -157 -400 -319 -183 -123 -247 -171 -328 -244 -62 -57 -32 -47 35 11 65 56 216 166 348 253 263 172 407 309 551 525 157 235 273 519 378 930 12 47 26 101 31 120 5 19 36 170 69 335 33 165 70 343 81 395 12 52 25 115 30 140 20 98 81 322 119 437 99 299 215 520 373 709 118 141 208 217 463 389 280 190 385 277 511 428 119 141 193 261 281 457 116 256 195 518 287 950 27 128 32 150 81 400 49 250 63 313 91 417 13 51 24 97 24 103 0 6 -36 10 -89 10 l-89 0 -11 -32z"/>
 <path d="M4067 11758 c-15 -51 -42 -163 -72 -293 -28 -121 -59 -280 -100 -505 -52 -292 -74 -399 -122 -595 -43 -181 -54 -220 -96 -340 -58 -166 -66 -186 -122 -300 -114 -233 -255 -421 -424 -564 -65 -55 -249 -195 -316 -241 -153 -103 -349 -286 -446 -415 -163 -215 -265 -421 -369 -740 -81 -250 -116 -406 -216 -945 -9 -47 -22 -121 -31 -165 -35 -190 -99 -473 -138 -610 -127 -450 -326 -797 -591 -1031 -65 -57 -105 -88 -405 -311 -143 -106 -279 -237 -373 -357 -65 -82 -86 -124 -49 -95 16 13 17 12 4 -3 -7 -10 -17 -15 -22 -13 -19 12 -179 -288 -179 -334 1 -19 16 3 54 79 30 58 70 130 90 160 37 56 45 77 24 64 -7 -4 -8 -3 -4 5 4 6 11 9 16 6 5 -3 27 19 50 49 105 143 264 281 530 461 80 54 183 127 230 163 104 80 253 229 311 312 13 19 27 37 30 40 4 3 22 30 41 60 202 319 330 679 444 1250 14 69 32 157 40 195 8 39 21 106 30 150 93 473 166 739 272 990 34 80 110 231 136 268 14 21 26 40 26 42 0 9 73 109 123 170 112 135 233 234 550 448 333 226 536 460 694 802 162 350 229 594 389 1410 43 224 123 552 164 672 16 50 30 96 30 102 0 7 -32 11 -94 11 l-95 0 -14 -52z m173 -15 c-10 -32 -23 -69 -28 -83 -12 -31 -95 -367 -117 -470 -8 -41 -25 -122 -36 -180 -11 -58 -32 -161 -46 -230 -117 -594 -211 -904 -366 -1213 -57 -114 -146 -261 -192 -316 -165 -199 -257 -281 -500 -446 -374 -255 -479 -351 -631 -576 -164 -244 -313 -641 -394 -1054 -4 -22 -17 -85 -29 -140 -12 -55 -26 -122 -31 -150 -13 -75 -68 -341 -84 -415 -8 -36 -22 -99 -31 -140 -44 -200 -123 -459 -189 -623 -139 -343 -339 -619 -581 -805 -92 -71 -96 -74 -118 -87 -64 -39 -296 -201 -362 -254 -81 -64 -203 -182 -263 -256 -18 -22 -29 -31 -23 -20 5 11 45 62 89 114 70 81 113 123 244 237 15 13 58 46 96 73 70 49 256 187 280 206 7 5 18 15 25 20 339 276 544 622 692 1165 34 125 90 382 125 570 58 320 108 572 136 695 9 39 18 81 21 95 20 97 111 389 159 510 33 82 132 287 155 320 9 14 38 59 65 100 127 202 308 372 644 610 95 67 252 199 308 259 245 262 420 628 532 1114 53 228 85 393 136 682 34 194 89 447 141 648 l25 97 83 0 83 0 -18 -57z"/>
 <path d="M4620 11784 c-6 -14 -10 -27 -10 -30 0 -2 -22 -50 -49 -107 -88 -183 -157 -383 -211 -612 -11 -49 -25 -106 -30 -125 -13 -51 -90 -442 -135 -685 -9 -49 -23 -119 -30 -155 -8 -36 -17 -81 -21 -100 -38 -211 -142 -565 -209 -715 -132 -295 -225 -436 -404 -612 -73 -72 -321 -273 -337 -273 -3 0 -64 -45 -137 -101 -170 -130 -268 -223 -365 -349 -23 -30 -45 -59 -50 -65 -29 -38 -152 -240 -152 -250 0 -3 -18 -43 -40 -91 -47 -99 -56 -123 -115 -294 -87 -251 -140 -477 -250 -1075 -59 -319 -84 -433 -144 -655 -114 -423 -287 -744 -532 -988 -75 -75 -151 -135 -479 -379 -156 -116 -267 -221 -366 -345 -52 -64 -196 -296 -214 -343 -4 -11 -17 -41 -28 -65 -23 -50 -67 -157 -88 -210 -13 -35 -54 -166 -92 -295 -28 -95 -77 -317 -122 -553 -12 -62 -13 -142 -2 -142 4 0 15 44 25 98 11 53 25 124 32 157 8 33 21 94 30 135 101 461 266 859 466 1120 101 133 314 322 479 425 25 15 47 31 50 34 3 3 13 11 22 16 143 84 353 267 474 411 123 148 277 436 354 664 83 243 160 555 230 920 104 550 167 801 265 1060 7 19 19 51 27 70 36 95 153 309 218 401 134 187 264 306 534 490 187 127 267 189 379 292 84 77 217 233 217 255 0 6 3 12 8 14 19 8 116 174 175 298 104 219 157 374 236 695 35 142 57 247 156 745 13 69 34 168 46 220 11 52 25 113 29 135 61 292 217 675 361 886 33 47 59 89 59 92 0 4 -56 7 -125 7 -125 0 -125 0 -135 -26z m230 2 c0 -2 -22 -37 -50 -79 -136 -206 -281 -558 -340 -827 -5 -19 -18 -78 -29 -130 -35 -157 -50 -229 -77 -365 -129 -663 -176 -850 -286 -1145 -85 -227 -229 -483 -356 -633 -69 -81 -197 -201 -287 -267 -33 -25 -62 -48 -65 -51 -3 -3 -63 -46 -135 -94 -359 -243 -521 -408 -669 -687 -155 -291 -254 -608 -361 -1158 -67 -343 -110 -552 -125 -610 -5 -19 -18 -71 -29 -115 -83 -345 -217 -686 -342 -873 -16 -24 -29 -46 -29 -49 0 -12 -133 -174 -201 -243 -89 -91 -187 -171 -334 -273 -266 -183 -325 -228 -429 -327 -114 -110 -198 -214 -268 -334 -51 -87 -141 -266 -161 -321 -55 -147 -98 -276 -128 -378 -18 -65 -35 -114 -37 -108 -8 24 112 408 174 558 61 147 145 304 222 413 84 120 224 270 317 341 17 13 32 26 35 29 6 8 202 152 304 225 144 101 262 212 381 356 161 195 310 510 400 849 9 36 21 78 26 94 8 26 24 96 74 326 7 36 21 108 30 160 9 52 22 127 30 165 8 39 23 122 35 185 78 422 174 773 275 1004 90 208 162 335 276 482 121 157 239 264 484 439 129 93 107 76 220 167 104 83 205 181 261 253 21 28 41 52 44 55 10 9 77 113 122 190 95 162 197 426 258 670 12 47 27 110 35 140 13 51 64 303 100 495 32 168 95 484 116 575 11 52 23 106 26 120 10 47 74 265 108 365 35 104 51 143 116 283 22 46 39 89 39 96 0 29 25 36 127 36 57 0 103 -2 103 -4z m-4751 -9150 c-7 -31 -14 -54 -16 -52 -3 3 1 30 8 60 7 31 14 54 16 52 3 -3 -1 -30 -8 -60z"/>
 <path d="M4952 11773 c-143 -182 -301 -508 -387 -798 -19 -66 -41 -142 -49 -170 -37 -129 -75 -310 -151 -710 -97 -513 -115 -598 -186 -835 -92 -304 -232 -592 -368 -755 -56 -66 -230 -234 -291 -281 -36 -27 -121 -90 -190 -139 -69 -49 -130 -94 -136 -99 -7 -6 -24 -20 -39 -31 -70 -50 -186 -158 -257 -239 -204 -230 -359 -538 -473 -936 -55 -192 -92 -354 -151 -670 -9 -47 -24 -128 -34 -180 -10 -52 -26 -135 -35 -185 -119 -648 -283 -1082 -523 -1390 -113 -144 -203 -223 -552 -482 -229 -170 -385 -322 -485 -473 -133 -199 -219 -379 -299 -625 -78 -236 -114 -390 -201 -850 -68 -358 -103 -535 -126 -633 -22 -96 -23 -112 -8 -112 6 0 8 7 5 16 -3 8 -2 13 3 10 9 -6 72 243 94 374 2 14 18 95 36 180 17 85 38 191 47 235 69 351 143 636 209 810 15 39 29 79 32 90 7 24 113 244 145 300 35 61 133 206 163 240 143 163 251 255 495 420 394 266 530 415 725 790 129 249 231 585 335 1110 11 55 38 190 60 300 107 544 188 811 336 1109 133 267 303 461 572 654 56 39 104 72 106 72 23 0 306 218 394 304 67 64 227 259 245 296 4 8 21 38 37 65 44 73 117 219 152 305 16 41 38 95 48 120 20 49 96 304 125 415 28 113 48 203 100 465 40 203 59 298 101 495 96 455 230 817 390 1055 31 47 60 87 63 90 3 3 38 44 78 91 40 47 106 114 148 149 41 34 75 64 75 66 0 2 -78 4 -174 4 l-174 0 -30 -37z m306 -10 c-283 -246 -467 -561 -602 -1028 -63 -219 -98 -376 -195 -880 -102 -524 -197 -845 -338 -1135 -166 -341 -343 -538 -708 -786 -232 -157 -318 -225 -425 -333 -131 -133 -221 -259 -304 -426 -154 -311 -232 -570 -346 -1150 -97 -492 -92 -466 -140 -665 -119 -490 -283 -848 -509 -1110 -55 -64 -67 -76 -146 -148 -80 -74 -362 -282 -381 -282 -3 0 -60 -42 -127 -92 -198 -151 -349 -318 -454 -503 -147 -257 -232 -488 -337 -920 -19 -77 -35 -130 -35 -117 -1 22 7 57 54 252 70 286 155 532 237 688 72 135 101 188 114 203 8 8 14 19 14 23 0 20 176 232 247 296 111 102 135 120 453 355 124 91 273 228 349 321 131 159 280 446 361 694 11 36 26 81 32 100 6 19 15 49 19 65 4 17 18 73 32 126 38 139 80 347 151 729 75 408 115 578 207 875 54 172 141 367 232 520 129 215 272 374 473 525 54 41 101 78 102 83 2 4 8 7 13 7 8 0 193 133 267 193 15 11 79 73 142 137 196 195 319 407 450 770 53 148 125 447 185 765 8 44 23 125 34 180 10 55 26 141 36 190 9 50 23 119 30 155 8 36 22 101 31 145 16 75 30 130 71 280 51 186 146 437 220 580 48 94 86 160 99 176 8 8 14 19 14 22 0 8 65 100 94 135 19 21 26 22 173 22 l153 0 -42 -37z m-5074 -9763 c-15 -77 -30 -138 -32 -135 -2 2 8 71 24 152 15 81 29 142 32 135 2 -7 -9 -75 -24 -152z m-44 -231 c-17 -81 -24 -68 -8 16 6 38 14 62 16 56 2 -7 -1 -40 -8 -72z"/>
 <path d="M5905 11742 c-49 -38 -130 -97 -180 -132 -49 -35 -92 -67 -95 -70 -3 -3 -27 -22 -53 -42 -114 -86 -225 -199 -320 -323 -44 -59 -77 -105 -77 -109 0 -3 -14 -25 -30 -50 -34 -50 -151 -280 -173 -341 -8 -22 -32 -85 -52 -140 -59 -161 -79 -231 -149 -527 -17 -71 -73 -352 -101 -508 -26 -144 -95 -490 -105 -530 -5 -19 -21 -82 -36 -140 -121 -482 -324 -863 -585 -1096 -104 -92 -137 -118 -374 -287 -240 -172 -394 -328 -538 -549 -180 -275 -339 -743 -442 -1303 -9 -49 -23 -121 -30 -160 -7 -38 -23 -122 -35 -185 -73 -386 -109 -541 -177 -755 -54 -167 -87 -250 -166 -410 -46 -94 -74 -144 -103 -182 -13 -17 -24 -36 -24 -42 0 -6 -4 -11 -8 -11 -5 0 -13 -9 -18 -19 -35 -74 -253 -288 -414 -406 -366 -269 -431 -323 -547 -455 -132 -149 -285 -404 -358 -595 -120 -314 -167 -500 -290 -1160 -79 -424 -134 -658 -204 -872 -52 -157 -57 -172 -103 -272 -28 -61 -30 -80 -10 -67 39 24 242 626 229 677 -3 10 -2 17 2 14 11 -6 35 100 28 120 -4 9 -3 14 2 11 5 -3 11 7 14 22 9 42 85 418 103 507 71 365 138 628 208 825 66 186 93 246 193 429 95 173 237 341 401 474 68 55 89 70 267 192 111 76 207 145 215 155 3 3 19 16 35 29 70 54 200 188 266 276 80 106 202 325 259 465 12 30 28 69 35 85 54 128 111 327 178 615 37 161 42 185 107 515 81 408 103 503 176 733 86 274 199 510 333 689 125 169 243 276 506 458 305 212 406 300 540 470 249 318 401 699 540 1360 20 94 40 193 45 220 8 44 66 336 90 450 11 53 76 306 94 370 63 217 182 495 267 623 16 24 29 46 29 49 0 14 142 186 205 246 79 78 216 184 350 272 142 93 305 219 393 302 7 7 12 39 12 82 l0 71 -117 0 -118 0 -90 -68z m315 1 c0 -32 -4 -63 -8 -69 -19 -29 -233 -198 -338 -268 -325 -217 -481 -358 -608 -551 -147 -223 -252 -477 -347 -840 -42 -163 -41 -154 -150 -705 -63 -320 -122 -568 -169 -715 -59 -183 -81 -242 -138 -370 -43 -96 -112 -225 -153 -288 -22 -32 -39 -61 -39 -64 0 -3 -23 -35 -52 -72 -83 -106 -244 -262 -368 -355 -63 -47 -120 -91 -127 -96 -7 -6 -15 -10 -17 -10 -3 0 -45 -28 -93 -62 -350 -246 -511 -438 -680 -803 -113 -244 -193 -528 -298 -1065 -73 -369 -92 -459 -140 -655 -103 -414 -220 -692 -415 -985 -53 -79 -261 -289 -350 -354 -36 -26 -72 -52 -81 -59 -8 -7 -23 -16 -32 -22 -57 -35 -205 -138 -277 -194 -197 -151 -349 -320 -460 -513 -97 -167 -208 -439 -265 -648 -9 -36 -23 -85 -30 -110 -12 -44 -25 -101 -61 -262 -10 -43 -19 -76 -22 -74 -2 3 6 51 18 108 95 444 200 755 332 985 28 48 56 97 62 108 10 17 57 85 83 120 81 107 194 224 293 304 92 75 83 68 220 166 69 49 127 92 130 95 3 3 32 25 65 50 87 65 252 232 321 325 137 182 253 419 335 680 49 160 59 196 89 325 52 225 49 211 146 730 39 209 92 445 136 600 114 409 261 717 447 940 68 82 197 207 276 268 33 26 65 51 71 57 6 5 50 37 98 70 125 87 265 194 316 242 25 23 56 52 70 65 105 98 241 292 323 460 146 300 236 611 342 1193 9 50 23 122 30 160 7 39 21 111 30 160 38 206 115 522 164 673 88 269 171 448 308 659 130 202 298 363 593 568 47 33 92 65 100 72 8 7 35 28 60 47 l45 36 108 0 107 0 0 -57z m-5731 -10302 c-6 -34 -14 -60 -16 -57 -2 2 1 32 8 65 6 34 14 60 16 57 2 -2 -1 -32 -8 -65z m-25 -135 c-3 -21 -8 -35 -11 -32 -2 2 -1 20 3 40 3 21 8 35 11 32 2 -2 1 -20 -3 -40z"/>
 <path d="M2122 11757 c-74 -103 -174 -204 -307 -307 -38 -30 -72 -57 -75 -60 -3 -3 -75 -58 -161 -121 -178 -133 -318 -266 -437 -414 -19 -24 -79 -114 -110 -165 -39 -63 -160 -308 -172 -348 -5 -15 -18 -52 -30 -82 -53 -138 -69 -191 -124 -415 -48 -192 -72 -309 -120 -577 -9 -49 -23 -127 -32 -175 -76 -423 -125 -633 -200 -863 -25 -74 -51 -149 -59 -167 -8 -17 -15 -34 -15 -37 0 -22 -149 -300 -208 -389 -75 -110 -95 -162 -47 -117 14 13 23 30 20 38 -2 7 -1 11 4 8 13 -8 34 21 25 35 -4 7 -3 9 3 6 29 -18 191 268 281 493 92 231 161 487 256 950 111 545 189 855 260 1040 65 165 131 303 200 415 147 238 279 362 658 613 261 174 376 272 501 429 51 64 130 182 156 231 l12 22 -124 0 -124 0 -31 -43z m249 16 c-5 -10 -36 -57 -68 -104 -135 -200 -276 -337 -503 -489 -52 -35 -142 -95 -200 -133 -194 -130 -312 -231 -402 -345 -29 -37 -55 -69 -59 -72 -15 -12 -107 -163 -152 -250 -113 -219 -204 -489 -281 -835 -60 -270 -74 -334 -111 -515 -60 -300 -78 -376 -150 -638 -50 -183 -211 -562 -258 -607 -6 -7 -8 -7 -5 0 21 39 113 239 133 289 83 209 175 572 240 946 9 52 23 129 30 170 125 705 219 1032 393 1370 130 253 302 461 510 619 26 19 49 38 52 41 3 3 59 46 125 95 228 168 360 288 453 412 l47 63 108 0 c100 0 107 -1 98 -17z m-2210 -4040 c-11 -21 -30 -49 -42 -63 l-21 -25 16 25 c9 14 25 42 36 63 11 20 23 37 25 37 3 0 -4 -17 -14 -37z"/>
 <path d="M2987 11753 c-8 -27 -22 -77 -32 -113 -40 -150 -124 -363 -202 -510 -139 -263 -301 -447 -561 -635 -268 -194 -365 -274 -479 -395 -109 -114 -223 -278 -296 -425 -182 -365 -260 -643 -397 -1405 -40 -224 -97 -508 -117 -585 -33 -129 -76 -283 -93 -335 -52 -154 -150 -368 -229 -500 -41 -68 -60 -96 -139 -200 -30 -39 -178 -189 -232 -235 -19 -17 -74 -61 -122 -98 -49 -37 -88 -75 -88 -83 0 -22 13 -17 86 33 335 228 478 393 659 758 86 175 111 239 170 430 65 213 112 420 210 915 49 250 72 349 124 545 25 93 110 345 121 360 4 6 11 21 15 35 23 79 154 318 229 420 69 92 78 102 178 201 78 78 265 226 313 249 15 7 190 126 255 173 129 94 269 230 360 350 27 36 50 68 50 71 0 3 15 27 32 53 55 81 179 320 199 383 4 14 17 50 29 80 28 70 77 219 95 285 7 27 23 85 34 127 12 43 21 82 21 88 0 6 -35 10 -89 10 l-89 0 -15 -47z m173 21 c0 -38 -79 -308 -133 -454 -47 -126 -61 -159 -114 -265 -112 -222 -200 -352 -327 -483 -117 -121 -212 -197 -411 -329 -229 -152 -307 -213 -420 -328 -311 -316 -487 -739 -646 -1555 -11 -58 -27 -136 -35 -174 -8 -38 -26 -126 -40 -195 -14 -69 -29 -142 -34 -161 -5 -19 -25 -98 -44 -175 -40 -157 -100 -347 -140 -445 -29 -69 -144 -305 -174 -355 -127 -215 -290 -387 -517 -546 -138 -95 -139 -87 -4 17 106 81 281 247 342 324 100 128 250 395 300 535 8 22 31 85 51 140 41 114 61 185 120 435 22 96 69 334 101 520 9 52 26 140 36 195 11 55 26 136 35 180 104 546 262 964 474 1260 133 184 246 291 520 494 239 177 317 243 415 351 28 30 53 57 56 60 21 17 134 189 174 265 26 50 51 95 55 100 3 6 21 46 39 90 19 44 39 94 46 110 21 48 80 234 100 310 9 39 19 76 21 83 2 8 27 12 79 12 62 0 75 -3 75 -16z"/>
 <path d="M3407 11702 c-89 -471 -156 -730 -252 -967 -64 -159 -189 -376 -276 -480 -39 -47 -187 -196 -241 -243 -21 -18 -89 -69 -150 -114 -202 -145 -321 -240 -416 -332 -337 -327 -545 -802 -692 -1581 -17 -88 -39 -205 -49 -260 -11 -55 -26 -138 -35 -185 -44 -237 -79 -401 -112 -520 -14 -52 -30 -108 -34 -125 -64 -245 -221 -584 -360 -777 -96 -132 -288 -306 -530 -478 -105 -75 -212 -161 -207 -167 4 -3 159 109 277 200 8 7 47 35 85 63 150 109 315 272 408 402 20 28 37 55 37 59 0 3 6 14 14 22 37 43 139 250 193 391 14 36 31 81 38 100 21 53 90 291 125 430 11 42 70 341 99 500 52 286 83 450 97 515 117 545 280 943 508 1240 32 42 210 223 261 266 39 32 169 130 331 249 136 99 305 259 393 372 44 56 181 279 181 294 0 2 13 32 29 67 79 167 164 436 216 682 9 44 22 109 30 145 7 36 21 106 30 155 9 50 20 106 24 125 l7 35 78 3 79 3 -6 -28 c-3 -15 -20 -95 -37 -178 -92 -451 -184 -776 -280 -990 -5 -11 -21 -47 -35 -80 -64 -145 -185 -337 -289 -460 -72 -86 -112 -124 -246 -239 -30 -25 -259 -186 -266 -186 -10 0 -212 -150 -278 -206 -152 -130 -293 -311 -397 -510 -68 -129 -100 -207 -160 -387 -74 -224 -103 -339 -179 -717 -22 -107 -46 -229 -55 -270 -112 -556 -203 -855 -345 -1140 -169 -337 -337 -520 -698 -759 -66 -44 -153 -103 -192 -131 -39 -28 -76 -48 -81 -44 -14 8 -49 -25 -49 -48 0 -10 2 -18 5 -18 3 0 33 22 68 48 34 27 141 102 237 167 225 152 277 192 375 290 160 159 234 263 346 485 156 312 242 607 380 1310 111 570 202 885 327 1140 125 254 260 431 462 604 25 21 137 101 250 179 227 155 265 183 328 242 24 22 48 41 53 43 9 4 128 136 167 187 183 239 305 493 421 880 44 147 87 330 140 593 l47 232 -90 0 -91 0 -18 -98z"/>
 <path d="M5388 11763 c-182 -158 -335 -338 -431 -508 -40 -72 -123 -243 -140 -290 -8 -22 -31 -85 -52 -140 -21 -55 -41 -113 -46 -130 -4 -16 -17 -61 -28 -100 -45 -157 -104 -415 -145 -635 -9 -47 -32 -170 -51 -275 -20 -104 -42 -220 -50 -257 -8 -38 -22 -101 -31 -140 -84 -393 -215 -732 -377 -975 -93 -140 -277 -328 -434 -443 -329 -242 -374 -278 -493 -399 -293 -297 -477 -691 -610 -1301 -35 -158 -48 -221 -65 -315 -36 -195 -58 -313 -106 -555 -86 -442 -226 -842 -370 -1058 -16 -24 -29 -47 -29 -52 0 -4 -3 -10 -7 -12 -5 -1 -21 -23 -36 -46 -40 -61 -67 -92 -182 -208 -92 -93 -156 -144 -461 -369 -59 -44 -132 -102 -162 -130 -30 -27 -58 -51 -63 -53 -9 -4 -120 -129 -156 -177 -75 -98 -99 -134 -145 -212 -97 -167 -174 -352 -259 -621 -38 -119 -101 -402 -164 -737 -66 -357 -110 -567 -146 -710 -46 -183 -56 -217 -99 -341 -23 -65 -44 -129 -47 -141 -8 -35 11 -27 26 9 26 67 110 329 131 410 11 45 27 108 35 138 22 87 70 317 115 550 54 280 75 382 117 550 83 336 192 617 325 838 28 48 55 89 58 92 3 3 22 28 40 55 44 64 226 247 310 312 36 27 130 94 210 148 208 141 294 208 391 304 107 107 163 177 235 294 211 340 327 695 469 1427 25 129 54 273 65 320 10 47 26 119 35 160 26 116 56 242 66 275 85 278 114 356 198 525 98 195 161 286 290 422 112 118 292 264 409 333 185 109 457 354 569 515 111 159 217 352 268 490 73 195 136 397 165 530 5 19 18 78 29 130 12 52 30 140 41 195 50 248 63 314 75 375 7 36 21 103 30 150 77 380 180 711 285 920 161 319 330 504 671 735 57 39 132 91 168 118 l66 47 -233 0 -232 0 -42 -37z m462 23 c0 -3 -19 -18 -42 -34 -24 -16 -78 -53 -121 -83 -43 -30 -86 -58 -95 -64 -9 -5 -19 -12 -22 -15 -3 -3 -45 -35 -95 -72 -97 -72 -244 -217 -317 -313 -92 -122 -183 -289 -256 -470 -43 -107 -52 -134 -82 -235 -55 -189 -59 -204 -80 -300 -11 -52 -25 -113 -30 -135 -6 -22 -35 -166 -65 -320 -85 -435 -85 -436 -135 -635 -20 -79 -27 -106 -65 -235 -34 -116 -59 -187 -107 -300 -64 -154 -76 -177 -161 -315 -128 -208 -218 -312 -402 -470 -30 -26 -111 -83 -336 -240 -138 -95 -245 -185 -332 -277 -56 -59 -167 -196 -167 -206 0 -3 -16 -29 -36 -59 -19 -29 -64 -111 -98 -183 -56 -114 -84 -185 -141 -350 -16 -46 -81 -278 -88 -315 -3 -14 -15 -68 -26 -120 -12 -52 -56 -264 -97 -470 -41 -206 -81 -400 -89 -430 -112 -436 -160 -576 -272 -800 -175 -349 -331 -524 -674 -755 -325 -219 -443 -321 -582 -506 -175 -233 -300 -516 -407 -922 -7 -26 -15 -45 -17 -43 -6 5 32 152 71 281 34 114 88 259 126 340 18 39 41 88 51 110 106 234 305 479 527 650 7 6 18 15 25 20 7 6 87 65 178 131 213 156 204 148 340 284 313 312 487 719 633 1480 8 41 24 122 35 180 11 58 34 179 51 270 189 1012 433 1478 975 1862 314 223 499 394 622 577 81 121 152 263 239 481 27 68 101 321 128 440 35 151 118 572 176 895 61 339 181 729 301 980 110 231 202 360 382 537 76 75 144 141 150 147 11 10 427 16 427 7z m-5450 -9751 c-7 -30 -15 -53 -17 -51 -3 2 1 29 8 60 8 30 15 53 18 51 2 -3 -2 -30 -9 -60z"/>
 <path d="M6195 11550 c-29 -30 -106 -89 -391 -300 -385 -284 -607 -615 -776 -1160 -68 -218 -118 -422 -163 -665 -9 -49 -23 -121 -30 -160 -8 -38 -21 -113 -30 -165 -19 -106 -42 -220 -87 -420 -127 -571 -319 -963 -595 -1220 -127 -118 -188 -166 -378 -300 -330 -233 -514 -442 -670 -765 -35 -71 -71 -150 -80 -175 -78 -214 -131 -379 -155 -490 -5 -19 -18 -78 -30 -130 -35 -157 -78 -370 -116 -585 -14 -82 -29 -153 -69 -345 -51 -240 -124 -502 -180 -646 -29 -74 -129 -283 -167 -349 -138 -241 -299 -401 -658 -656 -114 -80 -110 -77 -220 -170 -217 -182 -368 -396 -507 -719 -101 -234 -196 -583 -277 -1020 -82 -442 -95 -507 -153 -745 -32 -137 -56 -224 -86 -316 -13 -40 -13 -46 0 -46 17 0 36 44 30 69 -3 10 -1 16 3 13 12 -7 33 62 27 86 -3 10 -2 17 3 14 11 -7 34 81 26 100 -3 9 -2 14 3 11 5 -3 23 54 40 127 27 116 45 202 106 507 114 569 154 724 270 1050 27 76 143 305 191 375 24 37 44 70 44 75 0 5 3 10 8 12 4 2 20 21 37 43 105 141 254 276 465 420 321 220 454 335 582 502 255 333 398 716 544 1458 7 39 22 113 33 165 10 52 27 133 36 180 124 624 256 983 478 1300 79 112 165 203 302 319 28 24 191 139 332 235 40 27 80 56 90 65 10 9 45 37 78 63 122 93 300 300 378 440 14 25 36 63 49 85 47 75 162 344 203 473 10 30 22 66 27 79 14 38 95 360 117 468 57 277 72 351 100 498 157 804 343 1242 653 1541 89 86 190 163 413 317 209 145 186 105 183 312 l-3 176 -30 -31z m25 -157 l-1 -158 -90 -65 c-49 -36 -96 -71 -104 -77 -7 -7 -16 -13 -18 -13 -5 0 -47 -29 -163 -109 -150 -105 -322 -274 -412 -404 -72 -106 -153 -256 -202 -377 -51 -126 -86 -225 -119 -335 -50 -170 -108 -425 -186 -825 -13 -69 -34 -168 -45 -220 -12 -52 -25 -116 -30 -141 -52 -264 -170 -625 -275 -839 -176 -359 -356 -558 -735 -815 -329 -224 -469 -360 -621 -605 -120 -194 -191 -363 -289 -685 -40 -133 -87 -349 -195 -895 -68 -342 -110 -510 -184 -725 -108 -311 -186 -467 -333 -668 -65 -87 -209 -237 -293 -303 -27 -21 -52 -41 -55 -44 -3 -3 -25 -19 -50 -36 -25 -17 -73 -51 -108 -75 -35 -24 -70 -48 -79 -54 -10 -5 -22 -14 -27 -18 -317 -236 -423 -345 -564 -579 -50 -83 -129 -238 -150 -294 -6 -16 -20 -54 -32 -84 -52 -136 -115 -350 -156 -527 -15 -67 -30 -120 -32 -118 -12 12 99 452 152 604 71 203 112 296 211 479 56 103 195 285 275 360 14 13 45 43 70 66 25 23 97 81 160 127 334 247 393 293 466 365 147 145 256 295 340 467 19 40 41 83 49 97 19 36 78 190 114 295 54 163 132 488 186 780 9 50 22 122 30 160 7 39 20 111 30 160 20 110 50 258 71 345 38 163 48 202 81 310 105 350 241 627 412 840 69 86 227 234 341 318 63 47 176 131 250 186 495 368 708 782 885 1721 14 72 31 164 39 205 8 41 22 116 31 165 33 179 57 290 104 480 36 148 49 190 99 336 75 213 78 221 132 327 135 264 206 367 365 528 89 91 193 177 320 267 144 101 291 213 319 244 6 7 12 12 14 13 1 0 2 -71 2 -157z m-5555 -10153 c-4 -23 -9 -39 -11 -37 -3 2 -2 23 2 46 4 23 9 40 11 37 3 -3 2 -23 -2 -46z m-21 -94 c-3 -21 -8 -35 -11 -32 -2 2 -1 20 3 40 3 21 8 35 11 32 2 -2 1 -20 -3 -40z"/>
 <path d="M6140 11120 c-161 -114 -345 -259 -420 -332 -270 -261 -474 -658 -605 -1178 -55 -221 -91 -391 -150 -720 -44 -244 -47 -261 -102 -505 -8 -38 -22 -90 -29 -114 -8 -25 -14 -52 -14 -62 0 -57 -168 -501 -229 -609 -15 -25 -35 -62 -46 -83 -35 -67 -169 -239 -247 -319 -77 -77 -245 -210 -464 -368 -268 -193 -481 -449 -617 -741 -115 -244 -165 -397 -257 -784 -18 -75 -78 -376 -104 -520 -47 -264 -101 -519 -143 -675 -14 -52 -29 -108 -33 -125 -31 -122 -104 -314 -183 -475 -155 -321 -310 -492 -697 -770 -271 -195 -433 -350 -550 -527 -107 -160 -218 -396 -290 -613 -34 -102 -63 -204 -64 -226 0 -23 -4 -40 -8 -38 -3 2 -18 -49 -33 -114 -48 -214 -65 -296 -161 -807 -19 -104 -42 -217 -50 -250 -24 -94 -35 -136 -41 -152 -4 -10 -1 -14 7 -11 14 4 25 41 64 223 51 230 52 236 127 615 92 468 186 783 312 1039 179 367 368 564 822 858 80 52 209 158 286 235 74 74 201 233 246 308 126 210 214 413 288 665 37 128 45 155 64 235 40 172 99 454 136 650 9 47 23 117 31 155 9 39 22 102 30 140 106 500 257 873 462 1140 117 152 257 273 532 460 288 196 418 317 572 535 42 60 138 216 138 226 0 2 15 36 34 76 40 86 94 223 129 328 70 209 146 522 211 870 150 800 267 1159 481 1480 132 198 248 310 502 486 l153 107 0 173 c0 96 -1 174 -2 174 -2 0 -41 -27 -88 -60z m70 -127 l0 -158 -88 -59 c-343 -232 -513 -413 -664 -706 -150 -291 -243 -607 -363 -1235 -54 -286 -109 -538 -146 -672 -12 -43 -25 -91 -29 -108 -11 -45 -84 -261 -113 -335 -104 -270 -256 -510 -431 -685 -115 -114 -176 -161 -458 -354 -194 -134 -322 -246 -421 -371 -28 -36 -54 -67 -57 -70 -22 -20 -129 -202 -176 -300 -90 -188 -146 -346 -212 -605 -47 -181 -51 -199 -137 -635 -84 -423 -127 -606 -189 -805 -140 -452 -357 -797 -646 -1030 -41 -33 -76 -63 -78 -67 -2 -5 -8 -8 -14 -8 -6 0 -27 -13 -47 -28 -20 -16 -94 -69 -166 -117 -71 -48 -132 -91 -135 -94 -3 -4 -32 -28 -65 -53 -138 -107 -255 -238 -361 -403 -43 -66 -146 -270 -175 -344 -7 -19 -14 -30 -16 -24 -6 17 112 268 174 372 129 217 293 398 494 544 421 305 496 371 642 565 216 289 377 727 492 1337 9 50 23 122 30 160 7 39 21 113 30 165 30 172 93 469 132 615 19 75 115 373 141 440 57 146 158 332 254 468 129 181 243 287 548 512 289 213 406 323 532 502 75 106 168 288 226 443 73 195 95 271 177 615 19 77 68 329 100 515 19 106 57 301 79 400 43 192 47 209 102 400 68 238 190 514 303 686 28 42 51 80 51 83 0 3 10 17 23 31 12 14 40 48 62 75 53 65 153 164 239 234 55 45 344 257 354 260 1 1 2 -70 2 -156z m-5204 -9320 c-8 -15 -15 -25 -16 -21 0 12 23 58 27 54 3 -2 -2 -17 -11 -33z"/>
 <path d="M6119 10681 c-219 -165 -389 -352 -521 -573 -60 -102 -133 -248 -162 -324 -7 -21 -24 -64 -35 -94 -24 -61 -77 -224 -110 -340 -45 -159 -88 -364 -166 -785 -47 -255 -59 -314 -97 -480 -71 -313 -175 -609 -272 -775 -20 -33 -36 -63 -36 -66 0 -11 -75 -120 -136 -199 -34 -44 -104 -120 -156 -170 -88 -84 -138 -124 -438 -347 -139 -103 -172 -131 -268 -228 -204 -206 -372 -503 -490 -870 -83 -258 -134 -475 -216 -925 -139 -757 -224 -1037 -428 -1415 -27 -50 -101 -153 -173 -239 -86 -104 -189 -197 -349 -315 -64 -47 -167 -124 -230 -171 -126 -93 -295 -254 -374 -356 -133 -171 -256 -412 -337 -659 -20 -63 -43 -133 -51 -155 -13 -39 -67 -260 -84 -339 -50 -245 -90 -456 -115 -596 -9 -52 -23 -125 -31 -162 -17 -83 -18 -98 -1 -98 10 0 33 100 81 343 70 353 78 389 121 567 160 664 392 1063 780 1345 15 11 47 35 70 53 24 17 46 32 49 32 3 0 58 37 123 82 198 137 292 218 409 353 60 69 164 215 164 230 0 5 6 16 14 24 8 9 31 50 52 91 37 70 51 101 105 225 56 129 157 474 203 690 9 44 25 118 36 165 21 99 37 178 86 425 145 743 330 1187 615 1482 67 69 203 185 264 225 22 15 72 49 110 77 39 28 77 54 85 58 41 18 254 188 331 265 176 174 352 450 442 693 124 332 169 505 277 1045 33 162 69 338 80 390 12 52 24 109 27 125 3 17 16 71 29 120 13 50 26 101 30 115 15 62 89 287 114 345 97 230 260 485 392 612 88 84 109 103 206 176 51 38 90 72 88 75 -4 4 -44 -21 -86 -55 -133 -105 -175 -142 -230 -200 -72 -76 -150 -168 -150 -178 0 -3 -12 -22 -27 -42 -46 -59 -155 -264 -208 -388 -41 -97 -127 -376 -155 -505 -5 -19 -18 -78 -29 -130 -12 -52 -39 -185 -61 -295 -80 -404 -89 -447 -137 -645 -90 -375 -186 -627 -347 -915 -26 -46 -103 -153 -154 -213 -128 -151 -254 -258 -502 -427 -257 -174 -389 -289 -497 -430 -21 -28 -41 -51 -45 -53 -5 -2 -8 -7 -8 -12 0 -4 -20 -37 -44 -73 -47 -70 -136 -246 -181 -357 -42 -103 -121 -347 -145 -445 -12 -49 -30 -124 -39 -165 -10 -41 -26 -113 -36 -160 -9 -47 -23 -114 -30 -150 -7 -36 -20 -101 -29 -145 -126 -643 -222 -974 -364 -1262 -47 -95 -123 -227 -134 -231 -5 -2 -8 -8 -8 -13 0 -10 -60 -93 -105 -144 -120 -138 -252 -248 -490 -410 -232 -158 -384 -288 -481 -410 -21 -27 -41 -52 -44 -55 -11 -10 -80 -110 -80 -116 0 -3 -15 -29 -34 -57 -31 -48 -76 -137 -141 -282 -26 -57 -99 -266 -115 -330 -4 -16 -21 -79 -37 -140 -17 -60 -38 -148 -48 -195 -25 -118 -43 -188 -44 -169 -1 10 10 70 24 135 14 66 29 133 32 149 25 130 113 423 165 555 42 106 122 272 165 344 104 172 253 347 381 448 37 29 69 55 72 59 5 7 100 75 195 141 33 23 62 44 65 47 3 4 32 26 65 51 104 77 265 230 325 310 19 25 37 47 40 50 23 19 107 154 157 250 159 307 241 587 368 1255 31 167 95 493 110 563 44 210 134 499 207 671 37 89 121 259 151 306 51 82 146 212 199 271 72 81 232 225 304 274 27 19 51 36 54 39 3 4 46 35 95 70 276 197 438 361 567 571 100 164 117 199 196 395 11 28 40 118 65 200 39 135 54 190 102 400 8 33 28 134 45 225 49 268 92 489 136 700 71 339 209 724 339 945 19 33 38 67 42 75 12 24 64 100 117 170 73 96 247 264 366 354 125 94 125 94 119 101 -3 2 -52 -31 -110 -74z m-5178 -10186 c-11 -49 -20 -82 -20 -71 -1 27 33 192 37 175 1 -8 -6 -54 -17 -104z"/>
 <path d="M6175 10328 c-332 -279 -542 -615 -690 -1103 -78 -257 -117 -432 -230 -1050 -9 -49 -20 -108 -25 -130 -5 -22 -18 -87 -30 -145 -46 -228 -119 -474 -193 -655 -62 -151 -90 -204 -210 -400 -33 -53 -127 -164 -204 -240 -81 -80 -144 -130 -428 -340 -148 -110 -169 -128 -272 -232 -248 -252 -413 -555 -546 -1003 -9 -30 -23 -77 -31 -105 -8 -27 -24 -93 -36 -145 -11 -52 -25 -111 -29 -130 -5 -19 -19 -87 -31 -150 -11 -63 -29 -158 -40 -210 -10 -52 -25 -133 -34 -180 -136 -726 -237 -1033 -459 -1395 -85 -139 -313 -368 -472 -475 -27 -19 -52 -37 -55 -40 -3 -3 -54 -41 -114 -85 -60 -43 -123 -89 -140 -104 -61 -51 -231 -222 -253 -254 -13 -18 -31 -42 -40 -53 -73 -80 -204 -310 -265 -464 -85 -213 -160 -468 -212 -715 -65 -312 -104 -535 -93 -525 3 3 22 91 42 195 20 105 42 219 50 255 8 36 22 101 31 145 9 44 30 127 47 185 16 58 32 119 36 135 34 132 161 446 228 560 150 255 304 427 542 602 361 268 448 343 591 508 124 144 271 432 361 709 41 127 121 459 158 656 152 807 198 1008 288 1255 14 39 32 87 40 109 36 101 123 275 198 395 143 231 304 392 610 612 50 35 95 67 100 72 134 102 164 127 245 207 265 262 435 604 570 1150 21 83 46 198 60 275 5 28 18 97 29 155 11 58 31 168 45 245 14 77 28 151 30 165 3 14 18 88 35 165 26 125 40 181 95 386 77 288 245 658 373 819 6 8 35 44 63 80 64 82 165 185 253 258 37 31 67 60 67 64 0 12 -1 11 -55 -34z"/>
 <path d="M6209 10017 c-87 -64 -298 -288 -317 -337 -3 -8 -18 -33 -33 -55 -112 -166 -236 -482 -319 -815 -31 -123 -147 -672 -167 -790 -5 -28 -23 -116 -48 -230 -36 -162 -110 -420 -175 -605 -28 -78 -133 -300 -186 -390 -69 -119 -157 -236 -245 -326 -136 -139 -161 -158 -449 -354 -80 -54 -177 -124 -216 -156 -109 -89 -254 -248 -330 -361 -166 -249 -279 -540 -379 -973 -36 -157 -52 -232 -125 -600 -21 -110 -49 -243 -61 -295 -11 -52 -23 -106 -26 -120 -15 -72 -77 -290 -113 -395 -76 -222 -163 -403 -274 -573 -46 -70 -218 -278 -235 -284 -5 -1 -30 -22 -54 -45 -51 -48 -157 -126 -361 -264 -142 -96 -338 -256 -368 -300 -9 -13 -33 -42 -54 -64 -91 -97 -213 -301 -304 -510 -98 -223 -180 -518 -261 -935 -11 -58 -27 -134 -35 -169 -13 -54 -13 -85 -1 -70 4 4 61 287 78 384 14 79 105 431 137 530 121 368 279 648 483 855 96 97 177 160 374 295 175 119 266 188 351 265 291 264 496 654 627 1190 59 241 92 394 137 630 178 944 350 1366 691 1695 78 75 278 235 293 235 13 0 292 202 361 260 133 114 249 248 336 390 19 31 40 64 46 75 29 46 134 267 166 350 73 189 184 586 216 775 9 47 88 445 117 585 77 371 164 656 265 875 119 258 241 423 429 582 30 26 53 49 50 51 -3 3 -12 0 -21 -6z"/>
 <path d="M6155 9869 c-159 -166 -285 -362 -397 -614 -119 -270 -200 -568 -304 -1125 -16 -83 -32 -166 -73 -380 -92 -472 -179 -753 -314 -1011 -106 -203 -279 -413 -457 -554 -92 -74 -75 -61 -200 -150 -185 -132 -253 -187 -361 -295 -331 -328 -522 -758 -669 -1505 -20 -104 -26 -135 -85 -450 -111 -589 -202 -895 -359 -1205 -34 -66 -121 -201 -179 -278 -50 -65 -273 -274 -367 -343 -63 -47 -169 -125 -235 -174 -115 -85 -290 -249 -367 -345 -97 -119 -207 -308 -275 -470 -91 -219 -165 -464 -217 -720 -10 -47 -24 -113 -32 -147 -17 -74 -18 -103 -4 -103 13 0 13 1 35 110 117 571 282 972 523 1271 100 124 274 271 492 414 131 87 278 198 351 267 95 89 224 248 286 353 25 42 142 283 163 335 12 30 26 66 32 80 74 182 159 512 244 945 60 308 115 564 151 700 74 281 208 614 307 763 20 30 36 56 36 58 0 17 132 173 206 244 111 106 191 169 369 288 352 237 507 392 675 676 149 252 265 571 355 976 9 41 21 95 26 119 6 25 23 111 39 191 16 80 33 166 39 191 5 24 17 82 26 129 83 437 181 769 300 1012 80 165 165 296 248 385 70 75 68 65 65 259 l-3 176 -70 -73z m65 -119 l0 -161 -32 -32 c-150 -150 -317 -448 -407 -727 -12 -36 -27 -81 -33 -100 -6 -19 -15 -48 -19 -65 -4 -16 -19 -75 -34 -130 -29 -110 -64 -272 -126 -585 -147 -748 -251 -1086 -431 -1402 -89 -157 -189 -290 -297 -398 -108 -108 -189 -172 -371 -295 -342 -231 -452 -333 -605 -560 -143 -211 -269 -522 -356 -880 -53 -219 -73 -311 -155 -730 -73 -378 -166 -712 -254 -920 -94 -221 -203 -416 -286 -515 -74 -87 -123 -140 -163 -178 -60 -56 -282 -223 -396 -297 -49 -32 -92 -61 -95 -64 -3 -3 -32 -26 -65 -51 -103 -76 -235 -201 -303 -285 -103 -128 -245 -383 -312 -559 -19 -49 -36 -84 -37 -79 -4 12 96 264 139 348 98 193 200 336 338 475 124 125 152 149 251 221 283 204 329 240 447 354 112 107 231 258 290 365 176 319 276 632 386 1210 19 102 49 259 67 350 53 283 67 350 108 510 57 223 104 366 176 535 26 62 114 237 135 270 11 17 23 37 27 45 4 8 38 58 77 110 97 133 256 286 430 415 82 61 193 143 247 184 439 326 666 758 823 1566 36 183 46 235 65 340 12 61 28 148 37 195 8 47 22 114 29 150 8 36 22 101 31 145 9 44 25 112 36 150 10 39 26 97 35 130 92 345 241 670 406 888 55 72 184 217 193 217 2 0 4 -72 4 -160z m-4790 -9075 c-16 -47 -23 -40 -8 8 6 20 13 35 16 33 2 -3 -1 -21 -8 -41z m-31 -94 c-7 -23 -14 -39 -16 -37 -3 2 1 23 8 45 7 23 14 39 16 37 3 -2 -1 -23 -8 -45z"/>
 <path d="M6194 9456 c-86 -115 -167 -246 -228 -370 -38 -76 -72 -150 -76 -165 -5 -14 -18 -51 -30 -81 -84 -211 -178 -576 -244 -945 -167 -926 -258 -1230 -473 -1577 -134 -217 -254 -337 -553 -558 -251 -185 -286 -213 -391 -318 -153 -156 -254 -300 -363 -523 -41 -85 -82 -174 -91 -199 -101 -289 -175 -575 -239 -925 -130 -704 -166 -861 -264 -1155 -52 -157 -170 -403 -248 -521 -144 -215 -267 -334 -574 -553 -174 -125 -317 -243 -386 -320 -224 -247 -379 -543 -500 -956 -14 -46 -23 -92 -21 -102 3 -10 2 -16 -2 -13 -5 2 -14 -21 -21 -53 -6 -31 -16 -70 -21 -86 -11 -37 -12 -36 6 -36 8 0 15 2 15 5 0 3 11 49 25 102 14 54 24 106 21 116 -2 9 -1 15 3 12 5 -2 13 15 20 38 61 213 192 512 296 672 138 214 285 351 611 575 240 165 413 315 506 439 23 31 54 72 69 92 119 156 271 495 345 769 48 176 85 331 108 445 14 72 33 164 41 205 8 41 26 131 40 200 56 282 96 456 142 615 45 158 93 304 109 335 7 14 29 63 50 110 47 105 146 274 210 359 62 82 200 222 289 292 39 31 133 98 211 151 134 91 253 175 264 187 3 3 25 22 50 42 113 92 307 317 369 431 199 362 292 637 407 1198 9 41 22 102 29 135 8 33 18 87 24 120 27 161 121 581 151 680 5 17 24 77 41 135 68 223 154 413 271 596 l38 61 -2 190 -3 190 -31 -41z m-2 -371 c-56 -78 -147 -254 -204 -395 -59 -142 -139 -412 -183 -610 -9 -41 -21 -94 -26 -118 -5 -24 -36 -178 -69 -342 -124 -621 -191 -862 -319 -1157 -52 -121 -136 -274 -181 -333 -15 -19 -31 -42 -36 -51 -53 -97 -354 -384 -476 -454 -10 -5 -71 -47 -137 -91 -385 -264 -550 -461 -730 -872 -44 -100 -61 -148 -109 -307 -37 -122 -113 -433 -132 -540 -5 -27 -22 -115 -39 -195 -16 -80 -39 -192 -50 -250 -47 -236 -101 -461 -154 -635 -23 -74 -34 -105 -74 -210 -8 -22 -19 -49 -23 -60 -47 -124 -166 -332 -266 -465 -133 -176 -232 -264 -529 -470 -223 -154 -298 -213 -399 -314 -90 -91 -190 -221 -248 -324 -17 -29 -33 -51 -35 -48 -7 6 83 155 144 237 106 145 252 287 421 409 311 224 344 250 472 380 161 163 307 399 414 672 56 143 141 450 181 658 9 47 25 126 35 175 10 50 26 131 35 180 9 50 22 122 30 160 7 39 21 111 30 160 51 279 146 638 215 815 12 30 24 64 27 74 11 35 135 280 164 324 16 24 29 45 29 47 0 2 35 51 77 107 134 179 303 332 588 532 412 290 636 625 798 1191 19 66 42 154 51 195 10 41 21 93 26 115 17 76 66 328 105 540 48 263 72 375 112 540 49 196 105 381 151 495 6 14 20 50 32 80 27 68 131 276 166 333 15 23 52 76 83 118 l56 77 3 -166 3 -166 -29 -41z m-4471 -8352 c-11 -21 -20 -35 -21 -31 0 12 33 78 38 74 2 -2 -6 -21 -17 -43z"/>
 <path d="M6222 8980 c-2 -8 -3 -104 -2 -213 l1 -198 -45 -97 c-107 -234 -187 -507 -267 -912 -96 -482 -125 -627 -139 -680 -5 -19 -17 -66 -26 -105 -18 -77 -72 -261 -109 -370 -137 -410 -334 -720 -597 -941 -74 -62 -195 -151 -257 -189 -222 -137 -465 -352 -576 -510 -27 -38 -52 -72 -55 -75 -8 -8 -30 -47 -83 -149 -120 -231 -225 -544 -302 -901 -28 -129 -44 -204 -48 -230 -2 -14 -18 -95 -36 -180 -17 -85 -38 -191 -47 -235 -23 -115 -44 -210 -66 -290 -10 -38 -26 -97 -34 -130 -24 -90 -85 -286 -100 -320 -7 -16 -29 -70 -49 -120 -98 -240 -224 -433 -395 -606 -140 -142 -173 -168 -420 -334 -96 -65 -177 -121 -180 -124 -3 -3 -37 -32 -77 -64 -155 -125 -316 -327 -413 -519 -19 -37 -36 -65 -38 -63 -6 6 99 203 153 285 60 94 124 173 225 279 14 15 59 55 100 90 104 88 111 93 150 120 162 112 337 249 429 336 58 55 211 228 211 238 0 2 21 35 46 73 54 81 173 320 205 414 12 36 31 90 41 120 64 184 117 404 188 785 60 320 70 370 97 500 44 216 54 259 75 335 11 41 26 98 33 125 8 28 29 95 48 150 146 425 332 724 597 960 52 46 93 77 351 266 210 155 332 276 461 460 50 71 182 316 199 368 4 15 17 51 29 81 80 208 153 506 244 1000 70 377 84 447 136 660 39 161 90 329 140 460 12 30 25 66 29 80 14 42 106 232 135 278 15 24 25 49 23 55 -5 16 -71 -104 -133 -243 -48 -108 -133 -347 -166 -470 -66 -240 -104 -413 -163 -740 -97 -539 -156 -784 -270 -1110 -34 -98 -158 -330 -227 -426 -146 -203 -251 -302 -543 -514 -93 -68 -199 -148 -235 -179 -287 -246 -483 -562 -636 -1028 -52 -156 -121 -447 -169 -708 -9 -49 -23 -121 -30 -160 -8 -38 -21 -113 -30 -165 -83 -477 -201 -888 -329 -1145 -163 -329 -317 -497 -726 -795 -123 -90 -156 -115 -216 -166 -270 -226 -465 -539 -610 -982 -39 -119 -38 -112 -21 -112 16 0 71 165 61 182 -4 6 -3 8 3 5 14 -9 37 48 29 70 -4 10 -4 14 0 11 3 -4 43 66 88 155 178 352 328 515 707 769 318 213 462 347 612 570 65 98 197 348 216 412 6 17 22 63 36 101 15 39 30 84 35 100 5 17 18 62 30 100 32 110 96 362 115 455 27 134 43 215 71 355 75 376 102 495 155 677 65 227 109 346 195 523 99 204 168 301 323 455 121 121 173 161 457 355 423 289 640 591 830 1155 31 92 107 376 124 460 5 25 19 88 30 140 11 52 32 154 46 225 72 366 88 441 120 575 63 257 115 416 195 596 l49 110 -3 220 c-1 120 -4 212 -5 204z"/>
 <path d="M6212 8375 c-6 -17 -20 -55 -32 -85 -102 -261 -187 -599 -275 -1090 -9 -52 -23 -126 -30 -165 -8 -38 -26 -131 -40 -205 -52 -273 -128 -553 -200 -735 -9 -22 -19 -49 -22 -60 -12 -36 -115 -239 -144 -283 -16 -24 -29 -45 -29 -47 0 -2 -33 -48 -74 -102 -84 -112 -141 -173 -241 -258 -38 -33 -75 -64 -81 -70 -7 -5 -25 -19 -40 -30 -165 -116 -398 -300 -474 -376 -241 -238 -395 -504 -536 -926 -68 -207 -139 -524 -230 -1028 -73 -404 -159 -754 -232 -935 -6 -14 -20 -50 -32 -80 -53 -134 -140 -294 -223 -410 -138 -194 -291 -334 -647 -588 -68 -49 -162 -127 -248 -207 -81 -74 -206 -238 -285 -373 -38 -65 -46 -89 -25 -76 7 4 8 3 4 -5 -4 -6 -11 -9 -16 -6 -12 8 -33 -33 -26 -51 3 -9 1 -12 -4 -9 -6 4 -19 -14 -30 -39 -11 -25 -29 -66 -40 -91 -19 -44 -19 -45 0 -45 21 0 47 61 34 81 -4 8 -3 9 4 5 14 -8 35 30 28 50 -3 8 -2 12 3 9 6 -3 22 18 36 47 36 71 162 262 210 318 116 135 270 263 486 405 57 38 116 78 130 89 15 12 39 30 55 41 319 226 542 563 709 1071 68 207 116 413 241 1039 81 409 167 712 264 930 89 202 152 309 275 465 11 14 60 66 110 116 106 107 167 153 405 311 407 269 591 490 790 948 71 162 162 463 215 707 35 160 86 406 95 453 44 242 119 572 160 705 11 36 19 74 19 85 -3 58 -106 -348 -165 -650 -9 -44 -22 -109 -29 -145 -7 -36 -21 -103 -30 -150 -17 -82 -39 -188 -72 -335 -20 -91 -68 -270 -98 -365 -78 -248 -145 -403 -262 -610 -97 -171 -270 -368 -428 -488 -35 -27 -138 -98 -245 -171 -315 -213 -446 -338 -592 -561 -152 -234 -294 -617 -382 -1035 -9 -44 -23 -109 -31 -145 -7 -36 -21 -103 -30 -150 -9 -47 -25 -128 -36 -180 -11 -52 -27 -131 -36 -175 -146 -720 -345 -1174 -647 -1476 -111 -111 -185 -170 -381 -304 -209 -142 -304 -216 -395 -306 -100 -99 -135 -142 -213 -257 -95 -141 -92 -128 6 28 138 219 246 320 711 663 16 12 43 33 60 47 17 14 42 34 56 45 70 56 234 234 295 321 168 236 286 517 379 898 47 192 82 362 131 636 79 434 135 683 207 910 181 569 406 881 878 1217 63 45 153 113 200 150 349 279 569 671 708 1263 41 175 63 283 116 570 117 631 181 888 291 1170 20 51 34 97 32 103 -2 6 -8 -2 -15 -18z"/>
 <path d="M6206 7692 c-21 -34 -119 -487 -186 -857 -121 -673 -225 -1014 -399 -1320 -125 -220 -264 -371 -506 -550 -183 -136 -213 -159 -304 -230 -224 -175 -413 -426 -549 -728 -139 -306 -227 -629 -332 -1212 -152 -846 -276 -1230 -502 -1562 -130 -190 -273 -325 -562 -533 -73 -52 -157 -115 -187 -139 -82 -67 -260 -249 -309 -316 -54 -73 -150 -225 -150 -237 0 -4 13 -8 28 -8 23 0 34 9 62 56 45 75 138 191 208 262 86 86 188 165 382 297 244 165 280 193 410 324 178 179 300 370 418 651 102 246 165 477 272 1005 76 378 136 650 161 740 11 39 26 93 34 120 87 317 261 652 438 842 134 144 226 217 487 391 291 194 463 367 618 624 171 284 291 630 403 1163 96 458 89 389 89 830 0 360 -4 420 -24 387z m-51 -966 c-58 -292 -61 -306 -120 -548 -32 -134 -112 -385 -164 -516 -12 -30 -46 -102 -75 -162 -172 -348 -339 -535 -691 -775 -287 -196 -329 -229 -452 -353 -197 -197 -351 -467 -463 -812 -72 -222 -126 -448 -215 -900 -123 -631 -201 -899 -351 -1206 -130 -267 -301 -483 -504 -637 -91 -69 -330 -231 -330 -223 0 2 53 41 118 87 64 46 119 86 122 89 3 3 25 21 50 40 81 63 94 74 170 150 217 215 380 497 497 860 70 218 117 423 202 880 58 308 114 585 140 689 33 130 104 359 126 408 8 17 15 36 15 41 0 17 104 242 153 330 74 134 174 270 274 373 97 100 180 168 452 370 238 177 344 283 500 507 42 61 158 296 194 392 107 289 158 500 277 1145 27 149 66 345 87 437 l38 168 3 -277 2 -276 -55 -281z"/>
 <path d="M41 7085 c-13 -14 -21 -28 -18 -32 7 -6 57 37 57 50 0 14 -15 7 -39 -18z"/>
 <path d="M6218 6690 c-6 -14 -12 -48 -53 -280 -43 -246 -131 -626 -161 -698 -8 -19 -14 -41 -14 -48 0 -19 -86 -237 -124 -314 -77 -153 -120 -228 -190 -325 -54 -74 -211 -238 -286 -297 -86 -68 -222 -169 -240 -178 -10 -5 -24 -16 -32 -22 -7 -7 -40 -33 -73 -58 -136 -101 -281 -243 -372 -364 -226 -301 -365 -634 -482 -1156 -21 -94 -68 -340 -136 -705 -98 -529 -187 -822 -341 -1121 -134 -260 -276 -428 -519 -617 -5 -4 -102 -77 -215 -162 -215 -161 -414 -345 -374 -345 11 0 33 14 50 31 71 76 197 173 434 334 233 159 353 262 461 395 89 109 91 113 186 265 35 55 106 205 146 305 49 121 133 388 157 500 5 19 18 78 29 130 33 147 47 214 107 510 145 720 255 1042 462 1353 62 92 201 261 221 269 5 2 29 21 53 43 54 51 201 162 266 200 58 35 239 161 292 203 85 67 266 257 326 342 176 249 327 601 419 980 13 55 15 127 13 455 -2 215 -6 383 -10 375z m-19 -833 c-71 -280 -136 -458 -248 -687 -96 -194 -193 -332 -336 -476 -114 -116 -185 -172 -395 -312 -265 -178 -418 -311 -528 -457 -257 -344 -372 -665 -542 -1515 -68 -339 -87 -431 -100 -480 -5 -19 -17 -66 -26 -105 -147 -609 -374 -1008 -736 -1301 -54 -43 -277 -199 -357 -249 -8 -5 -43 -30 -76 -54 -33 -25 -52 -35 -41 -23 18 21 86 73 320 247 156 115 163 121 291 250 126 126 213 250 308 437 59 116 127 276 159 378 8 25 20 62 27 82 43 132 118 466 166 738 9 52 25 138 35 190 10 52 26 136 35 185 32 172 106 488 135 580 49 151 68 204 105 295 58 143 111 249 168 337 15 24 27 45 27 48 0 3 17 29 37 57 129 182 252 304 483 476 85 64 189 141 230 171 90 68 262 232 311 298 158 213 269 432 360 715 44 137 117 448 154 658 10 52 23 125 31 162 8 37 15 80 16 95 2 15 4 -126 5 -315 3 -320 2 -348 -18 -425z"/>
 <path d="M6202 5563 c-101 -413 -281 -752 -531 -1004 -81 -81 -273 -235 -409 -327 -33 -23 -66 -47 -73 -54 -8 -7 -37 -31 -64 -53 -78 -62 -212 -194 -268 -265 -28 -36 -54 -67 -58 -70 -11 -8 -124 -191 -161 -260 -142 -269 -264 -664 -352 -1140 -126 -683 -143 -765 -215 -1030 -85 -315 -242 -646 -394 -835 -108 -133 -329 -329 -507 -448 -84 -56 -108 -77 -89 -77 8 0 24 8 35 18 10 9 65 50 122 91 57 41 109 79 115 85 7 6 41 34 77 63 126 100 262 254 362 408 48 74 156 289 184 365 42 118 93 271 109 330 56 205 55 203 99 415 8 39 22 111 31 160 9 50 25 133 35 185 10 52 26 138 35 190 9 52 22 124 30 160 7 36 21 103 30 150 10 47 26 117 36 155 11 39 27 97 35 130 93 347 237 660 415 900 95 127 238 261 444 415 322 239 409 315 514 445 62 77 131 172 131 180 0 3 18 34 39 68 37 58 82 148 131 262 55 127 147 439 138 467 -2 6 -14 -30 -26 -79z"/>
 <path d="M92 5087 c-54 -54 -92 -101 -92 -112 0 -15 14 -6 58 40 31 33 71 71 87 83 17 13 30 30 30 37 0 7 6 20 14 29 7 9 9 16 5 16 -5 0 -51 -42 -102 -93z"/>
 <path d="M6201 5067 c-35 -91 -89 -202 -138 -285 -24 -40 -43 -75 -43 -77 0 -11 -110 -157 -170 -225 -83 -95 -81 -93 -170 -169 -114 -96 -120 -101 -126 -101 -3 0 -23 -13 -43 -28 -20 -16 -94 -69 -166 -117 -288 -195 -414 -313 -549 -515 -229 -342 -332 -656 -506 -1545 -115 -587 -209 -896 -367 -1203 -156 -304 -335 -494 -683 -726 -63 -42 -108 -76 -101 -76 7 0 47 23 89 51 314 211 476 365 621 589 46 71 170 318 196 390 66 180 118 347 149 475 60 247 64 266 101 452 110 564 158 768 236 1003 51 153 67 197 78 218 5 9 27 53 48 97 47 99 120 225 181 313 65 93 272 299 362 360 463 313 532 368 671 532 134 157 296 432 348 593 21 63 7 59 -18 -6z"/>
 <path d="M6210 4879 c0 -27 -122 -256 -194 -364 -109 -164 -257 -310 -491 -485 -342 -256 -393 -301 -544 -485 -231 -283 -419 -779 -536 -1420 -9 -49 -23 -121 -30 -160 -7 -38 -23 -124 -35 -190 -21 -116 -53 -278 -86 -435 -80 -383 -219 -744 -381 -992 -26 -40 -50 -75 -53 -78 -3 -3 -21 -25 -40 -50 -19 -25 -72 -84 -119 -132 -46 -49 -80 -88 -75 -88 12 0 145 136 206 210 108 132 262 415 328 605 68 195 140 467 185 705 9 47 25 128 35 180 10 52 26 136 34 185 145 819 291 1252 535 1591 135 187 261 306 537 507 182 133 228 170 354 297 91 91 188 215 253 325 18 31 110 218 120 245 3 8 6 -63 6 -158 l1 -174 -36 -65 c-60 -110 -142 -212 -273 -343 -120 -120 -200 -183 -421 -330 -275 -183 -436 -335 -554 -520 -27 -41 -56 -86 -65 -100 -20 -29 -109 -213 -135 -280 -10 -25 -23 -56 -28 -70 -62 -158 -136 -428 -197 -720 -12 -58 -28 -134 -36 -170 -7 -36 -21 -103 -30 -150 -30 -156 -74 -353 -121 -544 -91 -362 -223 -675 -381 -905 -77 -111 -100 -138 -207 -243 -44 -43 -74 -78 -68 -78 17 0 161 145 219 220 122 158 232 357 307 555 21 55 45 116 52 135 40 100 131 452 174 670 12 58 25 123 30 145 4 22 15 76 24 120 129 660 246 1030 412 1309 56 95 117 181 173 246 55 64 67 76 146 148 65 60 267 212 281 212 3 0 23 14 44 30 21 17 41 30 44 30 7 0 129 86 206 146 55 42 140 123 217 206 49 53 173 216 181 238 3 8 16 32 29 52 22 36 23 46 23 233 0 123 -4 195 -10 195 -5 0 -10 -5 -10 -11z"/>
 <path d="M215 4780 c-3 -5 -3 -16 1 -22 4 -7 3 -10 -1 -5 -5 4 -21 -5 -37 -20 -31 -29 -39 -54 -10 -32 15 13 16 12 3 -3 -7 -10 -17 -16 -21 -13 -15 9 -150 -174 -150 -203 0 -7 5 -12 10 -12 6 0 10 5 10 11 0 14 110 157 154 198 35 34 49 59 24 45 -8 -4 -9 -3 -5 2 5 5 16 9 25 9 11 0 17 9 19 28 2 27 -10 36 -22 17z"/>
 <path d="M6163 4205 c-138 -199 -288 -340 -591 -553 -98 -69 -183 -142 -288 -246 -177 -176 -288 -340 -400 -591 -143 -318 -210 -572 -340 -1290 -87 -482 -170 -821 -249 -1019 -14 -35 -25 -65 -25 -69 0 -16 -123 -260 -170 -337 -29 -47 -54 -88 -57 -92 -2 -5 0 -8 5 -8 16 0 144 227 199 354 137 310 197 548 348 1371 42 226 88 446 110 521 8 28 15 58 15 66 0 21 83 270 127 382 30 78 106 237 154 326 24 44 141 213 173 250 78 89 167 177 236 234 79 66 266 208 313 239 31 20 34 22 147 118 127 108 232 224 314 349 l36 55 0 -154 0 -153 -37 -46 c-73 -91 -261 -263 -345 -317 -86 -54 -384 -260 -398 -275 -3 -3 -21 -18 -40 -33 -70 -56 -194 -184 -256 -263 -35 -45 -64 -84 -64 -87 0 -3 -13 -26 -29 -49 -128 -189 -290 -633 -361 -988 -5 -25 -19 -88 -30 -140 -12 -52 -41 -194 -65 -315 -99 -490 -159 -719 -255 -960 -71 -180 -130 -299 -218 -436 -18 -28 -27 -49 -20 -47 28 10 167 263 231 423 80 199 158 462 212 715 9 41 20 93 25 115 5 22 29 141 54 265 56 278 74 365 86 410 5 19 16 67 26 105 33 141 105 371 156 500 72 182 188 389 281 503 56 68 190 200 262 259 44 35 157 115 250 177 257 172 384 277 491 407 l54 67 -2 173 -3 174 -62 -90z"/>
 <path d="M6188 3759 c-39 -49 -169 -169 -248 -229 -25 -19 -47 -37 -50 -40 -3 -3 -59 -46 -125 -95 -271 -199 -410 -338 -552 -550 -106 -159 -216 -389 -278 -585 -10 -30 -22 -66 -26 -78 -44 -114 -136 -532 -204 -922 -37 -215 -98 -514 -131 -650 -51 -208 -145 -493 -189 -572 -17 -30 -18 -38 -6 -38 10 0 78 172 131 331 70 210 134 500 225 1019 123 700 260 1128 463 1445 112 175 251 333 397 450 33 27 62 51 65 55 3 3 37 28 75 55 170 120 288 217 403 332 l82 83 0 -139 0 -140 -42 -40 c-76 -70 -140 -116 -478 -341 -52 -35 -97 -66 -100 -69 -3 -3 -30 -26 -60 -51 -239 -193 -414 -456 -547 -820 -19 -52 -39 -108 -43 -125 -5 -16 -18 -61 -30 -100 -27 -92 -93 -358 -115 -465 -9 -47 -25 -123 -35 -170 -10 -47 -25 -123 -35 -170 -97 -484 -181 -780 -291 -1032 -41 -95 -50 -126 -27 -96 5 7 20 38 32 68 12 30 26 64 31 75 7 18 19 50 65 175 27 72 75 240 109 380 45 188 71 306 152 705 124 614 269 1004 478 1285 139 186 257 289 568 494 97 64 182 122 190 129 7 7 40 33 73 59 33 25 72 59 88 75 l28 30 -3 160 -3 160 -37 -48z"/>
 <path d="M6185 3324 c-60 -54 -161 -133 -245 -194 -41 -29 -77 -56 -80 -59 -3 -3 -39 -33 -80 -66 -72 -57 -265 -244 -305 -295 -188 -240 -342 -550 -430 -870 -73 -265 -116 -467 -180 -840 -36 -215 -71 -401 -97 -515 -53 -242 -92 -392 -119 -462 -5 -13 -5 -23 -1 -23 19 0 99 303 156 585 15 76 25 128 60 330 9 50 30 164 47 255 16 91 34 188 39 215 5 28 19 93 30 145 12 52 25 111 30 130 16 75 92 320 128 415 83 215 204 441 315 585 92 119 276 290 487 452 113 86 214 164 225 175 58 53 55 58 55 -90 l0 -135 -77 -53 c-43 -30 -130 -87 -193 -127 -343 -219 -516 -401 -675 -713 -104 -203 -177 -408 -249 -694 -43 -173 -56 -232 -90 -395 -25 -122 -56 -270 -72 -345 -40 -183 -47 -215 -64 -285 -27 -113 -79 -296 -106 -373 -27 -77 -27 -77 -15 -77 5 0 11 10 14 22 3 13 24 83 46 155 46 151 98 361 136 543 44 212 83 401 105 500 12 52 25 113 29 135 15 71 80 307 111 405 76 231 204 498 309 640 40 54 164 200 170 200 3 1 35 27 70 60 54 50 232 175 396 279 22 14 68 45 102 70 l62 46 1 153 c0 83 -1 152 -2 152 -2 0 -21 -16 -43 -36z"/>
 <path d="M6135 2858 c-49 -38 -97 -75 -105 -81 -8 -7 -47 -37 -85 -67 -165 -129 -298 -268 -409 -427 -20 -29 -36 -55 -36 -57 0 -2 -21 -40 -46 -83 -89 -149 -162 -323 -232 -548 -74 -237 -116 -431 -228 -1060 -46 -259 -70 -382 -91 -463 -9 -34 -13 -65 -10 -68 9 -9 36 102 72 301 9 50 23 124 31 165 28 150 53 287 69 380 94 535 188 862 330 1153 25 51 56 110 70 132 14 22 28 47 31 55 8 17 106 159 137 198 64 81 281 282 412 383 83 63 156 119 163 123 9 5 12 -13 12 -82 l0 -89 -106 -83 c-136 -108 -444 -408 -372 -364 7 4 8 3 4 -4 -4 -6 -13 -9 -20 -6 -8 3 -32 -17 -58 -48 -51 -60 -138 -176 -138 -183 0 -2 -13 -23 -29 -47 -55 -82 -145 -274 -210 -448 -50 -134 -124 -405 -168 -614 -13 -67 -40 -193 -58 -281 -57 -270 -76 -355 -111 -495 -19 -74 -34 -139 -34 -145 2 -61 88 289 169 690 60 294 89 423 132 575 31 108 119 373 129 385 4 6 11 21 15 35 4 14 30 69 57 124 108 215 273 444 311 431 6 -3 27 18 46 46 47 69 172 164 411 312 l30 19 0 -85 0 -86 -41 -28 c-106 -72 -254 -188 -295 -231 -102 -105 -202 -230 -227 -282 -4 -8 -17 -31 -28 -50 -98 -160 -209 -432 -271 -660 -40 -147 -75 -287 -103 -417 -8 -40 -21 -103 -29 -140 -8 -38 -22 -99 -30 -138 -8 -38 -25 -117 -37 -175 -22 -109 -55 -228 -43 -160 3 19 12 69 20 110 7 41 29 165 48 275 82 473 104 577 190 896 23 87 86 260 140 386 50 118 161 320 198 360 11 12 18 27 16 34 -7 20 -114 -152 -183 -294 -155 -320 -253 -672 -350 -1247 -15 -88 -31 -178 -71 -400 -9 -47 -22 -113 -30 -147 -8 -34 -14 -71 -14 -83 0 -27 26 -26 33 3 55 241 84 373 113 517 26 130 33 161 64 295 71 305 110 437 195 660 30 81 121 263 173 350 103 171 287 361 461 479 56 37 104 73 107 80 2 6 3 117 2 247 l-3 236 -90 -69z m85 -187 c0 -30 -8 -36 -205 -163 -100 -64 -106 -66 -50 -14 54 50 243 206 251 206 2 0 4 -13 4 -29z"/>
 <path d="M6159 2253 c-130 -116 -252 -259 -344 -403 -46 -72 -155 -281 -190 -365 -99 -238 -195 -618 -270 -1062 -27 -167 -46 -277 -55 -323 -5 -24 -6 -48 -4 -52 10 -16 34 -7 38 15 6 30 32 147 50 232 9 39 27 122 41 185 61 282 136 549 203 725 26 68 64 158 72 170 4 6 27 48 51 95 102 200 257 390 412 505 l67 50 0 143 c0 78 -1 142 -3 142 -2 0 -32 -26 -68 -57z m34 -233 c-16 -14 -49 -41 -73 -60 -58 -45 -160 -150 -214 -220 -185 -237 -329 -569 -430 -985 -20 -82 -41 -166 -46 -185 -12 -48 -54 -238 -84 -389 -24 -116 -36 -156 -36 -118 0 9 12 82 26 164 14 81 29 173 34 203 29 187 87 467 131 627 12 43 25 92 29 108 54 209 195 524 316 706 27 41 51 76 54 79 3 3 21 25 40 50 31 41 67 82 125 145 11 12 49 48 85 81 l65 59 3 -120 3 -120 -28 -25z"/>
 <path d="M6173 1838 c-228 -235 -408 -600 -533 -1081 -50 -193 -147 -703 -136 -714 19 -20 36 23 75 193 67 288 118 462 206 703 71 194 226 448 360 588 l84 88 1 138 c0 75 -1 137 -3 137 -1 0 -26 -24 -54 -52z m-21 -282 c-107 -110 -191 -228 -273 -383 -41 -78 -104 -216 -119 -263 -5 -14 -18 -50 -29 -80 -48 -127 -125 -405 -180 -655 -29 -132 -31 -136 -25 -70 10 115 68 413 129 655 34 133 118 386 163 490 97 222 200 390 331 539 l66 75 3 -119 3 -119 -69 -70z"/>
 <path d="M6207 1414 c-119 -158 -296 -525 -347 -719 -4 -16 -20 -70 -34 -120 -15 -49 -31 -108 -36 -130 -4 -22 -18 -83 -29 -135 -12 -52 -25 -120 -30 -150 -5 -30 -12 -67 -16 -82 -6 -24 -4 -28 14 -28 14 0 23 8 27 28 43 182 125 443 181 577 66 160 166 340 256 463 l38 50 -3 135 c-3 132 -3 134 -21 111z m-17 -278 c-99 -134 -224 -359 -275 -496 -33 -90 -124 -367 -140 -430 -52 -197 -57 -172 -11 51 37 177 47 216 96 384 77 263 188 505 333 722 l22 33 3 -112 c3 -111 2 -112 -28 -152z"/>
 <path d="M6221 885 c-2 -5 -2 -60 -1 -120 l2 -110 -54 -105 c-88 -173 -157 -338 -188 -452 -16 -59 -41 -67 -30 -10 38 192 143 505 232 690 33 67 32 100 0 35 -59 -115 -173 -419 -193 -513 -4 -19 -19 -80 -33 -135 -32 -122 -32 -125 -3 -125 20 0 27 13 61 112 47 140 95 253 163 386 l54 103 -4 127 c-1 70 -4 123 -6 117z"/>
 <path d="M6215 228 c-18 -52 -55 -172 -55 -179 0 -5 16 -9 35 -9 l35 0 0 100 c0 93 -4 118 -15 88z m5 -113 c0 -58 -2 -65 -20 -65 -11 0 -20 5 -20 12 0 14 32 118 37 118 2 0 3 -29 3 -65z"/>
 </g>
<g id="layer102" fill="#ffffff" stroke="none">
 </g>

</svg>