<svg width="31" height="31" viewBox="0 0 31 31" fill="none" xmlns="http://www.w3.org/2000/svg">
<path id="path2382" d="M14.5359 30.2338C14.4354 30.2255 14.0324 30.1993 13.6404 30.1754C12.8211 30.1256 11.6352 29.995 11.2526 29.9124C10.8299 29.8213 8.70494 29.1399 7.48209 28.7035C7.30117 28.6389 6.98869 28.5298 6.78767 28.4611C6.42476 28.3371 4.54421 27.6747 3.809 27.412C0.883778 26.3668 0.48199 26.2193 0.44319 26.1758C0.41802 26.1476 0.420065 26.0439 0.44953 25.8543C0.531043 25.3298 0.427161 24.227 0.164241 22.8257C0.0924022 22.4428 0.0260596 22.0696 0.0168129 21.9964L0 21.8634H0.164837C0.978354 21.8634 4.00473 22.7719 8.03031 24.2246C8.94152 24.5535 9.4967 24.708 10.7166 24.9725C12.9434 25.4552 14.3028 25.6093 16.3267 25.6084C18.1434 25.6076 18.7585 25.5295 20.2072 25.1155C21.121 24.8544 21.4165 24.7526 21.9681 24.5088C22.4493 24.2962 22.4432 24.3587 21.9567 24.6256C21.255 25.0106 20.1321 25.3624 19.0678 25.5307C18.8266 25.5688 18.6055 25.6143 18.5764 25.6318C18.4141 25.7293 19.5698 25.7268 20.2739 25.6281C21.7646 25.4191 22.8697 24.8115 23.5087 23.8495C23.7602 23.4707 24.0208 22.8274 24.0193 22.5887C24.0185 22.4636 24.0127 22.4691 23.8998 22.7029C23.8346 22.838 23.73 23.0315 23.6674 23.1328C23.5492 23.3244 22.9127 24.0338 22.859 24.0338C22.8422 24.0338 22.664 23.8541 22.4631 23.6345C21.3264 22.3923 19.3041 21.2643 16.7288 20.4361C15.3506 19.9929 14.12 19.7048 12.1602 19.3665C6.87164 18.4536 3.10488 16.6074 1.66704 14.2235C1.54559 14.0222 1.36813 13.73 1.27268 13.5741C1.06541 13.2357 0.889057 12.8491 0.776208 12.4856C0.661498 12.1162 0.632316 11.3849 0.71737 11.0114C0.908597 10.1715 1.44751 9.40879 2.35371 8.6955L2.63445 8.47452L2.45937 8.08922C2.16522 7.44188 2.01926 6.625 2.09327 6.04032C2.27798 4.58105 3.33635 3.08465 4.91496 2.05079C6.43478 1.05544 8.50366 0.411878 11.0638 0.138084C12.9271 -0.0611848 16.0054 -0.0433178 18.6658 0.182205C22.0908 0.472545 24.7482 1.10384 26.2313 1.97947C26.4323 2.09816 26.7306 2.2625 26.8942 2.34468C27.92 2.85994 29.0685 3.78269 29.6883 4.58966C30.0124 5.01147 30.3461 5.60047 30.5311 6.07681L30.6901 6.48631L30.6872 7.14153C30.6848 7.67404 30.6698 7.8556 30.6071 8.11106C30.4979 8.55632 30.3296 8.99074 30.1057 9.4049L29.9124 9.76238L30.2109 10.09C30.5432 10.4548 30.7423 10.7685 30.8819 11.1471C31.006 11.4839 31.0381 12.1327 30.9503 12.5271C30.5745 14.2136 28.4072 16.2297 25.8078 17.3108C24.8932 17.6911 23.9897 17.9771 22.8737 18.2395C22.5547 18.3144 22.2779 18.3935 22.2586 18.4152C22.236 18.4405 22.3918 18.5794 22.6923 18.8021C23.2394 19.2075 23.4043 19.3812 23.6703 19.8327C24.2253 20.7744 24.3921 21.7663 24.1562 22.7233C24.0189 23.2808 23.9871 23.615 23.9463 24.9314C23.9088 26.1417 23.8729 26.5261 23.7643 26.8797C23.6119 27.376 23.409 27.6929 22.7957 28.3927C21.953 29.3544 20.4556 29.9087 17.9714 30.1788C17.5818 30.2211 14.905 30.264 14.5359 30.2338ZM21.5714 18.0062C21.2938 17.7421 19.7169 17.0077 17.9714 16.3296C17.5694 16.1734 17.2066 16.0298 17.1652 16.0105C16.9346 15.9027 15.6458 15.4818 14.9621 15.2909C13.4992 14.8825 11.6876 14.449 10.7714 14.2882C8.05885 13.812 5.03078 12.5989 2.4824 10.9675C2.12465 10.7385 1.82319 10.561 1.81248 10.573C1.73427 10.6606 2.36749 11.2959 3.00494 11.7693C5.12351 13.3428 8.34675 14.4913 12.8912 15.292C13.8988 15.4695 15.5226 15.8587 17.0175 16.281C17.9688 16.5497 18.8775 16.9047 21.0963 17.8745C21.3676 17.9931 21.6061 18.0908 21.6262 18.0917C21.6463 18.0925 21.6216 18.054 21.5714 18.0062ZM21.8316 16.4601C22.1983 16.4058 22.4895 16.3347 22.7596 16.2334C25.134 15.3433 26.9554 13.971 27.9301 12.3377C28.181 11.9173 28.2493 11.7641 28.2069 11.7166C28.1943 11.7025 27.9666 11.9321 27.701 12.2268C27.1221 12.8691 26.9982 12.9933 26.5238 13.4072C25.1699 14.5882 23.6815 15.4113 22.0831 15.8631C21.2875 16.088 20.2714 16.2531 19.6828 16.2531C19.2169 16.2531 19.4846 16.3618 20.1826 16.456C20.9262 16.5563 21.178 16.557 21.8316 16.4601ZM18.6841 13.7541C21.2492 13.6258 23.1427 13.256 25.2993 12.4624C26.4756 12.0295 27.0985 11.7523 27.7462 11.3738C29.1147 10.5741 29.9723 9.60363 30.2197 8.57481C30.3173 8.169 30.2632 8.10347 30.1252 8.46036C29.6102 9.7924 28.144 10.9167 25.759 11.8084C24.24 12.3763 21.8974 12.8135 19.2506 13.0232C17.8627 13.1332 15.3299 13.0636 13.8317 12.8744C9.16716 12.2854 5.09924 10.6834 3.31332 8.73213C2.94787 8.33284 2.74833 8.03152 2.56359 7.59993C2.28814 6.95646 2.24415 6.28733 2.43046 5.57516C2.47908 5.38934 2.51234 5.23731 2.50438 5.23731C2.49642 5.23731 2.44982 5.33406 2.40083 5.4523C2.10243 6.17252 2.14924 7.05343 2.52811 7.84773C3.11397 9.07598 4.66391 10.3963 6.74324 11.4385C7.60912 11.8725 8.21519 12.1081 9.47396 12.5002C11.5886 13.1589 13.7484 13.5698 15.8557 13.7142C17.0315 13.7948 17.685 13.804 18.6841 13.7541ZM24.9232 10.9192C25.0665 10.7436 25.1165 10.576 25.1165 10.2718C25.1165 10.0224 25.0996 9.94299 25.0032 9.74038C24.7149 9.13415 24.0124 8.59344 23.0399 8.22921C22.1013 7.87765 21.1204 7.72156 19.8353 7.71929C18.912 7.71767 18.7264 7.73598 17.9531 7.905C16.5522 8.21122 15.6288 8.92275 15.5521 9.75507C15.5303 9.99186 15.6307 10.3272 15.7638 10.4622C15.8685 10.5683 15.8845 10.5086 15.8147 10.273C15.6227 9.62528 16.0824 9.06735 17.1585 8.64198C17.8299 8.37658 18.5082 8.2495 19.5926 8.18592C21.7438 8.0598 23.4533 8.53533 24.5434 9.56306C25.0334 10.0251 25.0874 10.329 24.7953 10.9807C24.7652 11.0478 24.8524 11.0059 24.9232 10.9192ZM13.1788 8.7898C13.2407 8.53092 13.1356 8.09371 12.9529 7.85042C12.7267 7.54919 12.0428 7.14926 11.3911 6.9371C10.3356 6.59349 8.87876 6.54181 7.52003 6.79976C6.61383 6.97181 5.75409 7.40424 5.40204 7.86509C5.25594 8.05633 5.15865 8.35663 5.18767 8.52674C5.21344 8.67779 5.24862 8.66406 5.32553 8.47296C5.49394 8.05451 6.07202 7.63661 6.7694 7.42919C7.416 7.23688 7.84408 7.18609 8.83436 7.18421C9.80326 7.18237 10.1901 7.21985 10.9875 7.39281C12.2512 7.66689 12.8999 8.08756 13.0599 8.73671C13.1008 8.90295 13.1469 8.92349 13.1788 8.7898ZM21.9477 6.2099C21.6849 5.90878 21.5943 5.69739 21.6166 5.43748C21.6316 5.26225 21.6581 5.20429 21.7947 5.04778C22.0974 4.70093 22.649 4.47721 23.6181 4.30822C24.2141 4.20429 25.5615 4.20483 26.1168 4.30923C26.8656 4.45002 27.3421 4.61702 27.873 4.92477C28.3082 5.177 28.7118 5.57616 28.788 5.82967C28.8633 6.0801 28.9176 6.05976 28.9176 5.7811C28.9176 5.58607 28.8975 5.50464 28.8128 5.35495C28.4788 4.76482 27.3595 4.19233 26.1399 3.98787C24.9339 3.7857 23.686 3.84993 22.5596 4.17217C21.7447 4.40531 21.1328 4.91892 21.1328 5.36981C21.1328 5.70478 21.4032 6.05316 21.882 6.33517C22.1242 6.47779 22.1457 6.43675 21.9477 6.2099ZM5.31551 4.3926C4.96639 4.06464 4.95915 3.7056 5.29298 3.27509C5.84136 2.56791 8.23653 2.15197 10.1457 2.43239C11.417 2.61912 12.1724 3.00293 12.4577 3.60707C12.5275 3.75492 12.5475 4.17944 12.4954 4.40806C12.4525 4.59629 12.5127 4.57733 12.6786 4.35028C12.8041 4.17859 12.818 4.13626 12.817 3.92893C12.8128 3.10347 11.7455 2.45169 10.0295 2.22678C9.48771 2.15577 8.06148 2.14517 7.49509 2.20795C6.48641 2.31976 5.69935 2.62141 5.18257 3.09426C4.75273 3.48755 4.61839 3.87144 4.79719 4.19558C4.88343 4.35193 5.19315 4.54155 5.36034 4.54035L5.47194 4.53955L5.31551 4.3926ZM21.2348 3.40641C21.4215 3.30748 21.7215 2.98376 21.7954 2.80161C21.8816 2.5889 21.8806 2.27297 21.793 2.05674C21.4455 1.19915 19.741 0.651887 17.3683 0.636068C16.1441 0.627906 15.4516 0.758022 14.7917 1.12021C14.074 1.51411 13.787 2.01271 14.0038 2.48888C14.1331 2.77299 14.5159 3.06307 14.926 3.1877C15.1719 3.26245 15.2041 3.22669 15.0224 3.08053C14.7492 2.86066 14.4589 2.50407 14.4128 2.33173C14.3203 1.98587 14.5629 1.66413 15.153 1.3499C15.5295 1.14942 15.997 0.984489 16.326 0.936022C16.7972 0.866616 18.091 0.842 18.6293 0.892201C19.8735 1.00826 20.7814 1.30184 21.2301 1.73329C21.4299 1.92539 21.5714 2.24463 21.5714 2.50328C21.5714 2.76262 21.4702 2.97877 21.2521 3.18535C21.1563 3.27606 21.0369 3.38916 20.9866 3.43668L20.8952 3.52308L21.0049 3.4966C21.0652 3.48203 21.1686 3.44145 21.2348 3.40641Z" fill="#FFC04A"/>
</svg>
