<svg version="1.0" xmlns="http://www.w3.org/2000/svg" width="6230" height="12010" preserveAspectRatio="xMidYMid meet" style=""><rect id="backgroundrect" width="100%" height="100%" x="0" y="0" fill="none" stroke="none"/>



<g class="currentLayer" style=""><title>Layer 1</title>
 <path d="M129.5504913330078,12006.00651550293 c-4,-8 -59,-169 -86,-258 c-12,-36 -13,-244 -2,-244 c4,0 17,33 29,73 c35,117 79,232 128,330 c25,50 45,95 45,99 c0,11 -107,10 -114,0 zm90,-24 c-25,-39 -97,-209 -137,-323 l-39,-110 l0,76 c0,83 13,133 95,367 c3,7 22,12 50,12 c45,0 45,0 31,-22 z" id="svg_1" fill="#ffffff" fill-opacity="0.10" stroke-width="7" stroke-dasharray="none" opacity="1" stroke="#131313" stroke-opacity="1" class=""/>
 <path d="M396.5504913330078,11982.00651550293 c-93,-175 -211,-506 -263,-738 c-11,-52 -25,-113 -30,-135 c-13,-52 -45,-220 -60,-310 c-12,-70 -11,-273 1,-245 c4,8 14,53 24,100 c114,580 255,978 443,1258 c34,51 62,94 62,97 c0,3 -36,5 -80,5 c-79,0 -79,0 -97,-32 zm102,-61 c-189,-290 -315,-642 -430,-1197 c-24,-116 -26,-118 -21,-20 c5,93 67,417 115,600 c58,224 149,478 225,629 l36,71 l65,0 l65,0 l-55,-83 z" id="svg_2" fill="#ffffff" fill-opacity="0.10" stroke-width="7" stroke-dasharray="none" opacity="1" stroke="#131313" stroke-opacity="1" class=""/>
 <path d="M4354.550491333008,11837.00651550293 c-42,-93 -138,-435 -186,-663 c-28,-133 -63,-313 -80,-410 c-9,-52 -23,-129 -31,-170 c-8,-41 -19,-100 -25,-130 c-52,-273 -130,-573 -190,-730 c-11,-30 -25,-68 -32,-85 c-18,-49 -126,-265 -165,-330 c-58,-97 -147,-210 -241,-303 c-78,-78 -181,-160 -436,-347 c-110,-81 -261,-212 -319,-276 c-52,-57 -188,-234 -199,-259 c-4,-8 -23,-42 -43,-75 c-59,-100 -135,-267 -182,-395 c-66,-185 -128,-413 -175,-645 c-9,-44 -25,-123 -36,-175 c-11,-52 -27,-133 -35,-180 c-9,-47 -30,-159 -47,-250 c-113,-610 -227,-950 -426,-1273 c-116,-187 -267,-343 -492,-510 c-327,-243 -307,-227 -434,-347 c-93,-88 -267,-308 -267,-337 c0,-4 -6,-14 -14,-22 c-16,-18 -80,-140 -113,-216 c-56,-127 -68,-158 -109,-285 c-30,-91 -44,-148 -42,-175 c3,-36 6,-29 42,80 c22,66 45,134 52,150 c105,255 158,355 264,505 c128,180 257,296 555,500 c393,270 547,434 720,771 c146,285 267,688 361,1204 c8,44 17,87 20,97 c2,9 9,40 14,70 c39,230 147,672 200,818 c71,197 154,377 224,489 c14,22 26,43 26,47 c0,3 36,51 79,107 c130,168 250,273 516,452 c88,60 187,129 220,154 c100,76 258,240 336,348 c133,183 174,259 294,548 c40,96 125,380 160,535 c44,197 54,240 68,310 c9,41 30,149 47,240 c36,191 60,301 117,540 c16,67 71,252 103,350 c21,63 77,196 109,258 l21,42 l-108,0 l-109,0 l-12,-27 zm191,-15 c-17,-31 -69,-153 -97,-228 c-27,-70 -84,-268 -114,-390 c-50,-211 -59,-249 -95,-435 c-57,-288 -64,-321 -102,-495 c-32,-146 -49,-219 -99,-405 c-16,-59 -92,-272 -130,-365 c-99,-242 -244,-467 -407,-632 c-62,-62 -140,-134 -173,-158 c-33,-25 -62,-48 -65,-51 c-3,-4 -68,-48 -145,-100 c-211,-140 -289,-202 -410,-323 c-279,-281 -465,-691 -599,-1321 c-9,-44 -23,-109 -31,-145 c-8,-36 -23,-112 -34,-170 c-77,-396 -127,-620 -181,-805 c-12,-38 -25,-83 -29,-100 c-9,-32 -67,-190 -97,-265 c-31,-78 -138,-282 -189,-360 c-44,-67 -79,-115 -140,-189 c-102,-124 -298,-281 -580,-465 c-33,-22 -62,-42 -65,-45 c-3,-4 -23,-19 -45,-36 c-190,-139 -399,-398 -497,-614 c-16,-35 -31,-61 -34,-58 c-6,6 73,167 124,252 c122,204 304,401 517,557 c5,4 64,47 130,95 c66,48 122,90 125,93 c3,3 28,23 55,45 c143,112 306,297 397,450 c201,336 303,664 444,1430 c9,50 29,155 46,235 c16,80 33,168 38,195 c4,28 22,109 40,180 c160,663 384,1070 750,1360 c92,73 76,61 190,146 c52,39 102,76 110,82 c9,7 42,32 75,57 c91,68 104,79 192,167 c136,137 219,255 319,454 c137,273 232,591 319,1064 c95,517 149,777 191,930 c37,134 87,293 107,343 l21,52 l93,0 l93,0 l-18,-32 zm-4376,-8205 c-8,-15 -15,-25 -16,-21 c0,12 23,58 27,54 c3,-2 -2,-17 -11,-33 z" id="svg_3" fill="#ffffff" fill-opacity="0.10" stroke-width="7" stroke-dasharray="none" opacity="1" stroke="#131313" stroke-opacity="1" class=""/>
 <path d="M737.5504913330078,11791.00651550293 c-71,-97 -104,-148 -139,-213 c-21,-38 -46,-83 -56,-99 c-19,-33 -86,-184 -99,-225 c-5,-14 -20,-56 -35,-95 c-23,-61 -62,-185 -109,-350 c-36,-122 -79,-339 -171,-860 c-9,-49 -34,-181 -56,-292 c-38,-196 -48,-293 -30,-293 c5,0 11,10 14,23 c2,12 16,65 29,117 c14,52 28,109 31,125 c3,17 16,73 27,125 c12,52 34,158 50,235 c16,77 39,183 50,235 c12,52 25,115 30,140 c19,95 90,371 114,445 c8,22 24,72 36,110 c60,187 174,421 278,570 c31,44 109,133 174,198 c64,64 113,117 108,117 c-5,0 -54,-44 -109,-97 c-102,-100 -191,-208 -244,-298 c-36,-61 -137,-257 -137,-267 c0,-4 -11,-31 -24,-60 c-50,-112 -121,-346 -185,-608 c-30,-126 -41,-174 -86,-395 c-13,-66 -36,-174 -50,-240 c-14,-66 -30,-140 -35,-165 c-21,-97 -68,-274 -69,-255 c-1,10 14,96 33,190 c19,93 42,213 51,265 c9,52 25,140 35,195 c10,55 26,143 35,195 c74,414 130,634 245,950 c59,163 148,339 242,478 c89,132 75,124 212,121 c85,-2 121,1 124,9 c3,9 -31,12 -125,12 l-128,-1 l-31,-42 z" id="svg_4" fill="#ffffff" fill-opacity="0.10" stroke-width="7" stroke-dasharray="none" opacity="1" stroke="#131313" stroke-opacity="1" class=""/>
 <path d="M1175.5504913330078,11775.00651550293 c-75,-62 -196,-181 -250,-246 c-39,-47 -162,-221 -162,-230 c0,-2 -21,-38 -46,-81 c-25,-43 -50,-87 -54,-98 c-4,-12 -19,-46 -32,-76 c-54,-122 -86,-210 -142,-390 c-49,-159 -109,-432 -161,-730 c-69,-399 -138,-740 -170,-855 c-47,-160 -79,-268 -101,-328 c-24,-67 -31,-127 -16,-127 c9,0 66,144 117,294 c35,103 91,312 119,443 c8,37 24,111 36,163 c12,52 25,118 30,145 c26,145 127,598 149,671 c5,16 17,58 26,94 c42,154 121,365 186,495 c179,359 317,505 742,785 c86,57 157,107 157,112 c0,4 -83,8 -184,8 l-185,0 l-59,-49 zm352,1 c-21,-15 -79,-54 -129,-86 c-179,-118 -295,-207 -384,-296 c-233,-231 -418,-600 -536,-1070 c-20,-80 -43,-170 -51,-201 c-15,-60 -99,-462 -114,-544 c-9,-55 -20,-103 -80,-347 c-55,-227 -134,-477 -146,-465 c-3,2 9,49 26,103 c61,199 67,220 115,444 c8,36 22,106 30,155 c9,50 23,122 30,160 c8,39 19,97 24,130 c24,147 96,527 111,585 c5,19 19,76 31,125 c114,483 310,878 565,1141 c38,38 101,98 139,132 l70,62 l169,0 l169,0 l-39,-28 zm-1459,-3069 c-9,-15 -13,-19 -10,-8 c4,11 10,29 13,40 c3,11 7,14 9,8 c3,-7 -3,-24 -12,-40 z" id="svg_5" fill="#ffffff" fill-opacity="0.10" stroke-width="7" stroke-dasharray="none" opacity="1" stroke="#131313" stroke-opacity="1" class=""/>
 <path d="M1688.5504913330078,11758.00651550293 c-44,-37 -100,-80 -125,-97 c-25,-17 -49,-35 -55,-39 c-5,-5 -50,-38 -100,-75 c-85,-63 -304,-273 -353,-338 c-206,-272 -354,-598 -452,-995 c-17,-69 -37,-150 -45,-180 c-19,-72 -52,-248 -100,-520 c-115,-654 -200,-976 -340,-1280 c-27,-58 -57,-118 -67,-135 c-10,-16 -18,-43 -18,-60 c0,-27 4,-23 41,38 c22,37 38,75 35,83 c-3,9 -2,12 4,9 c11,-7 105,180 135,265 c112,322 167,532 255,969 c60,302 72,357 134,606 c34,137 117,400 151,480 c130,307 294,539 505,714 c41,34 80,65 85,69 c66,47 116,82 119,82 c12,0 280,184 350,240 c99,78 222,198 213,206 c-3,4 -38,-24 -76,-62 c-94,-93 -160,-150 -245,-208 c-39,-27 -85,-59 -101,-70 c-17,-12 -64,-41 -104,-66 c-159,-98 -334,-243 -444,-368 c-31,-35 -110,-146 -175,-247 c-15,-24 -112,-219 -130,-261 c-69,-167 -137,-392 -197,-649 c-7,-33 -20,-89 -29,-125 c-8,-36 -33,-155 -55,-265 c-66,-328 -138,-634 -190,-810 c-21,-69 -85,-242 -107,-289 c-32,-67 -25,-42 36,139 c88,260 151,539 245,1090 c25,143 51,273 81,405 c14,63 30,131 34,150 c24,109 65,240 157,497 c34,94 173,355 243,452 c100,142 273,314 455,451 c83,62 189,145 237,183 l88,68 l150,-3 c82,-2 150,0 150,5 c0,4 -71,7 -158,7 l-158,0 l-79,-66 zm-1534,-3503 c-17,-34 -33,-61 -36,-61 c-3,0 10,29 27,65 c18,35 34,63 36,61 c2,-2 -11,-31 -27,-65 z" id="svg_6" fill="#ffffff" fill-opacity="0.10" stroke-width="7" stroke-dasharray="none" opacity="1" stroke="#131313" stroke-opacity="1" class=""/>
 <path d="M2471.550491333008,11730.00651550293 c-80,-160 -146,-255 -267,-381 c-111,-116 -167,-163 -451,-372 c-52,-38 -115,-87 -140,-109 c-61,-52 -209,-202 -240,-242 c-14,-18 -33,-43 -44,-55 c-10,-12 -24,-31 -31,-42 c-7,-11 -33,-52 -58,-91 c-95,-148 -185,-340 -257,-549 c-85,-248 -154,-560 -265,-1195 c-59,-341 -143,-661 -243,-927 c-31,-80 -163,-329 -220,-413 c-28,-41 -89,-119 -136,-172 c-52,-59 -86,-106 -86,-119 c0,-13 3,-19 7,-15 c4,4 8,13 8,21 c0,7 23,38 51,68 c77,82 244,310 244,331 c0,4 10,23 23,44 c28,44 118,238 142,302 c41,116 108,331 124,405 c5,22 19,83 30,135 c26,115 63,301 86,430 c9,52 23,131 31,175 c124,696 237,1064 432,1408 c108,190 297,405 467,533 c28,21 52,41 55,44 c3,3 50,39 105,79 c354,257 498,414 645,699 l43,82 l88,0 c49,0 89,-4 89,-8 c0,-17 -126,-262 -173,-337 c-161,-254 -308,-400 -587,-585 c-316,-209 -407,-281 -524,-416 c-115,-134 -190,-248 -260,-399 c-21,-44 -41,-87 -46,-96 c-52,-98 -176,-498 -220,-709 c-5,-25 -28,-133 -50,-240 c-23,-107 -45,-217 -50,-245 c-11,-60 -43,-212 -66,-310 c-9,-38 -20,-90 -25,-114 c-5,-24 -16,-67 -24,-95 c-8,-28 -29,-98 -45,-156 c-37,-127 -35,-120 -105,-297 c-71,-180 -145,-322 -233,-448 c-39,-55 -148,-183 -172,-202 c-8,-6 -12,-15 -8,-19 c16,-16 172,175 258,315 c136,223 257,545 345,916 c9,39 21,86 26,106 c5,20 29,137 54,260 c68,341 94,468 111,539 c9,36 23,94 31,130 c38,161 119,409 177,540 c154,354 324,572 602,773 c51,37 96,67 98,67 c2,0 62,39 133,86 c309,209 423,325 609,619 c46,73 150,281 159,318 l7,27 l-104,0 l-103,0 l-47,-94 z" id="svg_7" fill="#ffffff" fill-opacity="0.10" stroke-width="7" stroke-dasharray="none" opacity="1" stroke="#131313" stroke-opacity="1" class=""/>
 <path d="M2778.550491333008,11802.00651550293 c-3,-13 -13,-41 -22,-63 c-8,-22 -22,-58 -31,-80 c-8,-22 -30,-73 -49,-113 c-18,-41 -33,-75 -33,-77 c0,-11 -136,-233 -150,-245 c-3,-3 -27,-32 -52,-65 c-112,-146 -213,-236 -543,-477 c-121,-89 -285,-240 -367,-338 c-47,-57 -148,-196 -148,-205 c0,-2 -15,-28 -33,-57 c-69,-108 -165,-329 -227,-518 c-60,-186 -94,-325 -161,-670 c-37,-192 -48,-250 -85,-455 c-108,-598 -213,-928 -406,-1273 c-20,-37 -127,-194 -137,-202 c-3,-3 -32,-35 -64,-72 c-32,-37 -98,-102 -147,-144 c-83,-72 -102,-94 -82,-94 c14,0 107,77 105,87 c-1,6 4,10 11,9 c20,-2 110,79 190,170 c77,87 182,239 239,345 c56,105 141,312 186,454 c68,213 107,368 171,685 c51,250 89,432 111,530 c11,52 24,111 29,130 c4,19 20,80 35,135 c15,55 31,114 35,130 c44,165 163,443 257,599 c92,154 255,334 408,452 c22,17 110,78 195,134 c250,167 314,215 425,325 c121,120 257,305 326,445 c17,36 38,69 46,73 c7,5 11,12 8,17 c-3,5 8,37 24,72 c27,58 41,92 76,188 c80,215 84,190 -34,190 c-95,0 -100,-1 -106,-22 zm185,7 c0,-31 -117,-329 -180,-455 c-60,-122 -56,-114 -141,-241 c-155,-230 -285,-354 -578,-547 c-260,-171 -419,-302 -529,-437 c-103,-126 -220,-329 -297,-514 c-55,-133 -148,-443 -185,-616 c-58,-274 -87,-415 -125,-605 c-25,-124 -50,-241 -55,-260 c-5,-19 -21,-80 -35,-135 c-86,-340 -195,-619 -326,-832 c-54,-87 -193,-264 -250,-318 c-38,-35 -36,-33 12,23 c195,228 336,487 435,801 c13,42 30,96 38,121 c36,109 115,473 161,740 c87,501 139,735 226,1009 c124,390 281,667 505,896 c94,96 159,150 369,308 c99,74 213,164 253,199 c201,174 367,422 482,718 c22,58 45,115 50,128 c9,20 16,22 90,22 c44,0 80,-2 80,-5 z" id="svg_8" fill="#ffffff" fill-opacity="0.10" stroke-width="7" stroke-dasharray="none" opacity="1" stroke="#131313" stroke-opacity="1" class=""/>
 <path d="M3244.550491333008,11787.00651550293 c-6,-21 -11,-44 -11,-50 c0,-22 -70,-304 -102,-408 c-152,-507 -384,-851 -749,-1111 c-30,-22 -61,-44 -69,-51 c-8,-6 -71,-53 -139,-104 c-205,-154 -370,-327 -478,-504 c-174,-281 -307,-650 -398,-1095 c-9,-47 -23,-114 -30,-150 c-8,-36 -30,-155 -50,-265 c-97,-530 -155,-781 -238,-1020 c-33,-97 -111,-275 -150,-345 c-11,-19 -31,-55 -45,-80 c-63,-114 -192,-281 -294,-380 c-75,-74 -115,-106 -376,-298 c-71,-52 -92,-76 -78,-90 c4,-3 13,-2 20,3 c22,16 130,89 148,100 c65,39 248,176 326,244 c113,99 263,295 354,461 c35,63 123,257 143,310 c57,161 97,294 136,455 c11,44 24,96 29,115 c10,40 41,187 70,335 c86,441 137,665 202,885 c76,262 196,517 331,709 c66,94 227,260 322,332 c33,25 139,99 235,164 c225,151 286,199 391,304 c208,207 351,444 482,796 c42,111 119,380 151,525 c10,41 23,100 31,130 c7,30 16,70 19,88 l6,32 l-90,0 l-89,0 l-10,-37 zm169,15 c0,-11 -36,-176 -61,-278 c-95,-388 -212,-690 -362,-940 c-100,-165 -318,-401 -462,-499 c-44,-30 -135,-91 -202,-137 c-194,-131 -271,-192 -384,-304 c-191,-190 -323,-416 -446,-760 c-44,-123 -117,-394 -153,-565 c-4,-22 -29,-141 -54,-265 c-60,-299 -80,-391 -129,-610 c-52,-229 -139,-487 -224,-663 c-24,-48 -43,-90 -43,-92 c0,-3 -14,-28 -32,-57 c-183,-307 -328,-458 -638,-664 c-69,-46 -138,-93 -155,-105 c-23,-16 -22,-14 5,9 c30,26 134,105 247,187 c145,106 280,244 390,400 c56,79 152,247 183,321 c12,27 28,62 35,79 c97,213 178,515 270,1010 c9,44 31,166 51,270 c80,431 145,705 209,875 c40,108 123,304 154,365 c57,112 153,269 181,295 c3,3 21,25 40,50 c81,103 211,224 355,331 c33,24 62,46 65,49 c3,3 68,52 145,110 c121,90 255,213 346,316 c42,47 124,166 159,230 c18,32 40,70 50,84 c82,123 227,553 280,831 c6,29 15,69 20,91 l11,38 l74,0 c41,0 75,-1 75,-2 z" id="svg_9" fill="#ffffff" fill-opacity="0.10" stroke-width="7" stroke-dasharray="none" opacity="1" stroke="#131313" stroke-opacity="1" class=""/>
 <path d="M3658.550491333008,11787.00651550293 c-17,-109 -96,-532 -120,-643 c-86,-398 -162,-626 -287,-869 c-33,-63 -73,-131 -89,-152 c-16,-20 -29,-40 -29,-43 c0,-4 -23,-37 -52,-74 c-81,-105 -245,-261 -375,-358 c-65,-48 -161,-119 -213,-158 c-381,-284 -582,-578 -762,-1111 c-12,-33 -24,-73 -28,-90 c-4,-16 -18,-66 -30,-110 c-40,-146 -82,-338 -144,-675 c-153,-821 -212,-1031 -384,-1378 c-161,-324 -309,-478 -797,-832 c-41,-30 -83,-60 -91,-67 c-9,-6 -17,-18 -18,-26 c-1,-8 -8,-22 -15,-31 c-21,-25 -2,-19 38,13 c20,15 108,77 196,136 c266,179 353,249 485,391 c44,47 121,147 147,189 c7,11 30,50 52,87 c63,102 147,275 171,348 c5,14 20,57 35,95 c31,80 70,205 90,285 c7,30 25,100 39,155 c28,114 42,179 91,425 c138,697 209,955 337,1238 c71,158 176,331 262,432 c65,76 208,211 273,256 c37,27 70,51 73,54 c3,3 78,54 168,115 c267,178 400,299 543,493 c38,50 69,95 69,98 c0,3 15,29 34,58 c28,44 109,205 146,291 c66,151 144,402 200,645 c49,211 170,807 170,836 c0,11 -18,14 -90,14 l-89,0 l-6,-37 zm169,0 c-2,-10 -29,-144 -59,-298 c-103,-520 -164,-762 -253,-1015 c-48,-134 -131,-314 -187,-405 c-17,-27 -36,-62 -44,-76 c-28,-57 -151,-209 -241,-299 c-100,-101 -201,-180 -415,-325 c-218,-148 -276,-194 -385,-304 c-110,-111 -234,-283 -294,-406 c-10,-22 -34,-69 -51,-105 c-45,-91 -138,-351 -171,-475 c-29,-112 -51,-200 -57,-230 c-3,-16 -16,-73 -27,-125 c-11,-52 -39,-185 -60,-295 c-151,-767 -250,-1082 -450,-1434 c-29,-51 -101,-155 -145,-211 c-10,-14 -69,-75 -130,-135 c-106,-107 -186,-169 -420,-325 c-60,-41 -128,-87 -150,-104 c-21,-17 -36,-26 -32,-19 c4,6 64,54 134,105 c313,230 320,236 443,358 c180,178 289,351 425,675 c18,44 70,200 103,310 c44,149 118,490 167,775 c9,52 23,129 31,170 c8,41 23,122 34,180 c11,58 27,132 35,165 c8,33 23,96 34,140 c104,428 251,769 438,1012 c127,167 249,276 589,528 c292,216 464,419 608,717 c126,262 209,544 291,988 c35,190 66,360 76,418 l11,62 l78,0 c69,0 78,-2 74,-17 z" id="svg_10" fill="#ffffff" fill-opacity="0.10" stroke-width="7" stroke-dasharray="none" opacity="1" stroke="#131313" stroke-opacity="1" class=""/>
 <path d="M3874.550491333008,11792.00651550293 c-5,-18 -15,-60 -21,-93 c-7,-33 -18,-89 -25,-125 c-8,-36 -21,-108 -30,-160 c-9,-52 -23,-126 -30,-165 c-8,-38 -25,-128 -39,-200 c-14,-71 -35,-173 -46,-225 c-12,-52 -25,-115 -30,-140 c-22,-106 -101,-362 -157,-505 c-44,-111 -127,-270 -192,-367 c-138,-207 -270,-333 -576,-553 c-60,-43 -112,-81 -115,-84 c-3,-3 -36,-32 -75,-63 c-352,-284 -585,-693 -729,-1283 c-62,-252 -82,-348 -121,-565 c-40,-229 -108,-574 -132,-675 c-38,-159 -103,-387 -131,-455 c-5,-14 -18,-45 -27,-70 c-114,-293 -265,-528 -459,-713 c-70,-68 -265,-222 -361,-287 c-112,-75 -312,-246 -302,-257 c4,-3 36,22 72,55 c36,34 91,81 123,104 c31,24 59,45 62,48 c3,3 61,46 130,94 c69,49 141,102 160,119 c113,96 189,171 243,237 c34,41 64,77 67,80 c3,3 27,38 54,78 c152,234 258,483 346,818 c40,151 84,363 156,754 c37,199 46,250 65,340 c11,52 26,122 34,155 c8,33 24,101 36,150 c34,142 138,452 161,480 c4,5 8,15 8,22 c0,15 86,192 121,251 c38,63 112,177 118,182 c3,3 25,30 47,60 c77,102 212,229 369,347 c106,79 112,84 215,159 c134,97 243,198 355,329 c100,116 194,280 291,507 c42,98 85,228 123,368 c38,145 98,422 136,630 c40,221 44,243 97,513 l23,117 l77,0 c43,0 78,-4 78,-10 c0,-5 -11,-53 -25,-107 c-24,-96 -41,-174 -85,-398 c-12,-60 -33,-164 -46,-230 c-14,-66 -32,-154 -40,-195 c-65,-333 -183,-712 -294,-947 c-17,-35 -30,-65 -30,-67 c0,-9 -105,-183 -130,-216 c-15,-19 -29,-40 -31,-46 c-8,-21 -94,-120 -177,-202 c-115,-114 -197,-177 -407,-316 c-176,-116 -269,-189 -370,-291 c-95,-95 -107,-108 -170,-194 c-66,-90 -143,-231 -222,-411 c-52,-117 -120,-330 -162,-505 c-49,-207 -74,-317 -84,-375 c-23,-129 -126,-618 -155,-735 c-18,-73 -28,-109 -62,-230 c-27,-94 -109,-325 -129,-362 c-5,-10 -28,-56 -50,-103 c-101,-212 -185,-334 -336,-486 c-144,-145 -159,-157 -400,-319 c-183,-123 -247,-171 -328,-244 c-62,-57 -32,-47 35,11 c65,56 216,166 348,253 c263,172 407,309 551,525 c157,235 273,519 378,930 c12,47 26,101 31,120 c5,19 36,170 69,335 c33,165 70,343 81,395 c12,52 25,115 30,140 c20,98 81,322 119,437 c99,299 215,520 373,709 c118,141 208,217 463,389 c280,190 385,277 511,428 c119,141 193,261 281,457 c116,256 195,518 287,950 c27,128 32,150 81,400 c49,250 63,313 91,417 c13,51 24,97 24,103 c0,6 -36,10 -89,10 l-89,0 l-11,-32 z" id="svg_11" fill="#ffffff" fill-opacity="0.10" stroke-width="7" stroke-dasharray="none" opacity="1" stroke="#131313" stroke-opacity="1" class=""/>
 <path d="M4100.550491333008,11772.00651550293 c-15,-51 -42,-163 -72,-293 c-28,-121 -59,-280 -100,-505 c-52,-292 -74,-399 -122,-595 c-43,-181 -54,-220 -96,-340 c-58,-166 -66,-186 -122,-300 c-114,-233 -255,-421 -424,-564 c-65,-55 -249,-195 -316,-241 c-153,-103 -349,-286 -446,-415 c-163,-215 -265,-421 -369,-740 c-81,-250 -116,-406 -216,-945 c-9,-47 -22,-121 -31,-165 c-35,-190 -99,-473 -138,-610 c-127,-450 -326,-797 -591,-1031 c-65,-57 -105,-88 -405,-311 c-143,-106 -279,-237 -373,-357 c-65,-82 -86,-124 -49,-95 c16,13 17,12 4,-3 c-7,-10 -17,-15 -22,-13 c-19,12 -179,-288 -179,-334 c1,-19 16,3 54,79 c30,58 70,130 90,160 c37,56 45,77 24,64 c-7,-4 -8,-3 -4,5 c4,6 11,9 16,6 c5,-3 27,19 50,49 c105,143 264,281 530,461 c80,54 183,127 230,163 c104,80 253,229 311,312 c13,19 27,37 30,40 c4,3 22,30 41,60 c202,319 330,679 444,1250 c14,69 32,157 40,195 c8,39 21,106 30,150 c93,473 166,739 272,990 c34,80 110,231 136,268 c14,21 26,40 26,42 c0,9 73,109 123,170 c112,135 233,234 550,448 c333,226 536,460 694,802 c162,350 229,594 389,1410 c43,224 123,552 164,672 c16,50 30,96 30,102 c0,7 -32,11 -94,11 l-95,0 l-14,-52 zm173,-15 c-10,-32 -23,-69 -28,-83 c-12,-31 -95,-367 -117,-470 c-8,-41 -25,-122 -36,-180 c-11,-58 -32,-161 -46,-230 c-117,-594 -211,-904 -366,-1213 c-57,-114 -146,-261 -192,-316 c-165,-199 -257,-281 -500,-446 c-374,-255 -479,-351 -631,-576 c-164,-244 -313,-641 -394,-1054 c-4,-22 -17,-85 -29,-140 c-12,-55 -26,-122 -31,-150 c-13,-75 -68,-341 -84,-415 c-8,-36 -22,-99 -31,-140 c-44,-200 -123,-459 -189,-623 c-139,-343 -339,-619 -581,-805 c-92,-71 -96,-74 -118,-87 c-64,-39 -296,-201 -362,-254 c-81,-64 -203,-182 -263,-256 c-18,-22 -29,-31 -23,-20 c5,11 45,62 89,114 c70,81 113,123 244,237 c15,13 58,46 96,73 c70,49 256,187 280,206 c7,5 18,15 25,20 c339,276 544,622 692,1165 c34,125 90,382 125,570 c58,320 108,572 136,695 c9,39 18,81 21,95 c20,97 111,389 159,510 c33,82 132,287 155,320 c9,14 38,59 65,100 c127,202 308,372 644,610 c95,67 252,199 308,259 c245,262 420,628 532,1114 c53,228 85,393 136,682 c34,194 89,447 141,648 l25,97 l83,0 l83,0 l-18,-57 z" id="svg_12" fill="#ffffff" fill-opacity="0.10" stroke-width="7" stroke-dasharray="none" opacity="1" stroke="#131313" stroke-opacity="1" class=""/>
 <path d="M4653.550491333008,11798.00651550293 c-6,-14 -10,-27 -10,-30 c0,-2 -22,-50 -49,-107 c-88,-183 -157,-383 -211,-612 c-11,-49 -25,-106 -30,-125 c-13,-51 -90,-442 -135,-685 c-9,-49 -23,-119 -30,-155 c-8,-36 -17,-81 -21,-100 c-38,-211 -142,-565 -209,-715 c-132,-295 -225,-436 -404,-612 c-73,-72 -321,-273 -337,-273 c-3,0 -64,-45 -137,-101 c-170,-130 -268,-223 -365,-349 c-23,-30 -45,-59 -50,-65 c-29,-38 -152,-240 -152,-250 c0,-3 -18,-43 -40,-91 c-47,-99 -56,-123 -115,-294 c-87,-251 -140,-477 -250,-1075 c-59,-319 -84,-433 -144,-655 c-114,-423 -287,-744 -532,-988 c-75,-75 -151,-135 -479,-379 c-156,-116 -267,-221 -366,-345 c-52,-64 -196,-296 -214,-343 c-4,-11 -17,-41 -28,-65 c-23,-50 -67,-157 -88,-210 c-13,-35 -54,-166 -92,-295 c-28,-95 -77,-317 -122,-553 c-12,-62 -13,-142 -2,-142 c4,0 15,44 25,98 c11,53 25,124 32,157 c8,33 21,94 30,135 c101,461 266,859 466,1120 c101,133 314,322 479,425 c25,15 47,31 50,34 c3,3 13,11 22,16 c143,84 353,267 474,411 c123,148 277,436 354,664 c83,243 160,555 230,920 c104,550 167,801 265,1060 c7,19 19,51 27,70 c36,95 153,309 218,401 c134,187 264,306 534,490 c187,127 267,189 379,292 c84,77 217,233 217,255 c0,6 3,12 8,14 c19,8 116,174 175,298 c104,219 157,374 236,695 c35,142 57,247 156,745 c13,69 34,168 46,220 c11,52 25,113 29,135 c61,292 217,675 361,886 c33,47 59,89 59,92 c0,4 -56,7 -125,7 c-125,0 -125,0 -135,-26 zm230,2 c0,-2 -22,-37 -50,-79 c-136,-206 -281,-558 -340,-827 c-5,-19 -18,-78 -29,-130 c-35,-157 -50,-229 -77,-365 c-129,-663 -176,-850 -286,-1145 c-85,-227 -229,-483 -356,-633 c-69,-81 -197,-201 -287,-267 c-33,-25 -62,-48 -65,-51 c-3,-3 -63,-46 -135,-94 c-359,-243 -521,-408 -669,-687 c-155,-291 -254,-608 -361,-1158 c-67,-343 -110,-552 -125,-610 c-5,-19 -18,-71 -29,-115 c-83,-345 -217,-686 -342,-873 c-16,-24 -29,-46 -29,-49 c0,-12 -133,-174 -201,-243 c-89,-91 -187,-171 -334,-273 c-266,-183 -325,-228 -429,-327 c-114,-110 -198,-214 -268,-334 c-51,-87 -141,-266 -161,-321 c-55,-147 -98,-276 -128,-378 c-18,-65 -35,-114 -37,-108 c-8,24 112,408 174,558 c61,147 145,304 222,413 c84,120 224,270 317,341 c17,13 32,26 35,29 c6,8 202,152 304,225 c144,101 262,212 381,356 c161,195 310,510 400,849 c9,36 21,78 26,94 c8,26 24,96 74,326 c7,36 21,108 30,160 c9,52 22,127 30,165 c8,39 23,122 35,185 c78,422 174,773 275,1004 c90,208 162,335 276,482 c121,157 239,264 484,439 c129,93 107,76 220,167 c104,83 205,181 261,253 c21,28 41,52 44,55 c10,9 77,113 122,190 c95,162 197,426 258,670 c12,47 27,110 35,140 c13,51 64,303 100,495 c32,168 95,484 116,575 c11,52 23,106 26,120 c10,47 74,265 108,365 c35,104 51,143 116,283 c22,46 39,89 39,96 c0,29 25,36 127,36 c57,0 103,-2 103,-4 zm-4751,-9150 c-7,-31 -14,-54 -16,-52 c-3,3 1,30 8,60 c7,31 14,54 16,52 c3,-3 -1,-30 -8,-60 z" id="svg_13" fill="#ffffff" fill-opacity="0.10" stroke-width="7" stroke-dasharray="none" opacity="1" stroke="#131313" stroke-opacity="1" class=""/>
 <path d="M4985.550491333008,11787.00651550293 c-143,-182 -301,-508 -387,-798 c-19,-66 -41,-142 -49,-170 c-37,-129 -75,-310 -151,-710 c-97,-513 -115,-598 -186,-835 c-92,-304 -232,-592 -368,-755 c-56,-66 -230,-234 -291,-281 c-36,-27 -121,-90 -190,-139 c-69,-49 -130,-94 -136,-99 c-7,-6 -24,-20 -39,-31 c-70,-50 -186,-158 -257,-239 c-204,-230 -359,-538 -473,-936 c-55,-192 -92,-354 -151,-670 c-9,-47 -24,-128 -34,-180 c-10,-52 -26,-135 -35,-185 c-119,-648 -283,-1082 -523,-1390 c-113,-144 -203,-223 -552,-482 c-229,-170 -385,-322 -485,-473 c-133,-199 -219,-379 -299,-625 c-78,-236 -114,-390 -201,-850 c-68,-358 -103,-535 -126,-633 c-22,-96 -23,-112 -8,-112 c6,0 8,7 5,16 c-3,8 -2,13 3,10 c9,-6 72,243 94,374 c2,14 18,95 36,180 c17,85 38,191 47,235 c69,351 143,636 209,810 c15,39 29,79 32,90 c7,24 113,244 145,300 c35,61 133,206 163,240 c143,163 251,255 495,420 c394,266 530,415 725,790 c129,249 231,585 335,1110 c11,55 38,190 60,300 c107,544 188,811 336,1109 c133,267 303,461 572,654 c56,39 104,72 106,72 c23,0 306,218 394,304 c67,64 227,259 245,296 c4,8 21,38 37,65 c44,73 117,219 152,305 c16,41 38,95 48,120 c20,49 96,304 125,415 c28,113 48,203 100,465 c40,203 59,298 101,495 c96,455 230,817 390,1055 c31,47 60,87 63,90 c3,3 38,44 78,91 c40,47 106,114 148,149 c41,34 75,64 75,66 c0,2 -78,4 -174,4 l-174,0 l-30,-37 zm306,-10 c-283,-246 -467,-561 -602,-1028 c-63,-219 -98,-376 -195,-880 c-102,-524 -197,-845 -338,-1135 c-166,-341 -343,-538 -708,-786 c-232,-157 -318,-225 -425,-333 c-131,-133 -221,-259 -304,-426 c-154,-311 -232,-570 -346,-1150 c-97,-492 -92,-466 -140,-665 c-119,-490 -283,-848 -509,-1110 c-55,-64 -67,-76 -146,-148 c-80,-74 -362,-282 -381,-282 c-3,0 -60,-42 -127,-92 c-198,-151 -349,-318 -454,-503 c-147,-257 -232,-488 -337,-920 c-19,-77 -35,-130 -35,-117 c-1,22 7,57 54,252 c70,286 155,532 237,688 c72,135 101,188 114,203 c8,8 14,19 14,23 c0,20 176,232 247,296 c111,102 135,120 453,355 c124,91 273,228 349,321 c131,159 280,446 361,694 c11,36 26,81 32,100 c6,19 15,49 19,65 c4,17 18,73 32,126 c38,139 80,347 151,729 c75,408 115,578 207,875 c54,172 141,367 232,520 c129,215 272,374 473,525 c54,41 101,78 102,83 c2,4 8,7 13,7 c8,0 193,133 267,193 c15,11 79,73 142,137 c196,195 319,407 450,770 c53,148 125,447 185,765 c8,44 23,125 34,180 c10,55 26,141 36,190 c9,50 23,119 30,155 c8,36 22,101 31,145 c16,75 30,130 71,280 c51,186 146,437 220,580 c48,94 86,160 99,176 c8,8 14,19 14,22 c0,8 65,100 94,135 c19,21 26,22 173,22 l153,0 l-42,-37 zm-5074,-9763 c-15,-77 -30,-138 -32,-135 c-2,2 8,71 24,152 c15,81 29,142 32,135 c2,-7 -9,-75 -24,-152 zm-44,-231 c-17,-81 -24,-68 -8,16 c6,38 14,62 16,56 c2,-7 -1,-40 -8,-72 z" id="svg_14" fill="#ffffff" fill-opacity="0.10" stroke-width="7" stroke-dasharray="none" opacity="1" stroke="#131313" stroke-opacity="1" class=""/>
 <path d="M5938.550491333008,11756.00651550293 c-49,-38 -130,-97 -180,-132 c-49,-35 -92,-67 -95,-70 c-3,-3 -27,-22 -53,-42 c-114,-86 -225,-199 -320,-323 c-44,-59 -77,-105 -77,-109 c0,-3 -14,-25 -30,-50 c-34,-50 -151,-280 -173,-341 c-8,-22 -32,-85 -52,-140 c-59,-161 -79,-231 -149,-527 c-17,-71 -73,-352 -101,-508 c-26,-144 -95,-490 -105,-530 c-5,-19 -21,-82 -36,-140 c-121,-482 -324,-863 -585,-1096 c-104,-92 -137,-118 -374,-287 c-240,-172 -394,-328 -538,-549 c-180,-275 -339,-743 -442,-1303 c-9,-49 -23,-121 -30,-160 c-7,-38 -23,-122 -35,-185 c-73,-386 -109,-541 -177,-755 c-54,-167 -87,-250 -166,-410 c-46,-94 -74,-144 -103,-182 c-13,-17 -24,-36 -24,-42 c0,-6 -4,-11 -8,-11 c-5,0 -13,-9 -18,-19 c-35,-74 -253,-288 -414,-406 c-366,-269 -431,-323 -547,-455 c-132,-149 -285,-404 -358,-595 c-120,-314 -167,-500 -290,-1160 c-79,-424 -134,-658 -204,-872 c-52,-157 -57,-172 -103,-272 c-28,-61 -30,-80 -10,-67 c39,24 242,626 229,677 c-3,10 -2,17 2,14 c11,-6 35,100 28,120 c-4,9 -3,14 2,11 c5,-3 11,7 14,22 c9,42 85,418 103,507 c71,365 138,628 208,825 c66,186 93,246 193,429 c95,173 237,341 401,474 c68,55 89,70 267,192 c111,76 207,145 215,155 c3,3 19,16 35,29 c70,54 200,188 266,276 c80,106 202,325 259,465 c12,30 28,69 35,85 c54,128 111,327 178,615 c37,161 42,185 107,515 c81,408 103,503 176,733 c86,274 199,510 333,689 c125,169 243,276 506,458 c305,212 406,300 540,470 c249,318 401,699 540,1360 c20,94 40,193 45,220 c8,44 66,336 90,450 c11,53 76,306 94,370 c63,217 182,495 267,623 c16,24 29,46 29,49 c0,14 142,186 205,246 c79,78 216,184 350,272 c142,93 305,219 393,302 c7,7 12,39 12,82 l0,71 l-117,0 l-118,0 l-90,-68 zm315,1 c0,-32 -4,-63 -8,-69 c-19,-29 -233,-198 -338,-268 c-325,-217 -481,-358 -608,-551 c-147,-223 -252,-477 -347,-840 c-42,-163 -41,-154 -150,-705 c-63,-320 -122,-568 -169,-715 c-59,-183 -81,-242 -138,-370 c-43,-96 -112,-225 -153,-288 c-22,-32 -39,-61 -39,-64 c0,-3 -23,-35 -52,-72 c-83,-106 -244,-262 -368,-355 c-63,-47 -120,-91 -127,-96 c-7,-6 -15,-10 -17,-10 c-3,0 -45,-28 -93,-62 c-350,-246 -511,-438 -680,-803 c-113,-244 -193,-528 -298,-1065 c-73,-369 -92,-459 -140,-655 c-103,-414 -220,-692 -415,-985 c-53,-79 -261,-289 -350,-354 c-36,-26 -72,-52 -81,-59 c-8,-7 -23,-16 -32,-22 c-57,-35 -205,-138 -277,-194 c-197,-151 -349,-320 -460,-513 c-97,-167 -208,-439 -265,-648 c-9,-36 -23,-85 -30,-110 c-12,-44 -25,-101 -61,-262 c-10,-43 -19,-76 -22,-74 c-2,3 6,51 18,108 c95,444 200,755 332,985 c28,48 56,97 62,108 c10,17 57,85 83,120 c81,107 194,224 293,304 c92,75 83,68 220,166 c69,49 127,92 130,95 c3,3 32,25 65,50 c87,65 252,232 321,325 c137,182 253,419 335,680 c49,160 59,196 89,325 c52,225 49,211 146,730 c39,209 92,445 136,600 c114,409 261,717 447,940 c68,82 197,207 276,268 c33,26 65,51 71,57 c6,5 50,37 98,70 c125,87 265,194 316,242 c25,23 56,52 70,65 c105,98 241,292 323,460 c146,300 236,611 342,1193 c9,50 23,122 30,160 c7,39 21,111 30,160 c38,206 115,522 164,673 c88,269 171,448 308,659 c130,202 298,363 593,568 c47,33 92,65 100,72 c8,7 35,28 60,47 l45,36 l108,0 l107,0 l0,-57 zm-5731,-10302 c-6,-34 -14,-60 -16,-57 c-2,2 1,32 8,65 c6,34 14,60 16,57 c2,-2 -1,-32 -8,-65 zm-25,-135 c-3,-21 -8,-35 -11,-32 c-2,2 -1,20 3,40 c3,21 8,35 11,32 c2,-2 1,-20 -3,-40 z" id="svg_15" fill="#ffffff" fill-opacity="0.10" stroke-width="7" stroke-dasharray="none" opacity="1" stroke="#131313" stroke-opacity="1" class=""/>
 <path d="M2155.550491333008,11771.00651550293 c-74,-103 -174,-204 -307,-307 c-38,-30 -72,-57 -75,-60 c-3,-3 -75,-58 -161,-121 c-178,-133 -318,-266 -437,-414 c-19,-24 -79,-114 -110,-165 c-39,-63 -160,-308 -172,-348 c-5,-15 -18,-52 -30,-82 c-53,-138 -69,-191 -124,-415 c-48,-192 -72,-309 -120,-577 c-9,-49 -23,-127 -32,-175 c-76,-423 -125,-633 -200,-863 c-25,-74 -51,-149 -59,-167 c-8,-17 -15,-34 -15,-37 c0,-22 -149,-300 -208,-389 c-75,-110 -95,-162 -47,-117 c14,13 23,30 20,38 c-2,7 -1,11 4,8 c13,-8 34,21 25,35 c-4,7 -3,9 3,6 c29,-18 191,268 281,493 c92,231 161,487 256,950 c111,545 189,855 260,1040 c65,165 131,303 200,415 c147,238 279,362 658,613 c261,174 376,272 501,429 c51,64 130,182 156,231 l12,22 l-124,0 l-124,0 l-31,-43 zm249,16 c-5,-10 -36,-57 -68,-104 c-135,-200 -276,-337 -503,-489 c-52,-35 -142,-95 -200,-133 c-194,-130 -312,-231 -402,-345 c-29,-37 -55,-69 -59,-72 c-15,-12 -107,-163 -152,-250 c-113,-219 -204,-489 -281,-835 c-60,-270 -74,-334 -111,-515 c-60,-300 -78,-376 -150,-638 c-50,-183 -211,-562 -258,-607 c-6,-7 -8,-7 -5,0 c21,39 113,239 133,289 c83,209 175,572 240,946 c9,52 23,129 30,170 c125,705 219,1032 393,1370 c130,253 302,461 510,619 c26,19 49,38 52,41 c3,3 59,46 125,95 c228,168 360,288 453,412 l47,63 l108,0 c100,0 107,-1 98,-17 zm-2210,-4040 c-11,-21 -30,-49 -42,-63 l-21,-25 l16,25 c9,14 25,42 36,63 c11,20 23,37 25,37 c3,0 -4,-17 -14,-37 z" id="svg_16" fill="#ffffff" fill-opacity="0.10" stroke-width="7" stroke-dasharray="none" opacity="1" stroke="#131313" stroke-opacity="1" class=""/>
 <path d="M3020.550491333008,11767.00651550293 c-8,-27 -22,-77 -32,-113 c-40,-150 -124,-363 -202,-510 c-139,-263 -301,-447 -561,-635 c-268,-194 -365,-274 -479,-395 c-109,-114 -223,-278 -296,-425 c-182,-365 -260,-643 -397,-1405 c-40,-224 -97,-508 -117,-585 c-33,-129 -76,-283 -93,-335 c-52,-154 -150,-368 -229,-500 c-41,-68 -60,-96 -139,-200 c-30,-39 -178,-189 -232,-235 c-19,-17 -74,-61 -122,-98 c-49,-37 -88,-75 -88,-83 c0,-22 13,-17 86,33 c335,228 478,393 659,758 c86,175 111,239 170,430 c65,213 112,420 210,915 c49,250 72,349 124,545 c25,93 110,345 121,360 c4,6 11,21 15,35 c23,79 154,318 229,420 c69,92 78,102 178,201 c78,78 265,226 313,249 c15,7 190,126 255,173 c129,94 269,230 360,350 c27,36 50,68 50,71 c0,3 15,27 32,53 c55,81 179,320 199,383 c4,14 17,50 29,80 c28,70 77,219 95,285 c7,27 23,85 34,127 c12,43 21,82 21,88 c0,6 -35,10 -89,10 l-89,0 l-15,-47 zm173,21 c0,-38 -79,-308 -133,-454 c-47,-126 -61,-159 -114,-265 c-112,-222 -200,-352 -327,-483 c-117,-121 -212,-197 -411,-329 c-229,-152 -307,-213 -420,-328 c-311,-316 -487,-739 -646,-1555 c-11,-58 -27,-136 -35,-174 c-8,-38 -26,-126 -40,-195 c-14,-69 -29,-142 -34,-161 c-5,-19 -25,-98 -44,-175 c-40,-157 -100,-347 -140,-445 c-29,-69 -144,-305 -174,-355 c-127,-215 -290,-387 -517,-546 c-138,-95 -139,-87 -4,17 c106,81 281,247 342,324 c100,128 250,395 300,535 c8,22 31,85 51,140 c41,114 61,185 120,435 c22,96 69,334 101,520 c9,52 26,140 36,195 c11,55 26,136 35,180 c104,546 262,964 474,1260 c133,184 246,291 520,494 c239,177 317,243 415,351 c28,30 53,57 56,60 c21,17 134,189 174,265 c26,50 51,95 55,100 c3,6 21,46 39,90 c19,44 39,94 46,110 c21,48 80,234 100,310 c9,39 19,76 21,83 c2,8 27,12 79,12 c62,0 75,-3 75,-16 z" id="svg_17" fill="#ffffff" fill-opacity="0.10" stroke-width="7" stroke-dasharray="none" opacity="1" stroke="#131313" stroke-opacity="1" class=""/>
 <path d="M3440.550491333008,11716.00651550293 c-89,-471 -156,-730 -252,-967 c-64,-159 -189,-376 -276,-480 c-39,-47 -187,-196 -241,-243 c-21,-18 -89,-69 -150,-114 c-202,-145 -321,-240 -416,-332 c-337,-327 -545,-802 -692,-1581 c-17,-88 -39,-205 -49,-260 c-11,-55 -26,-138 -35,-185 c-44,-237 -79,-401 -112,-520 c-14,-52 -30,-108 -34,-125 c-64,-245 -221,-584 -360,-777 c-96,-132 -288,-306 -530,-478 c-105,-75 -212,-161 -207,-167 c4,-3 159,109 277,200 c8,7 47,35 85,63 c150,109 315,272 408,402 c20,28 37,55 37,59 c0,3 6,14 14,22 c37,43 139,250 193,391 c14,36 31,81 38,100 c21,53 90,291 125,430 c11,42 70,341 99,500 c52,286 83,450 97,515 c117,545 280,943 508,1240 c32,42 210,223 261,266 c39,32 169,130 331,249 c136,99 305,259 393,372 c44,56 181,279 181,294 c0,2 13,32 29,67 c79,167 164,436 216,682 c9,44 22,109 30,145 c7,36 21,106 30,155 c9,50 20,106 24,125 l7,35 l78,3 l79,3 l-6,-28 c-3,-15 -20,-95 -37,-178 c-92,-451 -184,-776 -280,-990 c-5,-11 -21,-47 -35,-80 c-64,-145 -185,-337 -289,-460 c-72,-86 -112,-124 -246,-239 c-30,-25 -259,-186 -266,-186 c-10,0 -212,-150 -278,-206 c-152,-130 -293,-311 -397,-510 c-68,-129 -100,-207 -160,-387 c-74,-224 -103,-339 -179,-717 c-22,-107 -46,-229 -55,-270 c-112,-556 -203,-855 -345,-1140 c-169,-337 -337,-520 -698,-759 c-66,-44 -153,-103 -192,-131 c-39,-28 -76,-48 -81,-44 c-14,8 -49,-25 -49,-48 c0,-10 2,-18 5,-18 c3,0 33,22 68,48 c34,27 141,102 237,167 c225,152 277,192 375,290 c160,159 234,263 346,485 c156,312 242,607 380,1310 c111,570 202,885 327,1140 c125,254 260,431 462,604 c25,21 137,101 250,179 c227,155 265,183 328,242 c24,22 48,41 53,43 c9,4 128,136 167,187 c183,239 305,493 421,880 c44,147 87,330 140,593 l47,232 l-90,0 l-91,0 l-18,-98 z" id="svg_18" fill="#ffffff" fill-opacity="0.10" stroke-width="7" stroke-dasharray="none" opacity="1" stroke="#131313" stroke-opacity="1" class=""/>
 <path d="M5421.550491333008,11777.00651550293 c-182,-158 -335,-338 -431,-508 c-40,-72 -123,-243 -140,-290 c-8,-22 -31,-85 -52,-140 c-21,-55 -41,-113 -46,-130 c-4,-16 -17,-61 -28,-100 c-45,-157 -104,-415 -145,-635 c-9,-47 -32,-170 -51,-275 c-20,-104 -42,-220 -50,-257 c-8,-38 -22,-101 -31,-140 c-84,-393 -215,-732 -377,-975 c-93,-140 -277,-328 -434,-443 c-329,-242 -374,-278 -493,-399 c-293,-297 -477,-691 -610,-1301 c-35,-158 -48,-221 -65,-315 c-36,-195 -58,-313 -106,-555 c-86,-442 -226,-842 -370,-1058 c-16,-24 -29,-47 -29,-52 c0,-4 -3,-10 -7,-12 c-5,-1 -21,-23 -36,-46 c-40,-61 -67,-92 -182,-208 c-92,-93 -156,-144 -461,-369 c-59,-44 -132,-102 -162,-130 c-30,-27 -58,-51 -63,-53 c-9,-4 -120,-129 -156,-177 c-75,-98 -99,-134 -145,-212 c-97,-167 -174,-352 -259,-621 c-38,-119 -101,-402 -164,-737 c-66,-357 -110,-567 -146,-710 c-46,-183 -56,-217 -99,-341 c-23,-65 -44,-129 -47,-141 c-8,-35 11,-27 26,9 c26,67 110,329 131,410 c11,45 27,108 35,138 c22,87 70,317 115,550 c54,280 75,382 117,550 c83,336 192,617 325,838 c28,48 55,89 58,92 c3,3 22,28 40,55 c44,64 226,247 310,312 c36,27 130,94 210,148 c208,141 294,208 391,304 c107,107 163,177 235,294 c211,340 327,695 469,1427 c25,129 54,273 65,320 c10,47 26,119 35,160 c26,116 56,242 66,275 c85,278 114,356 198,525 c98,195 161,286 290,422 c112,118 292,264 409,333 c185,109 457,354 569,515 c111,159 217,352 268,490 c73,195 136,397 165,530 c5,19 18,78 29,130 c12,52 30,140 41,195 c50,248 63,314 75,375 c7,36 21,103 30,150 c77,380 180,711 285,920 c161,319 330,504 671,735 c57,39 132,91 168,118 l66,47 l-233,0 l-232,0 l-42,-37 zm462,23 c0,-3 -19,-18 -42,-34 c-24,-16 -78,-53 -121,-83 c-43,-30 -86,-58 -95,-64 c-9,-5 -19,-12 -22,-15 c-3,-3 -45,-35 -95,-72 c-97,-72 -244,-217 -317,-313 c-92,-122 -183,-289 -256,-470 c-43,-107 -52,-134 -82,-235 c-55,-189 -59,-204 -80,-300 c-11,-52 -25,-113 -30,-135 c-6,-22 -35,-166 -65,-320 c-85,-435 -85,-436 -135,-635 c-20,-79 -27,-106 -65,-235 c-34,-116 -59,-187 -107,-300 c-64,-154 -76,-177 -161,-315 c-128,-208 -218,-312 -402,-470 c-30,-26 -111,-83 -336,-240 c-138,-95 -245,-185 -332,-277 c-56,-59 -167,-196 -167,-206 c0,-3 -16,-29 -36,-59 c-19,-29 -64,-111 -98,-183 c-56,-114 -84,-185 -141,-350 c-16,-46 -81,-278 -88,-315 c-3,-14 -15,-68 -26,-120 c-12,-52 -56,-264 -97,-470 c-41,-206 -81,-400 -89,-430 c-112,-436 -160,-576 -272,-800 c-175,-349 -331,-524 -674,-755 c-325,-219 -443,-321 -582,-506 c-175,-233 -300,-516 -407,-922 c-7,-26 -15,-45 -17,-43 c-6,5 32,152 71,281 c34,114 88,259 126,340 c18,39 41,88 51,110 c106,234 305,479 527,650 c7,6 18,15 25,20 c7,6 87,65 178,131 c213,156 204,148 340,284 c313,312 487,719 633,1480 c8,41 24,122 35,180 c11,58 34,179 51,270 c189,1012 433,1478 975,1862 c314,223 499,394 622,577 c81,121 152,263 239,481 c27,68 101,321 128,440 c35,151 118,572 176,895 c61,339 181,729 301,980 c110,231 202,360 382,537 c76,75 144,141 150,147 c11,10 427,16 427,7 zm-5450,-9751 c-7,-30 -15,-53 -17,-51 c-3,2 1,29 8,60 c8,30 15,53 18,51 c2,-3 -2,-30 -9,-60 z" id="svg_19" fill="#ffffff" fill-opacity="0.10" stroke-width="7" stroke-dasharray="none" opacity="1" stroke="#131313" stroke-opacity="1" class=""/>
 <path d="M6228.550491333008,11564.00651550293 c-29,-30 -106,-89 -391,-300 c-385,-284 -607,-615 -776,-1160 c-68,-218 -118,-422 -163,-665 c-9,-49 -23,-121 -30,-160 c-8,-38 -21,-113 -30,-165 c-19,-106 -42,-220 -87,-420 c-127,-571 -319,-963 -595,-1220 c-127,-118 -188,-166 -378,-300 c-330,-233 -514,-442 -670,-765 c-35,-71 -71,-150 -80,-175 c-78,-214 -131,-379 -155,-490 c-5,-19 -18,-78 -30,-130 c-35,-157 -78,-370 -116,-585 c-14,-82 -29,-153 -69,-345 c-51,-240 -124,-502 -180,-646 c-29,-74 -129,-283 -167,-349 c-138,-241 -299,-401 -658,-656 c-114,-80 -110,-77 -220,-170 c-217,-182 -368,-396 -507,-719 c-101,-234 -196,-583 -277,-1020 c-82,-442 -95,-507 -153,-745 c-32,-137 -56,-224 -86,-316 c-13,-40 -13,-46 0,-46 c17,0 36,44 30,69 c-3,10 -1,16 3,13 c12,-7 33,62 27,86 c-3,10 -2,17 3,14 c11,-7 34,81 26,100 c-3,9 -2,14 3,11 c5,-3 23,54 40,127 c27,116 45,202 106,507 c114,569 154,724 270,1050 c27,76 143,305 191,375 c24,37 44,70 44,75 c0,5 3,10 8,12 c4,2 20,21 37,43 c105,141 254,276 465,420 c321,220 454,335 582,502 c255,333 398,716 544,1458 c7,39 22,113 33,165 c10,52 27,133 36,180 c124,624 256,983 478,1300 c79,112 165,203 302,319 c28,24 191,139 332,235 c40,27 80,56 90,65 c10,9 45,37 78,63 c122,93 300,300 378,440 c14,25 36,63 49,85 c47,75 162,344 203,473 c10,30 22,66 27,79 c14,38 95,360 117,468 c57,277 72,351 100,498 c157,804 343,1242 653,1541 c89,86 190,163 413,317 c209,145 186,105 183,312 l-3,176 l-30,-31 zm25,-157 l-1,-158 l-90,-65 c-49,-36 -96,-71 -104,-77 c-7,-7 -16,-13 -18,-13 c-5,0 -47,-29 -163,-109 c-150,-105 -322,-274 -412,-404 c-72,-106 -153,-256 -202,-377 c-51,-126 -86,-225 -119,-335 c-50,-170 -108,-425 -186,-825 c-13,-69 -34,-168 -45,-220 c-12,-52 -25,-116 -30,-141 c-52,-264 -170,-625 -275,-839 c-176,-359 -356,-558 -735,-815 c-329,-224 -469,-360 -621,-605 c-120,-194 -191,-363 -289,-685 c-40,-133 -87,-349 -195,-895 c-68,-342 -110,-510 -184,-725 c-108,-311 -186,-467 -333,-668 c-65,-87 -209,-237 -293,-303 c-27,-21 -52,-41 -55,-44 c-3,-3 -25,-19 -50,-36 c-25,-17 -73,-51 -108,-75 c-35,-24 -70,-48 -79,-54 c-10,-5 -22,-14 -27,-18 c-317,-236 -423,-345 -564,-579 c-50,-83 -129,-238 -150,-294 c-6,-16 -20,-54 -32,-84 c-52,-136 -115,-350 -156,-527 c-15,-67 -30,-120 -32,-118 c-12,12 99,452 152,604 c71,203 112,296 211,479 c56,103 195,285 275,360 c14,13 45,43 70,66 c25,23 97,81 160,127 c334,247 393,293 466,365 c147,145 256,295 340,467 c19,40 41,83 49,97 c19,36 78,190 114,295 c54,163 132,488 186,780 c9,50 22,122 30,160 c7,39 20,111 30,160 c20,110 50,258 71,345 c38,163 48,202 81,310 c105,350 241,627 412,840 c69,86 227,234 341,318 c63,47 176,131 250,186 c495,368 708,782 885,1721 c14,72 31,164 39,205 c8,41 22,116 31,165 c33,179 57,290 104,480 c36,148 49,190 99,336 c75,213 78,221 132,327 c135,264 206,367 365,528 c89,91 193,177 320,267 c144,101 291,213 319,244 c6,7 12,12 14,13 c1,0 2,-71 2,-157 zm-5555,-10153 c-4,-23 -9,-39 -11,-37 c-3,2 -2,23 2,46 c4,23 9,40 11,37 c3,-3 2,-23 -2,-46 zm-21,-94 c-3,-21 -8,-35 -11,-32 c-2,2 -1,20 3,40 c3,21 8,35 11,32 c2,-2 1,-20 -3,-40 z" id="svg_20" fill="#ffffff" fill-opacity="0.10" stroke-width="7" stroke-dasharray="none" opacity="1" stroke="#131313" stroke-opacity="1" class=""/>
 <path d="M6173.550491333008,11134.00651550293 c-161,-114 -345,-259 -420,-332 c-270,-261 -474,-658 -605,-1178 c-55,-221 -91,-391 -150,-720 c-44,-244 -47,-261 -102,-505 c-8,-38 -22,-90 -29,-114 c-8,-25 -14,-52 -14,-62 c0,-57 -168,-501 -229,-609 c-15,-25 -35,-62 -46,-83 c-35,-67 -169,-239 -247,-319 c-77,-77 -245,-210 -464,-368 c-268,-193 -481,-449 -617,-741 c-115,-244 -165,-397 -257,-784 c-18,-75 -78,-376 -104,-520 c-47,-264 -101,-519 -143,-675 c-14,-52 -29,-108 -33,-125 c-31,-122 -104,-314 -183,-475 c-155,-321 -310,-492 -697,-770 c-271,-195 -433,-350 -550,-527 c-107,-160 -218,-396 -290,-613 c-34,-102 -63,-204 -64,-226 c0,-23 -4,-40 -8,-38 c-3,2 -18,-49 -33,-114 c-48,-214 -65,-296 -161,-807 c-19,-104 -42,-217 -50,-250 c-24,-94 -35,-136 -41,-152 c-4,-10 -1,-14 7,-11 c14,4 25,41 64,223 c51,230 52,236 127,615 c92,468 186,783 312,1039 c179,367 368,564 822,858 c80,52 209,158 286,235 c74,74 201,233 246,308 c126,210 214,413 288,665 c37,128 45,155 64,235 c40,172 99,454 136,650 c9,47 23,117 31,155 c9,39 22,102 30,140 c106,500 257,873 462,1140 c117,152 257,273 532,460 c288,196 418,317 572,535 c42,60 138,216 138,226 c0,2 15,36 34,76 c40,86 94,223 129,328 c70,209 146,522 211,870 c150,800 267,1159 481,1480 c132,198 248,310 502,486 l153,107 l0,173 c0,96 -1,174 -2,174 c-2,0 -41,-27 -88,-60 zm70,-127 l0,-158 l-88,-59 c-343,-232 -513,-413 -664,-706 c-150,-291 -243,-607 -363,-1235 c-54,-286 -109,-538 -146,-672 c-12,-43 -25,-91 -29,-108 c-11,-45 -84,-261 -113,-335 c-104,-270 -256,-510 -431,-685 c-115,-114 -176,-161 -458,-354 c-194,-134 -322,-246 -421,-371 c-28,-36 -54,-67 -57,-70 c-22,-20 -129,-202 -176,-300 c-90,-188 -146,-346 -212,-605 c-47,-181 -51,-199 -137,-635 c-84,-423 -127,-606 -189,-805 c-140,-452 -357,-797 -646,-1030 c-41,-33 -76,-63 -78,-67 c-2,-5 -8,-8 -14,-8 c-6,0 -27,-13 -47,-28 c-20,-16 -94,-69 -166,-117 c-71,-48 -132,-91 -135,-94 c-3,-4 -32,-28 -65,-53 c-138,-107 -255,-238 -361,-403 c-43,-66 -146,-270 -175,-344 c-7,-19 -14,-30 -16,-24 c-6,17 112,268 174,372 c129,217 293,398 494,544 c421,305 496,371 642,565 c216,289 377,727 492,1337 c9,50 23,122 30,160 c7,39 21,113 30,165 c30,172 93,469 132,615 c19,75 115,373 141,440 c57,146 158,332 254,468 c129,181 243,287 548,512 c289,213 406,323 532,502 c75,106 168,288 226,443 c73,195 95,271 177,615 c19,77 68,329 100,515 c19,106 57,301 79,400 c43,192 47,209 102,400 c68,238 190,514 303,686 c28,42 51,80 51,83 c0,3 10,17 23,31 c12,14 40,48 62,75 c53,65 153,164 239,234 c55,45 344,257 354,260 c1,1 2,-70 2,-156 zm-5204,-9320 c-8,-15 -15,-25 -16,-21 c0,12 23,58 27,54 c3,-2 -2,-17 -11,-33 z" id="svg_21" fill="#ffffff" fill-opacity="0.10" stroke-width="7" stroke-dasharray="none" opacity="1" stroke="#131313" stroke-opacity="1" class=""/>
 <path d="M6152.550491333008,10695.00651550293 c-219,-165 -389,-352 -521,-573 c-60,-102 -133,-248 -162,-324 c-7,-21 -24,-64 -35,-94 c-24,-61 -77,-224 -110,-340 c-45,-159 -88,-364 -166,-785 c-47,-255 -59,-314 -97,-480 c-71,-313 -175,-609 -272,-775 c-20,-33 -36,-63 -36,-66 c0,-11 -75,-120 -136,-199 c-34,-44 -104,-120 -156,-170 c-88,-84 -138,-124 -438,-347 c-139,-103 -172,-131 -268,-228 c-204,-206 -372,-503 -490,-870 c-83,-258 -134,-475 -216,-925 c-139,-757 -224,-1037 -428,-1415 c-27,-50 -101,-153 -173,-239 c-86,-104 -189,-197 -349,-315 c-64,-47 -167,-124 -230,-171 c-126,-93 -295,-254 -374,-356 c-133,-171 -256,-412 -337,-659 c-20,-63 -43,-133 -51,-155 c-13,-39 -67,-260 -84,-339 c-50,-245 -90,-456 -115,-596 c-9,-52 -23,-125 -31,-162 c-17,-83 -18,-98 -1,-98 c10,0 33,100 81,343 c70,353 78,389 121,567 c160,664 392,1063 780,1345 c15,11 47,35 70,53 c24,17 46,32 49,32 c3,0 58,37 123,82 c198,137 292,218 409,353 c60,69 164,215 164,230 c0,5 6,16 14,24 c8,9 31,50 52,91 c37,70 51,101 105,225 c56,129 157,474 203,690 c9,44 25,118 36,165 c21,99 37,178 86,425 c145,743 330,1187 615,1482 c67,69 203,185 264,225 c22,15 72,49 110,77 c39,28 77,54 85,58 c41,18 254,188 331,265 c176,174 352,450 442,693 c124,332 169,505 277,1045 c33,162 69,338 80,390 c12,52 24,109 27,125 c3,17 16,71 29,120 c13,50 26,101 30,115 c15,62 89,287 114,345 c97,230 260,485 392,612 c88,84 109,103 206,176 c51,38 90,72 88,75 c-4,4 -44,-21 -86,-55 c-133,-105 -175,-142 -230,-200 c-72,-76 -150,-168 -150,-178 c0,-3 -12,-22 -27,-42 c-46,-59 -155,-264 -208,-388 c-41,-97 -127,-376 -155,-505 c-5,-19 -18,-78 -29,-130 c-12,-52 -39,-185 -61,-295 c-80,-404 -89,-447 -137,-645 c-90,-375 -186,-627 -347,-915 c-26,-46 -103,-153 -154,-213 c-128,-151 -254,-258 -502,-427 c-257,-174 -389,-289 -497,-430 c-21,-28 -41,-51 -45,-53 c-5,-2 -8,-7 -8,-12 c0,-4 -20,-37 -44,-73 c-47,-70 -136,-246 -181,-357 c-42,-103 -121,-347 -145,-445 c-12,-49 -30,-124 -39,-165 c-10,-41 -26,-113 -36,-160 c-9,-47 -23,-114 -30,-150 c-7,-36 -20,-101 -29,-145 c-126,-643 -222,-974 -364,-1262 c-47,-95 -123,-227 -134,-231 c-5,-2 -8,-8 -8,-13 c0,-10 -60,-93 -105,-144 c-120,-138 -252,-248 -490,-410 c-232,-158 -384,-288 -481,-410 c-21,-27 -41,-52 -44,-55 c-11,-10 -80,-110 -80,-116 c0,-3 -15,-29 -34,-57 c-31,-48 -76,-137 -141,-282 c-26,-57 -99,-266 -115,-330 c-4,-16 -21,-79 -37,-140 c-17,-60 -38,-148 -48,-195 c-25,-118 -43,-188 -44,-169 c-1,10 10,70 24,135 c14,66 29,133 32,149 c25,130 113,423 165,555 c42,106 122,272 165,344 c104,172 253,347 381,448 c37,29 69,55 72,59 c5,7 100,75 195,141 c33,23 62,44 65,47 c3,4 32,26 65,51 c104,77 265,230 325,310 c19,25 37,47 40,50 c23,19 107,154 157,250 c159,307 241,587 368,1255 c31,167 95,493 110,563 c44,210 134,499 207,671 c37,89 121,259 151,306 c51,82 146,212 199,271 c72,81 232,225 304,274 c27,19 51,36 54,39 c3,4 46,35 95,70 c276,197 438,361 567,571 c100,164 117,199 196,395 c11,28 40,118 65,200 c39,135 54,190 102,400 c8,33 28,134 45,225 c49,268 92,489 136,700 c71,339 209,724 339,945 c19,33 38,67 42,75 c12,24 64,100 117,170 c73,96 247,264 366,354 c125,94 125,94 119,101 c-3,2 -52,-31 -110,-74 zm-5178,-10186 c-11,-49 -20,-82 -20,-71 c-1,27 33,192 37,175 c1,-8 -6,-54 -17,-104 z" id="svg_22" fill="#ffffff" fill-opacity="0.10" stroke-width="7" stroke-dasharray="none" opacity="1" stroke="#131313" stroke-opacity="1" class=""/>
 <path d="M6208.550491333008,10342.00651550293 c-332,-279 -542,-615 -690,-1103 c-78,-257 -117,-432 -230,-1050 c-9,-49 -20,-108 -25,-130 c-5,-22 -18,-87 -30,-145 c-46,-228 -119,-474 -193,-655 c-62,-151 -90,-204 -210,-400 c-33,-53 -127,-164 -204,-240 c-81,-80 -144,-130 -428,-340 c-148,-110 -169,-128 -272,-232 c-248,-252 -413,-555 -546,-1003 c-9,-30 -23,-77 -31,-105 c-8,-27 -24,-93 -36,-145 c-11,-52 -25,-111 -29,-130 c-5,-19 -19,-87 -31,-150 c-11,-63 -29,-158 -40,-210 c-10,-52 -25,-133 -34,-180 c-136,-726 -237,-1033 -459,-1395 c-85,-139 -313,-368 -472,-475 c-27,-19 -52,-37 -55,-40 c-3,-3 -54,-41 -114,-85 c-60,-43 -123,-89 -140,-104 c-61,-51 -231,-222 -253,-254 c-13,-18 -31,-42 -40,-53 c-73,-80 -204,-310 -265,-464 c-85,-213 -160,-468 -212,-715 c-65,-312 -104,-535 -93,-525 c3,3 22,91 42,195 c20,105 42,219 50,255 c8,36 22,101 31,145 c9,44 30,127 47,185 c16,58 32,119 36,135 c34,132 161,446 228,560 c150,255 304,427 542,602 c361,268 448,343 591,508 c124,144 271,432 361,709 c41,127 121,459 158,656 c152,807 198,1008 288,1255 c14,39 32,87 40,109 c36,101 123,275 198,395 c143,231 304,392 610,612 c50,35 95,67 100,72 c134,102 164,127 245,207 c265,262 435,604 570,1150 c21,83 46,198 60,275 c5,28 18,97 29,155 c11,58 31,168 45,245 c14,77 28,151 30,165 c3,14 18,88 35,165 c26,125 40,181 95,386 c77,288 245,658 373,819 c6,8 35,44 63,80 c64,82 165,185 253,258 c37,31 67,60 67,64 c0,12 -1,11 -55,-34 z" id="svg_23" fill="#ffffff" fill-opacity="0.10" stroke-width="7" stroke-dasharray="none" opacity="1" stroke="#131313" stroke-opacity="1" class=""/>
 <path d="M6242.550491333008,10031.00651550293 c-87,-64 -298,-288 -317,-337 c-3,-8 -18,-33 -33,-55 c-112,-166 -236,-482 -319,-815 c-31,-123 -147,-672 -167,-790 c-5,-28 -23,-116 -48,-230 c-36,-162 -110,-420 -175,-605 c-28,-78 -133,-300 -186,-390 c-69,-119 -157,-236 -245,-326 c-136,-139 -161,-158 -449,-354 c-80,-54 -177,-124 -216,-156 c-109,-89 -254,-248 -330,-361 c-166,-249 -279,-540 -379,-973 c-36,-157 -52,-232 -125,-600 c-21,-110 -49,-243 -61,-295 c-11,-52 -23,-106 -26,-120 c-15,-72 -77,-290 -113,-395 c-76,-222 -163,-403 -274,-573 c-46,-70 -218,-278 -235,-284 c-5,-1 -30,-22 -54,-45 c-51,-48 -157,-126 -361,-264 c-142,-96 -338,-256 -368,-300 c-9,-13 -33,-42 -54,-64 c-91,-97 -213,-301 -304,-510 c-98,-223 -180,-518 -261,-935 c-11,-58 -27,-134 -35,-169 c-13,-54 -13,-85 -1,-70 c4,4 61,287 78,384 c14,79 105,431 137,530 c121,368 279,648 483,855 c96,97 177,160 374,295 c175,119 266,188 351,265 c291,264 496,654 627,1190 c59,241 92,394 137,630 c178,944 350,1366 691,1695 c78,75 278,235 293,235 c13,0 292,202 361,260 c133,114 249,248 336,390 c19,31 40,64 46,75 c29,46 134,267 166,350 c73,189 184,586 216,775 c9,47 88,445 117,585 c77,371 164,656 265,875 c119,258 241,423 429,582 c30,26 53,49 50,51 c-3,3 -12,0 -21,-6 z" id="svg_24" fill="#ffffff" fill-opacity="0.10" stroke-width="7" stroke-dasharray="none" opacity="1" stroke="#131313" stroke-opacity="1" class=""/>
 <path d="M6188.550491333008,9883.00651550293 c-159,-166 -285,-362 -397,-614 c-119,-270 -200,-568 -304,-1125 c-16,-83 -32,-166 -73,-380 c-92,-472 -179,-753 -314,-1011 c-106,-203 -279,-413 -457,-554 c-92,-74 -75,-61 -200,-150 c-185,-132 -253,-187 -361,-295 c-331,-328 -522,-758 -669,-1505 c-20,-104 -26,-135 -85,-450 c-111,-589 -202,-895 -359,-1205 c-34,-66 -121,-201 -179,-278 c-50,-65 -273,-274 -367,-343 c-63,-47 -169,-125 -235,-174 c-115,-85 -290,-249 -367,-345 c-97,-119 -207,-308 -275,-470 c-91,-219 -165,-464 -217,-720 c-10,-47 -24,-113 -32,-147 c-17,-74 -18,-103 -4,-103 c13,0 13,1 35,110 c117,571 282,972 523,1271 c100,124 274,271 492,414 c131,87 278,198 351,267 c95,89 224,248 286,353 c25,42 142,283 163,335 c12,30 26,66 32,80 c74,182 159,512 244,945 c60,308 115,564 151,700 c74,281 208,614 307,763 c20,30 36,56 36,58 c0,17 132,173 206,244 c111,106 191,169 369,288 c352,237 507,392 675,676 c149,252 265,571 355,976 c9,41 21,95 26,119 c6,25 23,111 39,191 c16,80 33,166 39,191 c5,24 17,82 26,129 c83,437 181,769 300,1012 c80,165 165,296 248,385 c70,75 68,65 65,259 l-3,176 l-70,-73 zm65,-119 l0,-161 l-32,-32 c-150,-150 -317,-448 -407,-727 c-12,-36 -27,-81 -33,-100 c-6,-19 -15,-48 -19,-65 c-4,-16 -19,-75 -34,-130 c-29,-110 -64,-272 -126,-585 c-147,-748 -251,-1086 -431,-1402 c-89,-157 -189,-290 -297,-398 c-108,-108 -189,-172 -371,-295 c-342,-231 -452,-333 -605,-560 c-143,-211 -269,-522 -356,-880 c-53,-219 -73,-311 -155,-730 c-73,-378 -166,-712 -254,-920 c-94,-221 -203,-416 -286,-515 c-74,-87 -123,-140 -163,-178 c-60,-56 -282,-223 -396,-297 c-49,-32 -92,-61 -95,-64 c-3,-3 -32,-26 -65,-51 c-103,-76 -235,-201 -303,-285 c-103,-128 -245,-383 -312,-559 c-19,-49 -36,-84 -37,-79 c-4,12 96,264 139,348 c98,193 200,336 338,475 c124,125 152,149 251,221 c283,204 329,240 447,354 c112,107 231,258 290,365 c176,319 276,632 386,1210 c19,102 49,259 67,350 c53,283 67,350 108,510 c57,223 104,366 176,535 c26,62 114,237 135,270 c11,17 23,37 27,45 c4,8 38,58 77,110 c97,133 256,286 430,415 c82,61 193,143 247,184 c439,326 666,758 823,1566 c36,183 46,235 65,340 c12,61 28,148 37,195 c8,47 22,114 29,150 c8,36 22,101 31,145 c9,44 25,112 36,150 c10,39 26,97 35,130 c92,345 241,670 406,888 c55,72 184,217 193,217 c2,0 4,-72 4,-160 zm-4790,-9075 c-16,-47 -23,-40 -8,8 c6,20 13,35 16,33 c2,-3 -1,-21 -8,-41 zm-31,-94 c-7,-23 -14,-39 -16,-37 c-3,2 1,23 8,45 c7,23 14,39 16,37 c3,-2 -1,-23 -8,-45 z" id="svg_25" fill="#ffffff" fill-opacity="0.10" stroke-width="7" stroke-dasharray="none" opacity="1" stroke="#131313" stroke-opacity="1" class=""/>
 <path d="M6227.550491333008,9470.00651550293 c-86,-115 -167,-246 -228,-370 c-38,-76 -72,-150 -76,-165 c-5,-14 -18,-51 -30,-81 c-84,-211 -178,-576 -244,-945 c-167,-926 -258,-1230 -473,-1577 c-134,-217 -254,-337 -553,-558 c-251,-185 -286,-213 -391,-318 c-153,-156 -254,-300 -363,-523 c-41,-85 -82,-174 -91,-199 c-101,-289 -175,-575 -239,-925 c-130,-704 -166,-861 -264,-1155 c-52,-157 -170,-403 -248,-521 c-144,-215 -267,-334 -574,-553 c-174,-125 -317,-243 -386,-320 c-224,-247 -379,-543 -500,-956 c-14,-46 -23,-92 -21,-102 c3,-10 2,-16 -2,-13 c-5,2 -14,-21 -21,-53 c-6,-31 -16,-70 -21,-86 c-11,-37 -12,-36 6,-36 c8,0 15,2 15,5 c0,3 11,49 25,102 c14,54 24,106 21,116 c-2,9 -1,15 3,12 c5,-2 13,15 20,38 c61,213 192,512 296,672 c138,214 285,351 611,575 c240,165 413,315 506,439 c23,31 54,72 69,92 c119,156 271,495 345,769 c48,176 85,331 108,445 c14,72 33,164 41,205 c8,41 26,131 40,200 c56,282 96,456 142,615 c45,158 93,304 109,335 c7,14 29,63 50,110 c47,105 146,274 210,359 c62,82 200,222 289,292 c39,31 133,98 211,151 c134,91 253,175 264,187 c3,3 25,22 50,42 c113,92 307,317 369,431 c199,362 292,637 407,1198 c9,41 22,102 29,135 c8,33 18,87 24,120 c27,161 121,581 151,680 c5,17 24,77 41,135 c68,223 154,413 271,596 l38,61 l-2,190 l-3,190 l-31,-41 zm-2,-371 c-56,-78 -147,-254 -204,-395 c-59,-142 -139,-412 -183,-610 c-9,-41 -21,-94 -26,-118 c-5,-24 -36,-178 -69,-342 c-124,-621 -191,-862 -319,-1157 c-52,-121 -136,-274 -181,-333 c-15,-19 -31,-42 -36,-51 c-53,-97 -354,-384 -476,-454 c-10,-5 -71,-47 -137,-91 c-385,-264 -550,-461 -730,-872 c-44,-100 -61,-148 -109,-307 c-37,-122 -113,-433 -132,-540 c-5,-27 -22,-115 -39,-195 c-16,-80 -39,-192 -50,-250 c-47,-236 -101,-461 -154,-635 c-23,-74 -34,-105 -74,-210 c-8,-22 -19,-49 -23,-60 c-47,-124 -166,-332 -266,-465 c-133,-176 -232,-264 -529,-470 c-223,-154 -298,-213 -399,-314 c-90,-91 -190,-221 -248,-324 c-17,-29 -33,-51 -35,-48 c-7,6 83,155 144,237 c106,145 252,287 421,409 c311,224 344,250 472,380 c161,163 307,399 414,672 c56,143 141,450 181,658 c9,47 25,126 35,175 c10,50 26,131 35,180 c9,50 22,122 30,160 c7,39 21,111 30,160 c51,279 146,638 215,815 c12,30 24,64 27,74 c11,35 135,280 164,324 c16,24 29,45 29,47 c0,2 35,51 77,107 c134,179 303,332 588,532 c412,290 636,625 798,1191 c19,66 42,154 51,195 c10,41 21,93 26,115 c17,76 66,328 105,540 c48,263 72,375 112,540 c49,196 105,381 151,495 c6,14 20,50 32,80 c27,68 131,276 166,333 c15,23 52,76 83,118 l56,77 l3,-166 l3,-166 l-29,-41 zm-4471,-8352 c-11,-21 -20,-35 -21,-31 c0,12 33,78 38,74 c2,-2 -6,-21 -17,-43 z" id="svg_26" fill="#ffffff" fill-opacity="0.10" stroke-width="7" stroke-dasharray="none" opacity="1" stroke="#131313" stroke-opacity="1" class=""/>
 <path d="M6255.550491333008,8994.00651550293 c-2,-8 -3,-104 -2,-213 l1,-198 l-45,-97 c-107,-234 -187,-507 -267,-912 c-96,-482 -125,-627 -139,-680 c-5,-19 -17,-66 -26,-105 c-18,-77 -72,-261 -109,-370 c-137,-410 -334,-720 -597,-941 c-74,-62 -195,-151 -257,-189 c-222,-137 -465,-352 -576,-510 c-27,-38 -52,-72 -55,-75 c-8,-8 -30,-47 -83,-149 c-120,-231 -225,-544 -302,-901 c-28,-129 -44,-204 -48,-230 c-2,-14 -18,-95 -36,-180 c-17,-85 -38,-191 -47,-235 c-23,-115 -44,-210 -66,-290 c-10,-38 -26,-97 -34,-130 c-24,-90 -85,-286 -100,-320 c-7,-16 -29,-70 -49,-120 c-98,-240 -224,-433 -395,-606 c-140,-142 -173,-168 -420,-334 c-96,-65 -177,-121 -180,-124 c-3,-3 -37,-32 -77,-64 c-155,-125 -316,-327 -413,-519 c-19,-37 -36,-65 -38,-63 c-6,6 99,203 153,285 c60,94 124,173 225,279 c14,15 59,55 100,90 c104,88 111,93 150,120 c162,112 337,249 429,336 c58,55 211,228 211,238 c0,2 21,35 46,73 c54,81 173,320 205,414 c12,36 31,90 41,120 c64,184 117,404 188,785 c60,320 70,370 97,500 c44,216 54,259 75,335 c11,41 26,98 33,125 c8,28 29,95 48,150 c146,425 332,724 597,960 c52,46 93,77 351,266 c210,155 332,276 461,460 c50,71 182,316 199,368 c4,15 17,51 29,81 c80,208 153,506 244,1000 c70,377 84,447 136,660 c39,161 90,329 140,460 c12,30 25,66 29,80 c14,42 106,232 135,278 c15,24 25,49 23,55 c-5,16 -71,-104 -133,-243 c-48,-108 -133,-347 -166,-470 c-66,-240 -104,-413 -163,-740 c-97,-539 -156,-784 -270,-1110 c-34,-98 -158,-330 -227,-426 c-146,-203 -251,-302 -543,-514 c-93,-68 -199,-148 -235,-179 c-287,-246 -483,-562 -636,-1028 c-52,-156 -121,-447 -169,-708 c-9,-49 -23,-121 -30,-160 c-8,-38 -21,-113 -30,-165 c-83,-477 -201,-888 -329,-1145 c-163,-329 -317,-497 -726,-795 c-123,-90 -156,-115 -216,-166 c-270,-226 -465,-539 -610,-982 c-39,-119 -38,-112 -21,-112 c16,0 71,165 61,182 c-4,6 -3,8 3,5 c14,-9 37,48 29,70 c-4,10 -4,14 0,11 c3,-4 43,66 88,155 c178,352 328,515 707,769 c318,213 462,347 612,570 c65,98 197,348 216,412 c6,17 22,63 36,101 c15,39 30,84 35,100 c5,17 18,62 30,100 c32,110 96,362 115,455 c27,134 43,215 71,355 c75,376 102,495 155,677 c65,227 109,346 195,523 c99,204 168,301 323,455 c121,121 173,161 457,355 c423,289 640,591 830,1155 c31,92 107,376 124,460 c5,25 19,88 30,140 c11,52 32,154 46,225 c72,366 88,441 120,575 c63,257 115,416 195,596 l49,110 l-3,220 c-1,120 -4,212 -5,204 z" id="svg_27" fill="#ffffff" fill-opacity="0.10" stroke-width="7" stroke-dasharray="none" opacity="1" stroke="#131313" stroke-opacity="1" class=""/>
 <path d="M6245.550491333008,8389.00651550293 c-6,-17 -20,-55 -32,-85 c-102,-261 -187,-599 -275,-1090 c-9,-52 -23,-126 -30,-165 c-8,-38 -26,-131 -40,-205 c-52,-273 -128,-553 -200,-735 c-9,-22 -19,-49 -22,-60 c-12,-36 -115,-239 -144,-283 c-16,-24 -29,-45 -29,-47 c0,-2 -33,-48 -74,-102 c-84,-112 -141,-173 -241,-258 c-38,-33 -75,-64 -81,-70 c-7,-5 -25,-19 -40,-30 c-165,-116 -398,-300 -474,-376 c-241,-238 -395,-504 -536,-926 c-68,-207 -139,-524 -230,-1028 c-73,-404 -159,-754 -232,-935 c-6,-14 -20,-50 -32,-80 c-53,-134 -140,-294 -223,-410 c-138,-194 -291,-334 -647,-588 c-68,-49 -162,-127 -248,-207 c-81,-74 -206,-238 -285,-373 c-38,-65 -46,-89 -25,-76 c7,4 8,3 4,-5 c-4,-6 -11,-9 -16,-6 c-12,8 -33,-33 -26,-51 c3,-9 1,-12 -4,-9 c-6,4 -19,-14 -30,-39 c-11,-25 -29,-66 -40,-91 c-19,-44 -19,-45 0,-45 c21,0 47,61 34,81 c-4,8 -3,9 4,5 c14,-8 35,30 28,50 c-3,8 -2,12 3,9 c6,-3 22,18 36,47 c36,71 162,262 210,318 c116,135 270,263 486,405 c57,38 116,78 130,89 c15,12 39,30 55,41 c319,226 542,563 709,1071 c68,207 116,413 241,1039 c81,409 167,712 264,930 c89,202 152,309 275,465 c11,14 60,66 110,116 c106,107 167,153 405,311 c407,269 591,490 790,948 c71,162 162,463 215,707 c35,160 86,406 95,453 c44,242 119,572 160,705 c11,36 19,74 19,85 c-3,58 -106,-348 -165,-650 c-9,-44 -22,-109 -29,-145 c-7,-36 -21,-103 -30,-150 c-17,-82 -39,-188 -72,-335 c-20,-91 -68,-270 -98,-365 c-78,-248 -145,-403 -262,-610 c-97,-171 -270,-368 -428,-488 c-35,-27 -138,-98 -245,-171 c-315,-213 -446,-338 -592,-561 c-152,-234 -294,-617 -382,-1035 c-9,-44 -23,-109 -31,-145 c-7,-36 -21,-103 -30,-150 c-9,-47 -25,-128 -36,-180 c-11,-52 -27,-131 -36,-175 c-146,-720 -345,-1174 -647,-1476 c-111,-111 -185,-170 -381,-304 c-209,-142 -304,-216 -395,-306 c-100,-99 -135,-142 -213,-257 c-95,-141 -92,-128 6,28 c138,219 246,320 711,663 c16,12 43,33 60,47 c17,14 42,34 56,45 c70,56 234,234 295,321 c168,236 286,517 379,898 c47,192 82,362 131,636 c79,434 135,683 207,910 c181,569 406,881 878,1217 c63,45 153,113 200,150 c349,279 569,671 708,1263 c41,175 63,283 116,570 c117,631 181,888 291,1170 c20,51 34,97 32,103 c-2,6 -8,-2 -15,-18 z" id="svg_28" fill="#ffffff" fill-opacity="0.10" stroke-width="7" stroke-dasharray="none" opacity="1" stroke="#131313" stroke-opacity="1" class=""/>

 <path d="M74.55049133300781,7099.00651550293 c-13,-14 -21,-28 -18,-32 c7,-6 57,37 57,50 c0,14 -15,7 -39,-18 z" id="svg_30" fill="#ffffff" fill-opacity="0.10" stroke-width="7" stroke-dasharray="none" opacity="1" stroke="#131313" stroke-opacity="1" class=""/>
 <path d="M6251.550491333008,6704.00651550293 c-6,-14 -12,-48 -53,-280 c-43,-246 -131,-626 -161,-698 c-8,-19 -14,-41 -14,-48 c0,-19 -86,-237 -124,-314 c-77,-153 -120,-228 -190,-325 c-54,-74 -211,-238 -286,-297 c-86,-68 -222,-169 -240,-178 c-10,-5 -24,-16 -32,-22 c-7,-7 -40,-33 -73,-58 c-136,-101 -281,-243 -372,-364 c-226,-301 -365,-634 -482,-1156 c-21,-94 -68,-340 -136,-705 c-98,-529 -187,-822 -341,-1121 c-134,-260 -276,-428 -519,-617 c-5,-4 -102,-77 -215,-162 c-215,-161 -414,-345 -374,-345 c11,0 33,14 50,31 c71,76 197,173 434,334 c233,159 353,262 461,395 c89,109 91,113 186,265 c35,55 106,205 146,305 c49,121 133,388 157,500 c5,19 18,78 29,130 c33,147 47,214 107,510 c145,720 255,1042 462,1353 c62,92 201,261 221,269 c5,2 29,21 53,43 c54,51 201,162 266,200 c58,35 239,161 292,203 c85,67 266,257 326,342 c176,249 327,601 419,980 c13,55 15,127 13,455 c-2,215 -6,383 -10,375 zm-19,-833 c-71,-280 -136,-458 -248,-687 c-96,-194 -193,-332 -336,-476 c-114,-116 -185,-172 -395,-312 c-265,-178 -418,-311 -528,-457 c-257,-344 -372,-665 -542,-1515 c-68,-339 -87,-431 -100,-480 c-5,-19 -17,-66 -26,-105 c-147,-609 -374,-1008 -736,-1301 c-54,-43 -277,-199 -357,-249 c-8,-5 -43,-30 -76,-54 c-33,-25 -52,-35 -41,-23 c18,21 86,73 320,247 c156,115 163,121 291,250 c126,126 213,250 308,437 c59,116 127,276 159,378 c8,25 20,62 27,82 c43,132 118,466 166,738 c9,52 25,138 35,190 c10,52 26,136 35,185 c32,172 106,488 135,580 c49,151 68,204 105,295 c58,143 111,249 168,337 c15,24 27,45 27,48 c0,3 17,29 37,57 c129,182 252,304 483,476 c85,64 189,141 230,171 c90,68 262,232 311,298 c158,213 269,432 360,715 c44,137 117,448 154,658 c10,52 23,125 31,162 c8,37 15,80 16,95 c2,15 4,-126 5,-315 c3,-320 2,-348 -18,-425 z" id="svg_31" fill="#ffffff" fill-opacity="0.10" stroke-width="7" stroke-dasharray="none" opacity="1" stroke="#131313" stroke-opacity="1" class=""/>
 <path d="M6235.550491333008,5577.00651550293 c-101,-413 -281,-752 -531,-1004 c-81,-81 -273,-235 -409,-327 c-33,-23 -66,-47 -73,-54 c-8,-7 -37,-31 -64,-53 c-78,-62 -212,-194 -268,-265 c-28,-36 -54,-67 -58,-70 c-11,-8 -124,-191 -161,-260 c-142,-269 -264,-664 -352,-1140 c-126,-683 -143,-765 -215,-1030 c-85,-315 -242,-646 -394,-835 c-108,-133 -329,-329 -507,-448 c-84,-56 -108,-77 -89,-77 c8,0 24,8 35,18 c10,9 65,50 122,91 c57,41 109,79 115,85 c7,6 41,34 77,63 c126,100 262,254 362,408 c48,74 156,289 184,365 c42,118 93,271 109,330 c56,205 55,203 99,415 c8,39 22,111 31,160 c9,50 25,133 35,185 c10,52 26,138 35,190 c9,52 22,124 30,160 c7,36 21,103 30,150 c10,47 26,117 36,155 c11,39 27,97 35,130 c93,347 237,660 415,900 c95,127 238,261 444,415 c322,239 409,315 514,445 c62,77 131,172 131,180 c0,3 18,34 39,68 c37,58 82,148 131,262 c55,127 147,439 138,467 c-2,6 -14,-30 -26,-79 z" id="svg_32" fill="#ffffff" fill-opacity="0.10" stroke-width="7" stroke-dasharray="none" opacity="1" stroke="#131313" stroke-opacity="1" class=""/>
 <path d="M125.55049133300781,5101.00651550293 c-54,-54 -92,-101 -92,-112 c0,-15 14,-6 58,40 c31,33 71,71 87,83 c17,13 30,30 30,37 c0,7 6,20 14,29 c7,9 9,16 5,16 c-5,0 -51,-42 -102,-93 z" id="svg_33" fill="#ffffff" fill-opacity="0.10" stroke-width="7" stroke-dasharray="none" opacity="1" stroke="#131313" stroke-opacity="1" class=""/>
 <path d="M6234.550491333008,5081.00651550293 c-35,-91 -89,-202 -138,-285 c-24,-40 -43,-75 -43,-77 c0,-11 -110,-157 -170,-225 c-83,-95 -81,-93 -170,-169 c-114,-96 -120,-101 -126,-101 c-3,0 -23,-13 -43,-28 c-20,-16 -94,-69 -166,-117 c-288,-195 -414,-313 -549,-515 c-229,-342 -332,-656 -506,-1545 c-115,-587 -209,-896 -367,-1203 c-156,-304 -335,-494 -683,-726 c-63,-42 -108,-76 -101,-76 c7,0 47,23 89,51 c314,211 476,365 621,589 c46,71 170,318 196,390 c66,180 118,347 149,475 c60,247 64,266 101,452 c110,564 158,768 236,1003 c51,153 67,197 78,218 c5,9 27,53 48,97 c47,99 120,225 181,313 c65,93 272,299 362,360 c463,313 532,368 671,532 c134,157 296,432 348,593 c21,63 7,59 -18,-6 z" id="svg_34" fill="#ffffff" fill-opacity="0.10" stroke-width="7" stroke-dasharray="none" opacity="1" stroke="#131313" stroke-opacity="1" class=""/>
 <path d="M6243.550491333008,4893.00651550293 c0,-27 -122,-256 -194,-364 c-109,-164 -257,-310 -491,-485 c-342,-256 -393,-301 -544,-485 c-231,-283 -419,-779 -536,-1420 c-9,-49 -23,-121 -30,-160 c-7,-38 -23,-124 -35,-190 c-21,-116 -53,-278 -86,-435 c-80,-383 -219,-744 -381,-992 c-26,-40 -50,-75 -53,-78 c-3,-3 -21,-25 -40,-50 c-19,-25 -72,-84 -119,-132 c-46,-49 -80,-88 -75,-88 c12,0 145,136 206,210 c108,132 262,415 328,605 c68,195 140,467 185,705 c9,47 25,128 35,180 c10,52 26,136 34,185 c145,819 291,1252 535,1591 c135,187 261,306 537,507 c182,133 228,170 354,297 c91,91 188,215 253,325 c18,31 110,218 120,245 c3,8 6,-63 6,-158 l1,-174 l-36,-65 c-60,-110 -142,-212 -273,-343 c-120,-120 -200,-183 -421,-330 c-275,-183 -436,-335 -554,-520 c-27,-41 -56,-86 -65,-100 c-20,-29 -109,-213 -135,-280 c-10,-25 -23,-56 -28,-70 c-62,-158 -136,-428 -197,-720 c-12,-58 -28,-134 -36,-170 c-7,-36 -21,-103 -30,-150 c-30,-156 -74,-353 -121,-544 c-91,-362 -223,-675 -381,-905 c-77,-111 -100,-138 -207,-243 c-44,-43 -74,-78 -68,-78 c17,0 161,145 219,220 c122,158 232,357 307,555 c21,55 45,116 52,135 c40,100 131,452 174,670 c12,58 25,123 30,145 c4,22 15,76 24,120 c129,660 246,1030 412,1309 c56,95 117,181 173,246 c55,64 67,76 146,148 c65,60 267,212 281,212 c3,0 23,14 44,30 c21,17 41,30 44,30 c7,0 129,86 206,146 c55,42 140,123 217,206 c49,53 173,216 181,238 c3,8 16,32 29,52 c22,36 23,46 23,233 c0,123 -4,195 -10,195 c-5,0 -10,-5 -10,-11 z" id="svg_35" fill="#ffffff" fill-opacity="0.10" stroke-width="7" stroke-dasharray="none" opacity="1" stroke="#131313" stroke-opacity="1" class=""/>
 <path d="M248.5504913330078,4794.00651550293 c-3,-5 -3,-16 1,-22 c4,-7 3,-10 -1,-5 c-5,4 -21,-5 -37,-20 c-31,-29 -39,-54 -10,-32 c15,13 16,12 3,-3 c-7,-10 -17,-16 -21,-13 c-15,9 -150,-174 -150,-203 c0,-7 5,-12 10,-12 c6,0 10,5 10,11 c0,14 110,157 154,198 c35,34 49,59 24,45 c-8,-4 -9,-3 -5,2 c5,5 16,9 25,9 c11,0 17,9 19,28 c2,27 -10,36 -22,17 z" id="svg_36" fill="#ffffff" fill-opacity="0.10" stroke-width="7" stroke-dasharray="none" opacity="1" stroke="#131313" stroke-opacity="1" class=""/>
 <path d="M6196.550491333008,4219.00651550293 c-138,-199 -288,-340 -591,-553 c-98,-69 -183,-142 -288,-246 c-177,-176 -288,-340 -400,-591 c-143,-318 -210,-572 -340,-1290 c-87,-482 -170,-821 -249,-1019 c-14,-35 -25,-65 -25,-69 c0,-16 -123,-260 -170,-337 c-29,-47 -54,-88 -57,-92 c-2,-5 0,-8 5,-8 c16,0 144,227 199,354 c137,310 197,548 348,1371 c42,226 88,446 110,521 c8,28 15,58 15,66 c0,21 83,270 127,382 c30,78 106,237 154,326 c24,44 141,213 173,250 c78,89 167,177 236,234 c79,66 266,208 313,239 c31,20 34,22 147,118 c127,108 232,224 314,349 l36,55 l0,-154 l0,-153 l-37,-46 c-73,-91 -261,-263 -345,-317 c-86,-54 -384,-260 -398,-275 c-3,-3 -21,-18 -40,-33 c-70,-56 -194,-184 -256,-263 c-35,-45 -64,-84 -64,-87 c0,-3 -13,-26 -29,-49 c-128,-189 -290,-633 -361,-988 c-5,-25 -19,-88 -30,-140 c-12,-52 -41,-194 -65,-315 c-99,-490 -159,-719 -255,-960 c-71,-180 -130,-299 -218,-436 c-18,-28 -27,-49 -20,-47 c28,10 167,263 231,423 c80,199 158,462 212,715 c9,41 20,93 25,115 c5,22 29,141 54,265 c56,278 74,365 86,410 c5,19 16,67 26,105 c33,141 105,371 156,500 c72,182 188,389 281,503 c56,68 190,200 262,259 c44,35 157,115 250,177 c257,172 384,277 491,407 l54,67 l-2,173 l-3,174 l-62,-90 z" id="svg_37" fill="#ffffff" fill-opacity="0.10" stroke-width="7" stroke-dasharray="none" opacity="1" stroke="#131313" stroke-opacity="1" class=""/>
 <path d="M6221.550491333008,3773.0065155029297 c-39,-49 -169,-169 -248,-229 c-25,-19 -47,-37 -50,-40 c-3,-3 -59,-46 -125,-95 c-271,-199 -410,-338 -552,-550 c-106,-159 -216,-389 -278,-585 c-10,-30 -22,-66 -26,-78 c-44,-114 -136,-532 -204,-922 c-37,-215 -98,-514 -131,-650 c-51,-208 -145,-493 -189,-572 c-17,-30 -18,-38 -6,-38 c10,0 78,172 131,331 c70,210 134,500 225,1019 c123,700 260,1128 463,1445 c112,175 251,333 397,450 c33,27 62,51 65,55 c3,3 37,28 75,55 c170,120 288,217 403,332 l82,83 l0,-139 l0,-140 l-42,-40 c-76,-70 -140,-116 -478,-341 c-52,-35 -97,-66 -100,-69 c-3,-3 -30,-26 -60,-51 c-239,-193 -414,-456 -547,-820 c-19,-52 -39,-108 -43,-125 c-5,-16 -18,-61 -30,-100 c-27,-92 -93,-358 -115,-465 c-9,-47 -25,-123 -35,-170 c-10,-47 -25,-123 -35,-170 c-97,-484 -181,-780 -291,-1032 c-41,-95 -50,-126 -27,-96 c5,7 20,38 32,68 c12,30 26,64 31,75 c7,18 19,50 65,175 c27,72 75,240 109,380 c45,188 71,306 152,705 c124,614 269,1004 478,1285 c139,186 257,289 568,494 c97,64 182,122 190,129 c7,7 40,33 73,59 c33,25 72,59 88,75 l28,30 l-3,160 l-3,160 l-37,-48 z" id="svg_38" fill="#ffffff" fill-opacity="0.10" stroke-width="7" stroke-dasharray="none" opacity="1" stroke="#131313" stroke-opacity="1" class=""/>
 <path d="M6218.550491333008,3338.0065155029297 c-60,-54 -161,-133 -245,-194 c-41,-29 -77,-56 -80,-59 c-3,-3 -39,-33 -80,-66 c-72,-57 -265,-244 -305,-295 c-188,-240 -342,-550 -430,-870 c-73,-265 -116,-467 -180,-840 c-36,-215 -71,-401 -97,-515 c-53,-242 -92,-392 -119,-462 c-5,-13 -5,-23 -1,-23 c19,0 99,303 156,585 c15,76 25,128 60,330 c9,50 30,164 47,255 c16,91 34,188 39,215 c5,28 19,93 30,145 c12,52 25,111 30,130 c16,75 92,320 128,415 c83,215 204,441 315,585 c92,119 276,290 487,452 c113,86 214,164 225,175 c58,53 55,58 55,-90 l0,-135 l-77,-53 c-43,-30 -130,-87 -193,-127 c-343,-219 -516,-401 -675,-713 c-104,-203 -177,-408 -249,-694 c-43,-173 -56,-232 -90,-395 c-25,-122 -56,-270 -72,-345 c-40,-183 -47,-215 -64,-285 c-27,-113 -79,-296 -106,-373 c-27,-77 -27,-77 -15,-77 c5,0 11,10 14,22 c3,13 24,83 46,155 c46,151 98,361 136,543 c44,212 83,401 105,500 c12,52 25,113 29,135 c15,71 80,307 111,405 c76,231 204,498 309,640 c40,54 164,200 170,200 c3,1 35,27 70,60 c54,50 232,175 396,279 c22,14 68,45 102,70 l62,46 l1,153 c0,83 -1,152 -2,152 c-2,0 -21,-16 -43,-36 z" id="svg_39" fill="#ffffff" fill-opacity="0.10" stroke-width="7" stroke-dasharray="none" opacity="1" stroke="#131313" stroke-opacity="1" class=""/>
 <path d="M6168.550491333008,2872.0065155029297 c-49,-38 -97,-75 -105,-81 c-8,-7 -47,-37 -85,-67 c-165,-129 -298,-268 -409,-427 c-20,-29 -36,-55 -36,-57 c0,-2 -21,-40 -46,-83 c-89,-149 -162,-323 -232,-548 c-74,-237 -116,-431 -228,-1060 c-46,-259 -70,-382 -91,-463 c-9,-34 -13,-65 -10,-68 c9,-9 36,102 72,301 c9,50 23,124 31,165 c28,150 53,287 69,380 c94,535 188,862 330,1153 c25,51 56,110 70,132 c14,22 28,47 31,55 c8,17 106,159 137,198 c64,81 281,282 412,383 c83,63 156,119 163,123 c9,5 12,-13 12,-82 l0,-89 l-106,-83 c-136,-108 -444,-408 -372,-364 c7,4 8,3 4,-4 c-4,-6 -13,-9 -20,-6 c-8,3 -32,-17 -58,-48 c-51,-60 -138,-176 -138,-183 c0,-2 -13,-23 -29,-47 c-55,-82 -145,-274 -210,-448 c-50,-134 -124,-405 -168,-614 c-13,-67 -40,-193 -58,-281 c-57,-270 -76,-355 -111,-495 c-19,-74 -34,-139 -34,-145 c2,-61 88,289 169,690 c60,294 89,423 132,575 c31,108 119,373 129,385 c4,6 11,21 15,35 c4,14 30,69 57,124 c108,215 273,444 311,431 c6,-3 27,18 46,46 c47,69 172,164 411,312 l30,19 l0,-85 l0,-86 l-41,-28 c-106,-72 -254,-188 -295,-231 c-102,-105 -202,-230 -227,-282 c-4,-8 -17,-31 -28,-50 c-98,-160 -209,-432 -271,-660 c-40,-147 -75,-287 -103,-417 c-8,-40 -21,-103 -29,-140 c-8,-38 -22,-99 -30,-138 c-8,-38 -25,-117 -37,-175 c-22,-109 -55,-228 -43,-160 c3,19 12,69 20,110 c7,41 29,165 48,275 c82,473 104,577 190,896 c23,87 86,260 140,386 c50,118 161,320 198,360 c11,12 18,27 16,34 c-7,20 -114,-152 -183,-294 c-155,-320 -253,-672 -350,-1247 c-15,-88 -31,-178 -71,-400 c-9,-47 -22,-113 -30,-147 c-8,-34 -14,-71 -14,-83 c0,-27 26,-26 33,3 c55,241 84,373 113,517 c26,130 33,161 64,295 c71,305 110,437 195,660 c30,81 121,263 173,350 c103,171 287,361 461,479 c56,37 104,73 107,80 c2,6 3,117 2,247 l-3,236 l-90,-69 zm85,-187 c0,-30 -8,-36 -205,-163 c-100,-64 -106,-66 -50,-14 c54,50 243,206 251,206 c2,0 4,-13 4,-29 z" id="svg_40" fill="#ffffff" fill-opacity="0.10" stroke-width="7" stroke-dasharray="none" opacity="1" stroke="#131313" stroke-opacity="1" class=""/>
 <path d="M6192.550491333008,2267.0065155029297 c-130,-116 -252,-259 -344,-403 c-46,-72 -155,-281 -190,-365 c-99,-238 -195,-618 -270,-1062 c-27,-167 -46,-277 -55,-323 c-5,-24 -6,-48 -4,-52 c10,-16 34,-7 38,15 c6,30 32,147 50,232 c9,39 27,122 41,185 c61,282 136,549 203,725 c26,68 64,158 72,170 c4,6 27,48 51,95 c102,200 257,390 412,505 l67,50 l0,143 c0,78 -1,142 -3,142 c-2,0 -32,-26 -68,-57 zm34,-233 c-16,-14 -49,-41 -73,-60 c-58,-45 -160,-150 -214,-220 c-185,-237 -329,-569 -430,-985 c-20,-82 -41,-166 -46,-185 c-12,-48 -54,-238 -84,-389 c-24,-116 -36,-156 -36,-118 c0,9 12,82 26,164 c14,81 29,173 34,203 c29,187 87,467 131,627 c12,43 25,92 29,108 c54,209 195,524 316,706 c27,41 51,76 54,79 c3,3 21,25 40,50 c31,41 67,82 125,145 c11,12 49,48 85,81 l65,59 l3,-120 l3,-120 l-28,-25 z" id="svg_41" fill="#ffffff" fill-opacity="0.10" stroke-width="7" stroke-dasharray="none" opacity="1" stroke="#131313" stroke-opacity="1" class=""/>
 <path d="M6206.550491333008,1852.0065155029297 c-228,-235 -408,-600 -533,-1081 c-50,-193 -147,-703 -136,-714 c19,-20 36,23 75,193 c67,288 118,462 206,703 c71,194 226,448 360,588 l84,88 l1,138 c0,75 -1,137 -3,137 c-1,0 -26,-24 -54,-52 zm-21,-282 c-107,-110 -191,-228 -273,-383 c-41,-78 -104,-216 -119,-263 c-5,-14 -18,-50 -29,-80 c-48,-127 -125,-405 -180,-655 c-29,-132 -31,-136 -25,-70 c10,115 68,413 129,655 c34,133 118,386 163,490 c97,222 200,390 331,539 l66,75 l3,-119 l3,-119 l-69,-70 z" id="svg_42" fill="#ffffff" fill-opacity="0.10" stroke-width="7" stroke-dasharray="none" opacity="1" stroke="#131313" stroke-opacity="1" class=""/>
 <path d="M6240.550491333008,1428.0065155029297 c-119,-158 -296,-525 -347,-719 c-4,-16 -20,-70 -34,-120 c-15,-49 -31,-108 -36,-130 c-4,-22 -18,-83 -29,-135 c-12,-52 -25,-120 -30,-150 c-5,-30 -12,-67 -16,-82 c-6,-24 -4,-28 14,-28 c14,0 23,8 27,28 c43,182 125,443 181,577 c66,160 166,340 256,463 l38,50 l-3,135 c-3,132 -3,134 -21,111 zm-17,-278 c-99,-134 -224,-359 -275,-496 c-33,-90 -124,-367 -140,-430 c-52,-197 -57,-172 -11,51 c37,177 47,216 96,384 c77,263 188,505 333,722 l22,33 l3,-112 c3,-111 2,-112 -28,-152 z" id="svg_43" fill="#ffffff" fill-opacity="0.10" stroke-width="7" stroke-dasharray="none" opacity="1" stroke="#131313" stroke-opacity="1" class=""/>
 <path d="M6254.550491333008,899.0065155029297 c-2,-5 -2,-60 -1,-120 l2,-110 l-54,-105 c-88,-173 -157,-338 -188,-452 c-16,-59 -41,-67 -30,-10 c38,192 143,505 232,690 c33,67 32,100 0,35 c-59,-115 -173,-419 -193,-513 c-4,-19 -19,-80 -33,-135 c-32,-122 -32,-125 -3,-125 c20,0 27,13 61,112 c47,140 95,253 163,386 l54,103 l-4,127 c-1,70 -4,123 -6,117 z" id="svg_44" fill="#ffffff" fill-opacity="0.10" stroke-width="7" stroke-dasharray="none" opacity="1" stroke="#131313" stroke-opacity="1" class=""/>
 <path d="M6248.550491333008,242.0065155029297 c-18,-52 -55,-172 -55,-179 c0,-5 16,-9 35,-9 l35,0 l0,100 c0,93 -4,118 -15,88 zm5,-113 c0,-58 -2,-65 -20,-65 c-11,0 -20,5 -20,12 c0,14 32,118 37,118 c2,0 3,-29 3,-65 z" id="svg_45" fill="#ffffff" fill-opacity="0.10" stroke-width="7" stroke-dasharray="none" opacity="1" stroke="#131313" stroke-opacity="1" class=""/>
 <g id="layer102" fill="#ffffff" stroke="#131313" class="" fill-opacity="0.10" stroke-width="7" stroke-dasharray="none" opacity="1" stroke-opacity="1">
 </g></g></svg>
